  0
SECTION
  2
HEADER
  9
$ACADVER
  1
AC1015
  9
$ACADMAINTVER
 70
     6
  9
$DWGCODEPAGE
  3
ANSI_1252
  9
$INSBASE
 10
0.0
 20
0.0
 30
0.0
  9
$EXTMIN
 10
-3.4994546769
 20
-3.2455908975
 30
0.0
  9
$EXTMAX
 10
3.499754484
 20
4.738440262
 30
0.0
  9
$LIMMIN
 10
0.0
 20
0.0
  9
$LIMMAX
 10
12.0
 20
9.0
  9
$ORTHOMODE
 70
     0
  9
$REGENMODE
 70
     1
  9
$FILLMODE
 70
     1
  9
$QTEXTMODE
 70
     0
  9
$MIRRTEXT
 70
     1
  9
$LTSCALE
 40
1.0
  9
$ATTMODE
 70
     1
  9
$TEXTSIZE
 40
0.1377952756
  9
$TRACEWID
 40
0.05
  9
$TEXTSTYLE
  7
Standard
  9
$CLAYER
  8
0
  9
$CELTYPE
  6
ByLayer
  9
$CECOLOR
 62
   256
  9
$CELTSCALE
 40
1.0
  9
$DISPSILH
 70
     0
  9
$DIMSCALE
 40
1.0
  9
$DIMASZ
 40
0.13
  9
$DIMEXO
 40
0.0
  9
$DIMDLI
 40
0.38
  9
$DIMRND
 40
0.0
  9
$DIMDLE
 40
0.0
  9
$DIMEXE
 40
0.125
  9
$DIMTP
 40
0.0
  9
$DIMTM
 40
0.0
  9
$DIMTXT
 40
0.1377952756
  9
$DIMCEN
 40
0.09
  9
$DIMTSZ
 40
0.0
  9
$DIMTOL
 70
     0
  9
$DIMLIM
 70
     0
  9
$DIMTIH
 70
     1
  9
$DIMTOH
 70
     1
  9
$DIMSE1
 70
     0
  9
$DIMSE2
 70
     0
  9
$DIMTAD
 70
     1
  9
$DIMZIN
 70
     1
  9
$DIMBLK
  1

  9
$DIMASO
 70
     1
  9
$DIMSHO
 70
     1
  9
$DIMPOST
  1

  9
$DIMAPOST
  1

  9
$DIMALT
 70
     0
  9
$DIMALTD
 70
     2
  9
$DIMALTF
 40
25.4
  9
$DIMLFAC
 40
1.0
  9
$DIMTOFL
 70
     0
  9
$DIMTVP
 40
0.0
  9
$DIMTIX
 70
     0
  9
$DIMSOXD
 70
     0
  9
$DIMSAH
 70
     0
  9
$DIMBLK1
  1

  9
$DIMBLK2
  1

  9
$DIMSTYLE
  2
Standard
  9
$DIMCLRD
 70
     0
  9
$DIMCLRE
 70
     0
  9
$DIMCLRT
 70
     0
  9
$DIMTFAC
 40
1.0
  9
$DIMGAP
 40
0.06
  9
$DIMJUST
 70
     0
  9
$DIMSD1
 70
     0
  9
$DIMSD2
 70
     0
  9
$DIMTOLJ
 70
     1
  9
$DIMTZIN
 70
     1
  9
$DIMALTZ
 70
     0
  9
$DIMALTTZ
 70
     0
  9
$DIMUPT
 70
     0
  9
$DIMDEC
 70
     2
  9
$DIMTDEC
 70
     2
  9
$DIMALTU
 70
     2
  9
$DIMALTTD
 70
     2
  9
$DIMTXSTY
  7
Standard
  9
$DIMAUNIT
 70
     0
  9
$DIMADEC
 70
     2
  9
$DIMALTRND
 40
0.0
  9
$DIMAZIN
 70
     0
  9
$DIMDSEP
 70
    46
  9
$DIMATFIT
 70
     3
  9
$DIMFRAC
 70
     0
  9
$DIMLDRBLK
  1

  9
$DIMLUNIT
 70
     2
  9
$DIMLWD
 70
    -2
  9
$DIMLWE
 70
    -2
  9
$DIMTMOVE
 70
     0
  9
$LUNITS
 70
     2
  9
$LUPREC
 70
     2
  9
$SKETCHINC
 40
0.1
  9
$FILLETRAD
 40
0.0
  9
$AUNITS
 70
     0
  9
$AUPREC
 70
     2
  9
$MENU
  1
.
  9
$ELEVATION
 40
0.0
  9
$PELEVATION
 40
0.0
  9
$THICKNESS
 40
0.0
  9
$LIMCHECK
 70
     0
  9
$CHAMFERA
 40
0.0
  9
$CHAMFERB
 40
0.0
  9
$CHAMFERC
 40
0.0
  9
$CHAMFERD
 40
0.0
  9
$SKPOLY
 70
     0
  9
$TDCREATE
 40
2459872.738496968
  9
$TDUCREATE
 40
2459872.946830301
  9
$TDUPDATE
 40
2459872.738533854
  9
$TDUUPDATE
 40
2459872.946867188
  9
$TDINDWG
 40
0.0000000116
  9
$TDUSRTIMER
 40
0.0000000116
  9
$USRTIMER
 70
     1
  9
$ANGBASE
 50
0.0
  9
$ANGDIR
 70
     0
  9
$PDMODE
 70
     0
  9
$PDSIZE
 40
-1.0
  9
$PLINEWID
 40
0.0
  9
$SPLFRAME
 70
     0
  9
$SPLINETYPE
 70
     6
  9
$SPLINESEGS
 70
     8
  9
$HANDSEED
  5
A5
  9
$SURFTAB1
 70
     6
  9
$SURFTAB2
 70
     6
  9
$SURFTYPE
 70
     6
  9
$SURFU
 70
     6
  9
$SURFV
 70
     6
  9
$UCSBASE
  2

  9
$UCSNAME
  2

  9
$UCSORG
 10
0.0
 20
0.0
 30
0.0
  9
$UCSXDIR
 10
1.0
 20
0.0
 30
0.0
  9
$UCSYDIR
 10
0.0
 20
1.0
 30
0.0
  9
$UCSORTHOREF
  2

  9
$UCSORTHOVIEW
 70
     0
  9
$UCSORGTOP
 10
0.0
 20
0.0
 30
0.0
  9
$UCSORGBOTTOM
 10
0.0
 20
0.0
 30
0.0
  9
$UCSORGLEFT
 10
0.0
 20
0.0
 30
0.0
  9
$UCSORGRIGHT
 10
0.0
 20
0.0
 30
0.0
  9
$UCSORGFRONT
 10
0.0
 20
0.0
 30
0.0
  9
$UCSORGBACK
 10
0.0
 20
0.0
 30
0.0
  9
$PUCSBASE
  2

  9
$PUCSNAME
  2

  9
$PUCSORG
 10
0.0
 20
0.0
 30
0.0
  9
$PUCSXDIR
 10
1.0
 20
0.0
 30
0.0
  9
$PUCSYDIR
 10
0.0
 20
1.0
 30
0.0
  9
$PUCSORTHOREF
  2

  9
$PUCSORTHOVIEW
 70
     0
  9
$PUCSORGTOP
 10
0.0
 20
0.0
 30
0.0
  9
$PUCSORGBOTTOM
 10
0.0
 20
0.0
 30
0.0
  9
$PUCSORGLEFT
 10
0.0
 20
0.0
 30
0.0
  9
$PUCSORGRIGHT
 10
0.0
 20
0.0
 30
0.0
  9
$PUCSORGFRONT
 10
0.0
 20
0.0
 30
0.0
  9
$PUCSORGBACK
 10
0.0
 20
0.0
 30
0.0
  9
$USERI1
 70
     0
  9
$USERI2
 70
     0
  9
$USERI3
 70
     0
  9
$USERI4
 70
     0
  9
$USERI5
 70
     0
  9
$USERR1
 40
0.0
  9
$USERR2
 40
0.0
  9
$USERR3
 40
0.0
  9
$USERR4
 40
0.0
  9
$USERR5
 40
0.0
  9
$WORLDVIEW
 70
     1
  9
$SHADEDGE
 70
     3
  9
$SHADEDIF
 70
    70
  9
$TILEMODE
 70
     1
  9
$MAXACTVP
 70
    64
  9
$PINSBASE
 10
0.0
 20
0.0
 30
0.0
  9
$PLIMCHECK
 70
     0
  9
$PEXTMIN
 10
1.0000000000E+20
 20
1.0000000000E+20
 30
1.0000000000E+20
  9
$PEXTMAX
 10
-1.0000000000E+20
 20
-1.0000000000E+20
 30
-1.0000000000E+20
  9
$PLIMMIN
 10
0.0
 20
0.0
  9
$PLIMMAX
 10
12.0
 20
9.0
  9
$UNITMODE
 70
     0
  9
$VISRETAIN
 70
     1
  9
$PLINEGEN
 70
     0
  9
$PSLTSCALE
 70
     1
  9
$TREEDEPTH
 70
  3020
  9
$CMLSTYLE
  2
Standard
  9
$CMLJUST
 70
     0
  9
$CMLSCALE
 40
1.0
  9
$PROXYGRAPHICS
 70
     1
  9
$MEASUREMENT
 70
     0
  9
$CELWEIGHT
370
    -1
  9
$ENDCAPS
280
     0
  9
$JOINSTYLE
280
     0
  9
$LWDISPLAY
290
     1
  9
$INSUNITS
 70
     1
  9
$HYPERLINKBASE
  1

  9
$STYLESHEET
  1

  9
$XEDIT
290
     1
  9
$CEPSNTYPE
380
     0
  9
$PSTYLEMODE
290
     1
  9
$FINGERPRINTGUID
  2
{ea997131-7115-482d-860f-50cacda54322}
  9
$VERSIONGUID
  2
{FAEB1C32-E019-11D5-929B-00C0DF256EC4}
  9
$EXTNAMES
290
     1
  9
$PSVPSCALE
 40
0.0
  9
$OLESTARTUP
290
     0
  0
ENDSEC
  0
SECTION
  2
CLASSES
  0
CLASS
  1
ACDBDICTIONARYWDFLT
  2
AcDbDictionaryWithDefault
  3
ObjectDBX Classes
 90
        0
280
     0
281
     0
  0
CLASS
  1
VISUALSTYLE
  2
AcDbVisualStyle
  3
ObjectDBX Classes
 90
     4095
280
     0
281
     0
  0
CLASS
  1
MATERIAL
  2
AcDbMaterial
  3
ObjectDBX Classes
 90
     1153
280
     0
281
     0
  0
CLASS
  1
SCALE
  2
AcDbScale
  3
ObjectDBX Classes
 90
     1153
280
     0
281
     0
  0
CLASS
  1
TABLESTYLE
  2
AcDbTableStyle
  3
ObjectDBX Classes
 90
     4095
280
     0
281
     0
  0
CLASS
  1
MLEADERSTYLE
  2
AcDbMLeaderStyle
  3
ACDB_MLEADERSTYLE_CLASS
 90
     4095
280
     0
281
     0
  0
CLASS
  1
SUN
  2
AcDbSun
  3
SCENEOE
 90
     1153
280
     0
281
     0
  0
CLASS
  1
ACDBPLACEHOLDER
  2
AcDbPlaceHolder
  3
ObjectDBX Classes
 90
        0
280
     0
281
     0
  0
CLASS
  1
LAYOUT
  2
AcDbLayout
  3
ObjectDBX Classes
 90
        0
280
     0
281
     0
  0
ENDSEC
  0
SECTION
  2
TABLES
  0
TABLE
  2
VPORT
  5
8
330
0
100
AcDbSymbolTable
 70
     1
  0
VPORT
  5
29
330
8
100
AcDbSymbolTableRecord
100
AcDbViewportTableRecord
  2
*Active
 70
     0
 10
0.0
 20
0.0
 11
1.0
 21
1.0
 12
0.0001499036
 22
0.7464246822
 13
0.0
 23
0.0
 14
0.5
 24
0.5
 15
0.5
 25
0.5
 16
0.0
 26
0.0
 36
1.0
 17
0.0
 27
0.0
 37
0.0
 40
8.1437117828
 41
0.8766510327
 42
50.0
 43
0.0
 44
0.0
 50
0.0
 51
0.0
 71
     0
 72
   100
 73
     1
 74
     3
 75
     0
 76
     0
 77
     0
 78
     0
281
     0
 65
     1
110
0.0
120
0.0
130
0.0
111
1.0
121
0.0
131
0.0
112
0.0
122
1.0
132
0.0
 79
     0
146
0.0
  0
ENDTAB
  0
TABLE
  2
LTYPE
  5
5
330
0
100
AcDbSymbolTable
 70
     6
  0
LTYPE
  5
14
330
5
100
AcDbSymbolTableRecord
100
AcDbLinetypeTableRecord
  2
ByBlock
 70
     0
  3

 72
    65
 73
     0
 40
0.0
  0
LTYPE
  5
15
330
5
100
AcDbSymbolTableRecord
100
AcDbLinetypeTableRecord
  2
ByLayer
 70
     0
  3

 72
    65
 73
     0
 40
0.0
  0
LTYPE
  5
16
330
5
100
AcDbSymbolTableRecord
100
AcDbLinetypeTableRecord
  2
Continuous
 70
     0
  3
Solid line
 72
    65
 73
     0
 40
0.0
  0
LTYPE
  5
5E
330
5
100
AcDbSymbolTableRecord
100
AcDbLinetypeTableRecord
  2
HIDDEN
 70
     0
  3
Hidden __ __ __ __ __ __ __ __ __ __ __ __ __ __
 72
    65
 73
     2
 40
0.075
 49
0.05
 74
     0
 49
-0.025
 74
     0
  0
LTYPE
  5
5F
330
5
100
AcDbSymbolTableRecord
100
AcDbLinetypeTableRecord
  2
PHANTOM
 70
     0
  3
Phantom ______  __  __  ______  __  __  ______
 72
    65
 73
     6
 40
0.5
 49
0.25
 74
     0
 49
-0.05
 74
     0
 49
0.05
 74
     0
 49
-0.05
 74
     0
 49
0.05
 74
     0
 49
-0.05
 74
     0
  0
LTYPE
  5
60
330
5
100
AcDbSymbolTableRecord
100
AcDbLinetypeTableRecord
  2
CENTER
 70
     0
  3
Center ____ _ ____ _ ____ _ ____ _ ____ _ ____
 72
    65
 73
     4
 40
0.4
 49
0.25
 74
     0
 49
-0.05
 74
     0
 49
0.05
 74
     0
 49
-0.05
 74
     0
  0
LTYPE
  5
61
330
5
100
AcDbSymbolTableRecord
100
AcDbLinetypeTableRecord
  2
CENTERX2
 70
     0
  3
Center (2x) ________  __  ________  __  _____
 72
    65
 73
     4
 40
0.8
 49
0.5
 74
     0
 49
-0.1
 74
     0
 49
0.1
 74
     0
 49
-0.1
 74
     0
  0
LTYPE
  5
62
330
5
100
AcDbSymbolTableRecord
100
AcDbLinetypeTableRecord
  2
DOT2
 70
     0
  3
Dot (.5x) ........................................
 72
    65
 73
     2
 40
0.025
 49
0.0
 74
     0
 49
-0.025
 74
     0
  0
ENDTAB
  0
TABLE
  2
LAYER
  5
2
330
0
100
AcDbSymbolTable
 70
     1
  0
LAYER
  5
10
330
2
100
AcDbSymbolTableRecord
100
AcDbLayerTableRecord
  2
0
 70
     0
 62
     7
  6
Continuous
370
    -3
390
F
  0
ENDTAB
  0
TABLE
  2
STYLE
  5
3
330
0
100
AcDbSymbolTable
 70
     2
  0
STYLE
  5
11
330
3
100
AcDbSymbolTableRecord
100
AcDbTextStyleTableRecord
  2
Standard
 70
     0
 40
0.0
 41
1.0
 50
0.0
 71
     0
 42
0.1377952756
  3
txt
  4

  0
STYLE
  5
A1
330
3
100
AcDbSymbolTableRecord
100
AcDbTextStyleTableRecord
  2
SLDTEXTSTYLE0
 70
     0
 40
0.0
 41
0.7
 50
0.0
 71
     0
 42
0.1377952756
  3
TXT
  4

  0
ENDTAB
  0
TABLE
  2
VIEW
  5
6
330
0
100
AcDbSymbolTable
 70
     0
  0
ENDTAB
  0
TABLE
  2
UCS
  5
7
330
0
100
AcDbSymbolTable
 70
     0
  0
ENDTAB
  0
TABLE
  2
APPID
  5
9
330
0
100
AcDbSymbolTable
 70
     1
  0
APPID
  5
12
330
9
100
AcDbSymbolTableRecord
100
AcDbRegAppTableRecord
  2
ACAD
 70
     0
  0
ENDTAB
  0
TABLE
  2
DIMSTYLE
  5
A
330
0
100
AcDbSymbolTable
 70
     1
100
AcDbDimStyleTable
  0
DIMSTYLE
105
27
330
A
100
AcDbSymbolTableRecord
100
AcDbDimStyleTableRecord
  2
Standard
 70
     0
178
     0
340
11
  0
ENDTAB
  0
TABLE
  2
BLOCK_RECORD
  5
1
330
0
100
AcDbSymbolTable
 70
     1
  0
BLOCK_RECORD
  5
1F
330
1
100
AcDbSymbolTableRecord
100
AcDbBlockTableRecord
  2
*Model_Space
340
22
  0
BLOCK_RECORD
  5
1B
330
1
100
AcDbSymbolTableRecord
100
AcDbBlockTableRecord
  2
*Paper_Space
340
1E
  0
BLOCK_RECORD
  5
23
330
1
100
AcDbSymbolTableRecord
100
AcDbBlockTableRecord
  2
*Paper_Space0
340
26
  0
ENDTAB
  0
ENDSEC
  0
SECTION
  2
BLOCKS
  0
BLOCK
  5
20
330
1F
100
AcDbEntity
  8
0
100
AcDbBlockBegin
  2
*Model_Space
 70
     0
 10
0.0
 20
0.0
 30
0.0
  3
*Model_Space
  1

  0
ENDBLK
  5
21
330
1F
100
AcDbEntity
  8
0
100
AcDbBlockEnd
  0
BLOCK
  5
1C
330
1B
100
AcDbEntity
 67
     1
  8
0
100
AcDbBlockBegin
  2
*Paper_Space
 70
     0
 10
0.0
 20
0.0
 30
0.0
  3
*Paper_Space
  1

  0
ENDBLK
  5
1D
330
1B
100
AcDbEntity
 67
     1
  8
0
100
AcDbBlockEnd
  0
BLOCK
  5
24
330
23
100
AcDbEntity
  8
0
100
AcDbBlockBegin
  2
*Paper_Space0
 70
     0
 10
0.0
 20
0.0
 30
0.0
  3
*Paper_Space0
  1

  0
ENDBLK
  5
25
330
23
100
AcDbEntity
  8
0
100
AcDbBlockEnd
  0
ENDSEC
  0
SECTION
  2
ENTITIES
  0
LINE
  5
63
330
1F
100
AcDbEntity
  8
0
  6
Continuous
 62
     7
370
    25
100
AcDbLine
 10
-0.125
 20
-2.7451116176
 30
0.0
 11
-0.125
 21
-3.2455908975
 31
0.0
  0
LINE
  5
64
330
1F
100
AcDbEntity
  8
0
  6
Continuous
 62
     7
370
    25
100
AcDbLine
 10
0.125
 20
-2.7451116751
 30
0.0
 11
-0.125
 21
-2.7451116176
 31
0.0
  0
LINE
  5
65
330
1F
100
AcDbEntity
  8
0
  6
Continuous
 62
     7
370
    25
100
AcDbLine
 10
0.125
 20
-3.2455908975
 30
0.0
 11
0.125
 21
-2.7451116751
 31
0.0
  0
SPLINE
  5
66
330
1F
100
AcDbEntity
  8
0
  6
Continuous
 62
     7
370
    25
100
AcDbSpline
210
0.0
220
0.0
230
1.0
 70
     8
 71
     3
 72
    23
 73
    19
 74
     0
 42
0.00000001
 43
0.00000001
 40
0.1157613287078827
 40
0.1157613287078827
 40
0.1157613287078827
 40
0.1157613287078827
 40
0.1479698667151809
 40
0.1479698667151809
 40
0.1479698667151809
 40
0.1666799648552115
 40
0.1666799648552115
 40
0.1666799648552115
 40
0.2045668716875705
 40
0.2045668716875705
 40
0.2045668716875705
 40
0.2418864296471747
 40
0.2418864296471747
 40
0.2418864296471747
 40
0.2750008801996979
 40
0.2750008801996979
 40
0.2750008801996979
 40
0.2949845727550048
 40
0.2949845727550048
 40
0.2949845727550048
 40
0.2949845727550048
 10
3.310122888485695
 20
2.035343654068211
 30
0.0
 10
3.431907388827218
 20
1.631020382805953
 30
0.0
 10
3.495879275867148
 20
1.205046169465589
 30
0.0
 10
3.49960720334282
 20
0.782796391769515
 30
0.0
 10
3.50179180966794
 20
0.5353533980001167
 30
0.0
 10
3.483507422360405
 20
0.2868897270002687
 30
0.0
 10
3.445023771212848
 20
0.0424478806140346
 30
0.0
 10
3.367956249715482
 20
-0.4470723881097959
 30
0.0
 10
3.20669559818836
 20
-0.931145338729145
 30
0.0
 10
2.968818110841577
 20
-1.365868005926036
 30
0.0
 10
2.735004369051768
 20
-1.793164151483401
 30
0.0
 10
2.41837036122097
 20
-2.186397416005587
 30
0.0
 10
2.042009140600311
 20
-2.495594915139812
 30
0.0
 10
1.707780061216179
 20
-2.770178984436551
 30
0.0
 10
1.314387759549337
 20
-2.986812339244853
 30
0.0
 10
0.9006748642611768
 20
-3.113094281302331
 30
0.0
 10
0.649798684057085
 20
-3.189671858682576
 30
0.0
 10
0.3870814026533176
 20
-3.234805651390549
 30
0.0
 10
0.1250000000000248
 20
-3.245590897540083
 30
0.0
  0
SPLINE
  5
67
330
1F
100
AcDbEntity
  8
0
  6
Continuous
 62
     7
370
    25
100
AcDbSpline
210
0.0
220
0.0
230
1.0
 70
    24
 71
     3
 72
    11
 73
     7
 74
     0
 42
0.00000001
 43
0.00000001
 40
0.0
 40
0.0
 40
0.0
 40
0.0
 40
0.25
 40
0.5
 40
0.75
 40
1.0
 40
1.0
 40
1.0
 40
1.0
 10
3.192789578545074
 20
1.998474972769789
 30
0.0
 10
3.20272762360113
 20
2.001597722959712
 30
0.0
 10
3.222603713713244
 20
2.00784322333956
 30
0.0
 10
3.252417848881411
 20
2.017211473909331
 30
0.0
 10
3.282231984049584
 20
2.026579724479102
 30
0.0
 10
3.302108074161695
 20
2.03282522485895
 30
0.0
 10
3.312046119217752
 20
2.035947975048874
 30
0.0
  0
SPLINE
  5
68
330
1F
100
AcDbEntity
  8
0
  6
Continuous
 62
     7
370
    25
100
AcDbSpline
210
0.0
220
0.0
230
1.0
 70
     8
 71
     3
 72
    14
 73
    10
 74
     0
 42
0.00000001
 43
0.00000001
 40
0.0
 40
0.0
 40
0.0
 40
0.0
 40
0.0007940927287112
 40
0.0007940927287112
 40
0.0007940927287112
 40
0.0015881854574224
 40
0.0015881854574224
 40
0.0015881854574224
 40
0.0031763709148453
 40
0.0031763709148453
 40
0.0031763709148453
 40
0.0031763709148453
 10
3.15177144065937
 20
2.116610524293564
 30
0.0
 10
3.155189624031228
 20
2.106765896810534
 30
0.0
 10
3.158607806086446
 20
2.096921268870348
 30
0.0
 10
3.162025986834743
 20
2.087076640476383
 30
0.0
 10
3.165444167583038
 20
2.077232012082418
 30
0.0
 10
3.168862347024414
 20
2.067387383234673
 30
0.0
 10
3.172280525168593
 20
2.057542753936526
 30
0.0
 10
3.179116881456952
 20
2.037853495340224
 30
0.0
 10
3.185953232556523
 20
2.018164234942309
 30
0.0
 10
3.192789578545074
 20
1.998474972769789
 30
0.0
  0
SPLINE
  5
69
330
1F
100
AcDbEntity
  8
0
  6
Continuous
 62
     7
370
    25
100
AcDbSpline
210
0.0
220
0.0
230
1.0
 70
    24
 71
     3
 72
    11
 73
     7
 74
     0
 42
0.00000001
 43
0.00000001
 40
0.0
 40
0.0
 40
0.0
 40
0.0
 40
0.2500000000000001
 40
0.5000000000000002
 40
0.7499999999999999
 40
1.0
 40
1.0
 40
1.0
 40
1.0
 10
3.271028041102155
 20
2.154083546341695
 30
0.0
 10
3.261089991065257
 20
2.15096079450435
 30
0.0
 10
3.24121389099146
 20
2.144715290829661
 30
0.0
 10
3.21139974088076
 20
2.13534703531763
 30
0.0
 10
3.181585590770064
 20
2.125978779805596
 30
0.0
 10
3.161709490696267
 20
2.119733276130908
 30
0.0
 10
3.151771440659366
 20
2.116610524293566
 30
0.0
  0
SPLINE
  5
6A
330
1F
100
AcDbEntity
  8
0
  6
Continuous
 62
     7
370
    25
100
AcDbSpline
210
0.0
220
0.0
230
1.0
 70
     8
 71
     3
 72
    11
 73
     7
 74
     0
 42
0.00000001
 43
0.00000001
 40
0.1083186127666048
 40
0.1083186127666048
 40
0.1083186127666048
 40
0.1083186127666048
 40
0.1124004697385391
 40
0.1124004697385391
 40
0.1124004697385391
 40
0.1126168875329163
 40
0.1126168875329163
 40
0.1126168875329163
 40
0.1126168875329163
 10
3.215356028885088
 20
2.315354131065323
 30
0.0
 10
3.234411733599122
 20
2.264782873944058
 30
0.0
 10
3.25252172917324
 20
2.213845283760473
 30
0.0
 10
3.269675434944875
 20
2.16259762715772
 30
0.0
 10
3.270587131835314
 20
2.159873881642376
 30
0.0
 10
3.27149613882204
 20
2.157149234282131
 30
0.0
 10
3.272402455014302
 20
2.154423693636307
 30
0.0
  0
LINE
  5
6B
330
1F
100
AcDbEntity
  8
0
  6
Continuous
 62
     7
370
    25
100
AcDbLine
 10
3.2153560289
 20
2.3153541311
 30
0.0
 11
2.9192891253
 21
2.3153541307
 31
0.0
  0
LINE
  5
6C
330
1F
100
AcDbEntity
  8
0
  6
Continuous
 62
     7
370
    25
100
AcDbLine
 10
2.9192891252
 20
2.4403541308
 30
0.0
 11
2.9192891253
 21
2.3153541307
 31
0.0
  0
LINE
  5
6D
330
1F
100
AcDbEntity
  8
0
  6
Continuous
 62
     7
370
    25
100
AcDbLine
 10
2.9192891252
 20
2.4403541308
 30
0.0
 11
3.1660205709
 21
2.4403541311
 31
0.0
  0
SPLINE
  5
6E
330
1F
100
AcDbEntity
  8
0
  6
Continuous
 62
     7
370
    25
100
AcDbSpline
210
0.0
220
0.0
230
1.0
 70
     8
 71
     3
 72
    11
 73
     7
 74
     0
 42
0.00000001
 43
0.00000001
 40
0.0796126858274405
 40
0.0796126858274405
 40
0.0796126858274405
 40
0.0796126858274405
 40
0.0807523240811675
 40
0.0807523240811675
 40
0.0807523240811675
 40
0.1049222271393001
 40
0.1049222271393001
 40
0.1049222271393001
 40
0.1049222271393001
 10
2.677996778866233
 20
3.31054846930764
 30
0.0
 10
2.686959996452263
 20
3.298363905835581
 30
0.0
 10
2.695852991790292
 20
3.286127375392064
 30
0.0
 10
2.704675231156217
 20
3.273840351787079
 30
0.0
 10
2.889883111984328
 20
3.015895230466348
 30
0.0
 10
3.044850227726537
 20
2.733876519784168
 30
0.0
 10
3.166020570891761
 20
2.440354131078931
 30
0.0
  0
SPLINE
  5
6F
330
1F
100
AcDbEntity
  8
0
  6
Continuous
 62
     7
370
    25
100
AcDbSpline
210
0.0
220
0.0
230
1.0
 70
    24
 71
     3
 72
    11
 73
     7
 74
     0
 42
0.00000001
 43
0.00000001
 40
0.0
 40
0.0
 40
0.0
 40
0.0
 40
0.25
 40
0.5
 40
0.75
 40
0.9870633984565024
 40
0.9870633984565024
 40
0.9870633984565024
 40
0.9870633984565024
 10
2.579675895254264
 20
3.235972404903514
 30
0.0
 10
2.587976686247314
 20
3.242268527364992
 30
0.0
 10
2.604578268233411
 20
3.254860772287945
 30
0.0
 10
2.62948064121256
 20
3.273749139672382
 30
0.0
 10
2.653953478089416
 20
3.292311705346599
 30
0.0
 10
2.670125523973224
 20
3.304578148559342
 30
0.0
 10
2.677996778863982
 20
3.310548469310607
 30
0.0
  0
SPLINE
  5
70
330
1F
100
AcDbEntity
  8
0
  6
Continuous
 62
     7
370
    25
100
AcDbSpline
210
0.0
220
0.0
230
1.0
 70
     8
 71
     3
 72
    14
 73
    10
 74
     0
 42
0.00000001
 43
0.00000001
 40
0.0
 40
0.0
 40
0.0
 40
0.0
 40
0.0007939055021793
 40
0.0007939055021793
 40
0.0007939055021793
 40
0.0015878110043586
 40
0.0015878110043586
 40
0.0015878110043586
 40
0.0031756220087178
 40
0.0031756220087178
 40
0.0031756220087178
 40
0.0031756220087178
 10
2.501641482969785
 20
3.333654303088967
 30
0.0
 10
2.508144355249714
 20
3.325514148573685
 30
0.0
 10
2.514647226390741
 20
3.317373993148575
 30
0.0
 10
2.521150096376811
 20
3.309233836800812
 30
0.0
 10
2.527652966362881
 20
3.301093680453049
 30
0.0
 10
2.534155835201665
 20
3.292953523188763
 30
0.0
 10
2.54065870289246
 20
3.284813365007391
 30
0.0
 10
2.553664438274057
 20
3.268533048644643
 30
0.0
 10
2.566670169063688
 20
3.252252728613545
 30
0.0
 10
2.579675895255691
 20
3.235972404909578
 30
0.0
  0
SPLINE
  5
71
330
1F
100
AcDbEntity
  8
0
  6
Continuous
 62
     7
370
    25
100
AcDbSpline
210
0.0
220
0.0
230
1.0
 70
    24
 71
     3
 72
    11
 73
     7
 74
     0
 42
0.00000001
 43
0.00000001
 40
0.0
 40
0.0
 40
0.0
 40
0.0
 40
0.25
 40
0.5
 40
0.75
 40
1.0
 40
1.0
 40
1.0
 40
1.0
 10
2.601250993128235
 20
3.409207788159346
 30
0.0
 10
2.59295020061555
 20
3.402911664403486
 30
0.0
 10
2.576348615590183
 20
3.390319416891769
 30
0.0
 10
2.551446238052127
 20
3.371431045624183
 30
0.0
 10
2.526543860514076
 20
3.352542674356612
 30
0.0
 10
2.509942275488707
 20
3.339950426844887
 30
0.0
 10
2.501641482976023
 20
3.333654303089027
 30
0.0
  0
SPLINE
  5
72
330
1F
100
AcDbEntity
  8
0
  6
Continuous
 62
     7
370
    25
100
AcDbSpline
210
0.0
220
0.0
230
1.0
 70
     8
 71
     3
 72
    14
 73
    10
 74
     0
 42
0.00000001
 43
0.00000001
 40
0.0012194590498729
 40
0.0012194590498729
 40
0.0012194590498729
 40
0.0012194590498729
 40
0.0015878110139322
 40
0.0015878110139322
 40
0.0015878110139322
 40
0.0023817165208985
 40
0.0023817165208985
 40
0.0023817165208985
 40
0.0031756220278649
 40
0.0031756220278649
 40
0.0031756220278649
 40
0.0031756220278649
 10
2.649319696739029
 20
3.349036360807899
 30
0.0
 10
2.646302532715489
 20
3.352813188173192
 30
0.0
 10
2.643285368444748
 20
3.356590015341005
 30
0.0
 10
2.640268203926876
 20
3.360366842311395
 30
0.0
 10
2.633765337755714
 20
3.368507001787152
 30
0.0
 10
2.627262470436559
 20
3.376647160345821
 30
0.0
 10
2.620759601970121
 20
3.384787317987968
 30
0.0
 10
2.614256733503684
 20
3.392927475630117
 30
0.0
 10
2.607753863889964
 20
3.401067632355744
 30
0.0
 10
2.601250993129669
 20
3.409207788165415
 30
0.0
  0
SPLINE
  5
73
330
1F
100
AcDbEntity
  8
0
  6
Continuous
 62
     7
370
    25
100
AcDbSpline
210
0.0
220
0.0
230
1.0
 70
     8
 71
     3
 72
    11
 73
     7
 74
     0
 42
0.00000001
 43
0.00000001
 40
0.0413489278423462
 40
0.0413489278423462
 40
0.0413489278423462
 40
0.0413489278423462
 40
0.0524946382102688
 40
0.0524946382102688
 40
0.0524946382102688
 40
0.0784053432958691
 40
0.0784053432958691
 40
0.0784053432958691
 40
0.0784053432958691
 10
1.561338662413645
 20
4.3169021388438
 30
0.0
 10
1.689010118323163
 20
4.243961717855916
 30
0.0
 10
1.812113508162315
 20
4.162441708359946
 30
0.0
 10
1.929359412971648
 20
4.073707817014044
 30
0.0
 10
2.200872005740947
 20
3.868222013948985
 30
0.0
 10
2.444205737064162
 20
3.620829971549725
 30
0.0
 10
2.649319696739044
 20
3.349036360807879
 30
0.0
  0
SPLINE
  5
74
330
1F
100
AcDbEntity
  8
0
  6
Continuous
 62
     7
370
    25
100
AcDbSpline
210
0.0
220
0.0
230
1.0
 70
    24
 71
     3
 72
    11
 73
     7
 74
     0
 42
0.00000001
 43
0.00000001
 40
0.0
 40
0.0
 40
0.0
 40
0.0
 40
0.2500000000000002
 40
0.5000000000000004
 40
0.7499999999999998
 40
0.9913329374930695
 40
0.9913329374930695
 40
0.9913329374930695
 40
0.9913329374930695
 10
1.501939796155264
 20
4.208140292906574
 30
0.0
 10
1.506932977894897
 20
4.21728302066102
 30
0.0
 10
1.516919341374161
 20
4.23556847616991
 30
0.0
 10
1.531898886593061
 20
4.262996659433253
 30
0.0
 10
1.546705326938972
 20
4.290107880324864
 30
0.0
 10
1.556518585545254
 20
4.308076373462031
 30
0.0
 10
1.561338662411904
 20
4.31690213884475
 30
0.0
  0
SPLINE
  5
75
330
1F
100
AcDbEntity
  8
0
  6
Continuous
 62
     7
370
    25
100
AcDbSpline
210
0.0
220
0.0
230
1.0
 70
     8
 71
     3
 72
    14
 73
    10
 74
     0
 42
0.00000001
 43
0.00000001
 40
0.0
 40
0.0
 40
0.0
 40
0.0
 40
0.000793791037355
 40
0.000793791037355
 40
0.000793791037355
 40
0.0019844775933875
 40
0.0019844775933875
 40
0.0019844775933875
 40
0.0031751641494201
 40
0.0031751641494201
 40
0.0031751641494201
 40
0.0031751641494201
 10
1.391663929618287
 20
4.267011754122402
 30
0.0
 10
1.400853586387469
 20
4.262105801315006
 30
0.0
 10
1.410043242853078
 20
4.257199847938967
 30
0.0
 10
1.419232899008813
 20
4.252293893982484
 30
0.0
 10
1.433017383242415
 20
4.244934963047759
 30
0.0
 10
1.446801866786622
 20
4.237576030821683
 30
0.0
 10
1.460586349643623
 20
4.230217097308359
 30
0.0
 10
1.474370832500626
 20
4.222858163795036
 30
0.0
 10
1.488155314670427
 20
4.215499228994473
 30
0.0
 10
1.501939796155216
 20
4.208140292910771
 30
0.0
  0
SPLINE
  5
76
330
1F
100
AcDbEntity
  8
0
  6
Continuous
 62
     7
370
    25
100
AcDbSpline
210
0.0
220
0.0
230
1.0
 70
    24
 71
     3
 72
    11
 73
     7
 74
     0
 42
0.00000001
 43
0.00000001
 40
0.0
 40
0.0
 40
0.0
 40
0.0
 40
0.25
 40
0.5
 40
0.75
 40
1.0
 40
1.0
 40
1.0
 40
1.0
 10
1.451582113687488
 20
4.376724493616069
 30
0.0
 10
1.446588931682014
 20
4.367581765325123
 30
0.0
 10
1.436602567671067
 20
4.349296308743236
 30
0.0
 10
1.421623021654647
 20
4.321868123870379
 30
0.0
 10
1.406643475638224
 20
4.294439938997555
 30
0.0
 10
1.396657111627277
 20
4.276154482415654
 30
0.0
 10
1.391663929621804
 20
4.267011754124708
 30
0.0
  0
SPLINE
  5
77
330
1F
100
AcDbEntity
  8
0
  6
Continuous
 62
     7
370
    25
100
AcDbSpline
210
0.0
220
0.0
230
1.0
 70
     8
 71
     3
 72
    20
 73
    16
 74
     0
 42
0.00000001
 43
0.00000001
 40
0.5578007677820647
 40
0.5578007677820647
 40
0.5578007677820647
 40
0.5578007677820647
 40
0.5646057707950259
 40
0.5646057707950259
 40
0.5646057707950259
 40
0.5798310494108918
 40
0.5798310494108918
 40
0.5798310494108918
 40
0.5956822829417392
 40
0.5956822829417392
 40
0.5956822829417392
 40
0.6218790433192485
 40
0.6218790433192485
 40
0.6218790433192485
 40
0.6338600108110375
 40
0.6338600108110375
 40
0.6338600108110375
 40
0.6338600108110375
 10
-1.451651543392509
 20
4.376864953238363
 30
0.0
 10
-1.371768442265115
 20
4.418598173489918
 30
0.0
 10
-1.290106720071883
 20
4.457096481859761
 30
0.0
 10
-1.207049930254038
 20
4.492089926723744
 30
0.0
 10
-1.020660484738272
 20
4.570619434054676
 30
0.0
 10
-0.8259185868743987
 20
4.631802600452571
 30
0.0
 10
-0.627953856594043
 20
4.673249849894961
 30
0.0
 10
-0.4219768120136509
 20
4.716374612240453
 30
0.0
 10
-0.2104430719149789
 20
4.738446028405705
 30
0.0
 10
0.000000003574399
 20
4.738446028405705
 30
0.0
 10
0.3437895098409252
 20
4.738446028405705
 30
0.0
 10
0.6920496707668593
 20
4.678296945499103
 30
0.0
 10
1.016723269580366
 20
4.565255896085771
 30
0.0
 10
1.165931934256922
 20
4.51330617150626
 30
0.0
 10
1.311620446102478
 20
4.450021446566293
 30
0.0
 10
1.451655520705578
 20
4.376862869629941
 30
0.0
  0
SPLINE
  5
78
330
1F
100
AcDbEntity
  8
0
  6
Continuous
 62
     7
370
    25
100
AcDbSpline
210
0.0
220
0.0
230
1.0
 70
    24
 71
     3
 72
    11
 73
     7
 74
     0
 42
0.00000001
 43
0.00000001
 40
0.0
 40
0.0
 40
0.0
 40
0.0
 40
0.2499999999999998
 40
0.5
 40
0.7500000000000002
 40
1.0
 40
1.0
 40
1.0
 40
1.0
 10
-1.391650044681196
 20
4.267013569627674
 30
0.0
 10
-1.396643226675724
 20
4.276156297896533
 30
0.0
 10
-1.406629590664782
 20
4.294441754434246
 30
0.0
 10
-1.42160913664837
 20
4.321869939240832
 30
0.0
 10
-1.436588682631956
 20
4.349298124047401
 30
0.0
 10
-1.446575046621015
 20
4.367583580585123
 30
0.0
 10
-1.451568228615544
 20
4.376726308853981
 30
0.0
  0
SPLINE
  5
79
330
1F
100
AcDbEntity
  8
0
  6
Continuous
 62
     7
370
    25
100
AcDbSpline
210
0.0
220
0.0
230
1.0
 70
     8
 71
     3
 72
    14
 73
    10
 74
     0
 42
0.00000001
 43
0.00000001
 40
0.0000000083940526
 40
0.0000000083940526
 40
0.0000000083940526
 40
0.0000000083940526
 40
0.0015875800379454
 40
0.0015875800379454
 40
0.0015875800379454
 40
0.0023813700569182
 40
0.0023813700569182
 40
0.0023813700569182
 40
0.0031751600758911
 40
0.0031751600758911
 40
0.0031751600758911
 40
0.0031751600758911
 10
-1.501917472704703
 20
4.208125905011917
 30
0.0
 10
-1.483538024662949
 20
4.217937268000777
 30
0.0
 10
-1.46515857488789
 20
4.22774862774267
 30
0.0
 10
-1.446779123381098
 20
4.237559984240535
 30
0.0
 10
-1.437589349038372
 20
4.242465688427524
 30
0.0
 10
-1.428399574262707
 20
4.247371391803497
 30
0.0
 10
-1.419209799054301
 20
4.252277094368823
 30
0.0
 10
-1.410020023845895
 20
4.257182796934149
 30
0.0
 10
-1.400830248204747
 20
4.262088498688827
 30
0.0
 10
-1.391640472131054
 20
4.266994199633224
 30
0.0
  0
SPLINE
  5
7A
330
1F
100
AcDbEntity
  8
0
  6
Continuous
 62
     7
370
    25
100
AcDbSpline
210
0.0
220
0.0
230
1.0
 70
    24
 71
     3
 72
    11
 73
     7
 74
     0
 42
0.00000001
 43
0.00000001
 40
0.0086491390167169
 40
0.0086491390167169
 40
0.0086491390167169
 40
0.0086491390167169
 40
0.25
 40
0.5
 40
0.75
 40
1.0
 40
1.0
 40
1.0
 40
1.0
 10
-1.561327167053945
 20
4.31690871253261
 30
0.0
 10
-1.556506732216843
 20
4.308082291692759
 30
0.0
 10
-1.546693115651007
 20
4.290113143120458
 30
0.0
 10
-1.531886317356438
 20
4.263001266815712
 30
0.0
 10
-1.516906772170239
 20
4.235573083618363
 30
0.0
 10
-1.506920408712775
 20
4.217287628153465
 30
0.0
 10
-1.501927226984043
 20
4.208144900421015
 30
0.0
  0
SPLINE
  5
7B
330
1F
100
AcDbEntity
  8
0
  6
Continuous
 62
     7
370
    25
100
AcDbSpline
210
0.0
220
0.0
230
1.0
 70
     8
 71
     3
 72
    11
 73
     7
 74
     0
 42
0.00000001
 43
0.00000001
 40
0.5194370471315269
 40
0.5194370471315269
 40
0.5194370471315269
 40
0.5194370471315269
 40
0.530170916057911
 40
0.530170916057911
 40
0.530170916057911
 40
0.5546300961839918
 40
0.5546300961839918
 40
0.5546300961839918
 40
0.5546300961839918
 10
-2.602333029850766
 20
3.410036640574746
 30
0.0
 10
-2.514785836486644
 20
3.521399177501742
 30
0.0
 10
-2.420994203837028
 20
3.628146590261072
 30
0.0
 10
-2.321561829591395
 20
3.729039249303382
 30
0.0
 10
-2.096705897267278
 20
3.957197463222468
 30
0.0
 10
-1.83947276003601
 20
4.158001853068492
 30
0.0
 10
-1.561327167053941
 20
4.316908712532608
 30
0.0
  0
SPLINE
  5
7C
330
1F
100
AcDbEntity
  8
0
  6
Continuous
 62
     7
370
    25
100
AcDbSpline
210
0.0
220
0.0
230
1.0
 70
    24
 71
     3
 72
    11
 73
     7
 74
     0
 42
0.00000001
 43
0.00000001
 40
0.0
 40
0.0
 40
0.0
 40
0.0
 40
0.2499999999999999
 40
0.4999999999999998
 40
0.7500000000000001
 40
1.0
 40
1.0
 40
1.0
 40
1.0
 10
-2.501843455562499
 20
3.333898779507182
 30
0.0
 10
-2.510144248056446
 20
3.340194903247083
 30
0.0
 10
-2.526745833044338
 20
3.352787150726882
 30
0.0
 10
-2.551648210526178
 20
3.371675521946577
 30
0.0
 10
-2.576550588008014
 20
3.390563893166279
 30
0.0
 10
-2.593152172995907
 20
3.403156140646074
 30
0.0
 10
-2.601452965489853
 20
3.409452264385973
 30
0.0
  0
SPLINE
  5
7D
330
1F
100
AcDbEntity
  8
0
  6
Continuous
 62
     7
370
    25
100
AcDbSpline
210
0.0
220
0.0
230
1.0
 70
     8
 71
     3
 72
    14
 73
    10
 74
     0
 42
0.00000001
 43
0.00000001
 40
0.0
 40
0.0
 40
0.0
 40
0.0
 40
0.0015878207540131
 40
0.0015878207540131
 40
0.0015878207540131
 40
0.0023817311310203
 40
0.0023817311310203
 40
0.0023817311310203
 40
0.0031756415080276
 40
0.0031756415080276
 40
0.0031756415080276
 40
0.0031756415080276
 10
-2.579876273047867
 20
3.236214624765544
 30
0.0
 10
-2.566870818980055
 20
3.252495329615572
 30
0.0
 10
-2.553865357151406
 20
3.268776028266043
 30
0.0
 10
-2.540859887564006
 20
3.285056720718605
 30
0.0
 10
-2.5343571527703
 20
3.293197066944892
 30
0.0
 10
-2.527854416038712
 20
3.301337411623146
 30
0.0
 10
-2.521351677371306
 20
3.309477754755013
 30
0.0
 10
-2.514848938703899
 20
3.317618097886882
 30
0.0
 10
-2.508346198100674
 20
3.325758439472365
 30
0.0
 10
-2.501843455563698
 20
3.33389877951311
 30
0.0
  0
SPLINE
  5
7E
330
1F
100
AcDbEntity
  8
0
  6
Continuous
 62
     7
370
    25
100
AcDbSpline
210
0.0
220
0.0
230
1.0
 70
    24
 71
     3
 72
    11
 73
     7
 74
     0
 42
0.00000001
 43
0.00000001
 40
0.0
 40
0.0
 40
0.0
 40
0.0
 40
0.2346240935883929
 40
0.4846240935883928
 40
0.7346240935883931
 40
0.984624093588393
 40
0.984624093588393
 40
0.984624093588393
 40
0.984624093588393
 10
-2.677954178532406
 20
3.310606391039996
 30
0.0
 10
-2.670163916298534
 20
3.304697502952211
 30
0.0
 10
-2.65407286309012
 20
3.292492492418713
 30
0.0
 10
-2.629681018907168
 20
3.273991359439502
 30
0.0
 10
-2.60477864598355
 20
3.255102992102367
 30
0.0
 10
-2.588177064034469
 20
3.242510747210944
 30
0.0
 10
-2.579876273059929
 20
3.236214624765233
 30
0.0
  0
SPLINE
  5
7F
330
1F
100
AcDbEntity
  8
0
  6
Continuous
 62
     7
370
    25
100
AcDbSpline
210
0.0
220
0.0
230
1.0
 70
     8
 71
     3
 72
    11
 73
     7
 74
     0
 42
0.00000001
 43
0.00000001
 40
0.4906210598123052
 40
0.4906210598123052
 40
0.4906210598123052
 40
0.4906210598123052
 40
0.492145294737842
 40
0.492145294737842
 40
0.492145294737842
 40
0.5162591017749969
 40
0.5162591017749969
 40
0.5162591017749969
 40
0.5162591017749969
 10
-3.17013394684679
 20
2.430354124277526
 30
0.0
 10
-3.162456341505022
 20
2.449086360316507
 30
0.0
 10
-3.154645657303734
 20
2.467764606329813
 30
0.0
 10
-3.146702677830445
 20
2.486385867508663
 30
0.0
 10
-3.022694805586276
 20
2.777105865597255
 30
0.0
 10
-2.865245745424694
 20
3.056012717437933
 30
0.0
 10
-2.677954178532412
 20
3.310606391039991
 30
0.0
  0
LINE
  5
80
330
1F
100
AcDbEntity
  8
0
  6
Continuous
 62
     7
370
    25
100
AcDbLine
 10
-3.1701339469
 20
2.4303541243
 30
0.0
 11
-2.9192891143
 21
2.4303541246
 31
0.0
  0
LINE
  5
81
330
1F
100
AcDbEntity
  8
0
  6
Continuous
 62
     7
370
    25
100
AcDbLine
 10
-2.9192891142
 20
2.3153541245
 30
0.0
 11
-2.9192891143
 21
2.4303541246
 31
0.0
  0
LINE
  5
82
330
1F
100
AcDbEntity
  8
0
  6
Continuous
 62
     7
370
    25
100
AcDbLine
 10
-3.2153560371
 20
2.3153541242
 30
0.0
 11
-2.9192891142
 21
2.3153541245
 31
0.0
  0
SPLINE
  5
83
330
1F
100
AcDbEntity
  8
0
  6
Continuous
 62
     7
370
    25
100
AcDbSpline
210
0.0
220
0.0
230
1.0
 70
     8
 71
     3
 72
     8
 73
     4
 74
     0
 42
0.00000001
 43
0.00000001
 40
0.4831930534150582
 40
0.4831930534150582
 40
0.4831930534150582
 40
0.4831930534150582
 40
0.4875093944100654
 40
0.4875093944100654
 40
0.4875093944100654
 40
0.4875093944100654
 10
-3.272379738575147
 20
2.154492020806891
 30
0.0
 10
-3.254427803696193
 20
2.208475424781799
 30
0.0
 10
-3.235415879121229
 20
2.262118021700657
 30
0.0
 10
-3.21535603702218
 20
2.315354124164846
 30
0.0
  0
SPLINE
  5
84
330
1F
100
AcDbEntity
  8
0
  6
Continuous
 62
     7
370
    25
100
AcDbSpline
210
0.0
220
0.0
230
1.0
 70
    24
 71
     3
 72
    11
 73
     7
 74
     0
 42
0.00000001
 43
0.00000001
 40
0.0
 40
0.0
 40
0.0
 40
0.0
 40
0.2500000000000001
 40
0.4999999999999998
 40
0.7499999999999999
 40
1.0
 40
1.0
 40
1.0
 40
1.0
 10
-3.151923455991632
 20
2.116679513230157
 30
0.0
 10
-3.161861505992226
 20
2.119802265055494
 30
0.0
 10
-3.181737605993413
 20
2.126047768706169
 30
0.0
 10
-3.211551755995201
 20
2.135416024182175
 30
0.0
 10
-3.241365905996979
 20
2.144784279658186
 30
0.0
 10
-3.261242005998169
 20
2.151029783308858
 30
0.0
 10
-3.271180055998763
 20
2.154152535134195
 30
0.0
  0
SPLINE
  5
85
330
1F
100
AcDbEntity
  8
0
  6
Continuous
 62
     7
370
    25
100
AcDbSpline
210
0.0
220
0.0
230
1.0
 70
     8
 71
     3
 72
    14
 73
    10
 74
     0
 42
0.00000001
 43
0.00000001
 40
0.0
 40
0.0
 40
0.0
 40
0.0
 40
0.0015881910615921
 40
0.0015881910615921
 40
0.0015881910615921
 40
0.0023822865923892
 40
0.0023822865923892
 40
0.0023822865923892
 40
0.0031763821231867
 40
0.0031763821231867
 40
0.0031763821231867
 40
0.0031763821231867
 10
-3.192940762693094
 20
1.998543206003604
 30
0.0
 10
-3.1861045700828
 20
2.018232599282574
 30
0.0
 10
-3.179268364880877
 20
2.037921988189713
 30
0.0
 10
-3.172432147092634
 20
2.057611372726836
 30
0.0
 10
-3.169014038198507
 20
2.067456064995412
 30
0.0
 10
-3.165595926158661
 20
2.077300756171786
 30
0.0
 10
-3.162177810974634
 20
2.087145446256486
 30
0.0
 10
-3.158759695790605
 20
2.096990136341189
 30
0.0
 10
-3.155341577462392
 20
2.106834825334221
 30
0.0
 10
-3.151923455991518
 20
2.116679513236105
 30
0.0
  0
SPLINE
  5
86
330
1F
100
AcDbEntity
  8
0
  6
Continuous
 62
     7
370
    25
100
AcDbSpline
210
0.0
220
0.0
230
1.0
 70
    24
 71
     3
 72
    11
 73
     7
 74
     0
 42
0.00000001
 43
0.00000001
 40
0.0174423480687056
 40
0.0174423480687056
 40
0.0174423480687056
 40
0.0174423480687056
 40
0.25
 40
0.5
 40
0.75
 40
1.0
 40
1.0
 40
1.0
 40
1.0
 10
-3.310117188863228
 20
2.035362590986071
 30
0.0
 10
-3.300872515204097
 20
2.032457713190028
 30
0.0
 10
-3.281689796524348
 20
2.026430085215784
 30
0.0
 10
-3.252569032823975
 20
2.017279707063326
 30
0.0
 10
-3.222754897762115
 20
2.007911456528725
 30
0.0
 10
-3.202878807720877
 20
2.001665956172316
 30
0.0
 10
-3.192940762700257
 20
1.998543205994115
 30
0.0
  0
SPLINE
  5
87
330
1F
100
AcDbEntity
  8
0
  6
Continuous
 62
     7
370
    25
100
AcDbSpline
210
0.0
220
0.0
230
1.0
 70
     8
 71
     3
 72
    17
 73
    13
 74
     0
 42
0.00000001
 43
0.00000001
 40
0.3775424786574433
 40
0.3775424786574433
 40
0.3775424786574433
 40
0.3775424786574433
 40
0.3851965873008494
 40
0.3851965873008494
 40
0.3851965873008494
 40
0.4176185249816665
 40
0.4176185249816665
 40
0.4176185249816665
 40
0.4537913220746173
 40
0.4537913220746173
 40
0.4537913220746173
 40
0.4800226410231814
 40
0.4800226410231814
 40
0.4800226410231814
 40
0.4800226410231814
 10
-2.676494943318639
 20
-1.824372546144694
 30
0.0
 10
-2.736643099622871
 20
-1.74283939538784
 30
0.0
 10
-2.793677027733175
 20
-1.658920360548088
 30
0.0
 10
-2.847444394244036
 20
-1.57304530201754
 30
0.0
 10
-3.073626067222885
 20
-1.211797101370171
 30
0.0
 10
-3.244144021971147
 20
-0.8106071319867795
 30
0.0
 10
-3.352615551037397
 20
-0.3984271481878289
 30
0.0
 10
-3.473430208315387
 20
0.0606553770442355
 30
0.0
 10
-3.520395410858146
 20
0.5451186297097518
 30
0.0
 10
-3.491331832355136
 20
1.018941650247216
 30
0.0
 10
-3.470261825126195
 20
1.362445615766411
 30
0.0
 10
-3.409373775126907
 20
1.705837099384403
 30
0.0
 10
-3.310117188863228
 20
2.03536259098607
 30
0.0
  0
SPLINE
  5
88
330
1F
100
AcDbEntity
  8
0
  6
Continuous
 62
     7
370
    25
100
AcDbSpline
210
0.0
220
0.0
230
1.0
 70
    24
 71
     3
 72
    11
 73
     7
 74
     0
 42
0.00000001
 43
0.00000001
 40
0.7494920700238314
 40
0.7494920700238314
 40
0.7494920700238314
 40
0.7494920700238314
 40
0.8121190525178736
 40
0.8747460350119157
 40
0.9373730175059578
 40
0.9931067092423702
 40
0.9931067092423702
 40
0.9931067092423702
 40
0.9931067092423702
 10
-2.579493286269369
 20
-1.750375698422952
 30
0.0
 10
-2.587805486632764
 20
-1.756716586230777
 30
0.0
 10
-2.604429887359559
 20
-1.769398361846426
 30
0.0
 10
-2.629366488449743
 20
-1.788421025269905
 30
0.0
 10
-2.653388173769463
 20
-1.80674575336933
 30
0.0
 10
-2.66909765872579
 20
-1.818729593660939
 30
0.0
 10
-2.676494943318719
 20
-1.824372546144721
 30
0.0
  0
SPLINE
  5
89
330
1F
100
AcDbEntity
  8
0
  6
Continuous
 62
     7
370
    25
100
AcDbSpline
210
0.0
220
0.0
230
1.0
 70
     8
 71
     3
 72
    14
 73
    10
 74
     0
 42
0.00000001
 43
0.00000001
 40
0.0
 40
0.0
 40
0.0
 40
0.0
 40
0.0007940393035964
 40
0.0007940393035964
 40
0.0007940393035964
 40
0.0019850982590773
 40
0.0019850982590773
 40
0.0019850982590773
 40
0.0031761572146417
 40
0.0031761572146417
 40
0.0031761572146417
 40
0.0031761572146417
 10
-2.501451958937901
 20
-1.848079041309608
 30
0.0
 10
-2.507955494015745
 20
-1.839937168864328
 30
0.0
 10
-2.514459006242443
 20
-1.831795278166042
 30
0.0
 10
-2.520962495668686
 20
-1.823653369255553
 30
0.0
 10
-2.530717729808709
 20
-1.811440505888994
 30
0.0
 10
-2.540472912647854
 20
-1.799227601544804
 30
0.0
 10
-2.550228044357248
 20
-1.787014656360725
 30
0.0
 10
-2.559983176067326
 20
-1.77480171117579
 30
0.0
 10
-2.56973825664807
 20
-1.76258872515095
 30
0.0
 10
-2.579493286269368
 20
-1.750375698422952
 30
0.0
  0
SPLINE
  5
8A
330
1F
100
AcDbEntity
  8
0
  6
Continuous
 62
     7
370
    25
100
AcDbSpline
210
0.0
220
0.0
230
1.0
 70
    24
 71
     3
 72
    11
 73
     7
 74
     0
 42
0.00000001
 43
0.00000001
 40
0.2507897483108115
 40
0.2507897483108115
 40
0.2507897483108115
 40
0.2507897483108115
 40
0.312119052517874
 40
0.3747460350119157
 40
0.4373730175059575
 40
0.4999999999999992
 40
0.4999999999999992
 40
0.4999999999999992
 40
0.4999999999999992
 10
-2.600681639227441
 20
-1.923775504946525
 30
0.0
 10
-2.592541675471761
 20
-1.91756600725754
 30
0.0
 10
-2.576089512935744
 20
-1.905015623949633
 30
0.0
 10
-2.55132515161938
 20
-1.88612435502281
 30
0.0
 10
-2.526388555278365
 20
-1.867101698166051
 30
0.0
 10
-2.509764157717682
 20
-1.854419926928212
 30
0.0
 10
-2.501451958937607
 20
-1.848079041308945
 30
0.0
  0
SPLINE
  5
8B
330
1F
100
AcDbEntity
  8
0
  6
Continuous
 62
     7
370
    25
100
AcDbSpline
210
0.0
220
0.0
230
1.0
 70
     8
 71
     3
 72
    11
 73
     7
 74
     0
 42
0.00000001
 43
0.00000001
 40
0.339347855977196
 40
0.339347855977196
 40
0.339347855977196
 40
0.339347855977196
 40
0.3563605522302704
 40
0.3563605522302704
 40
0.3563605522302704
 40
0.3743804062325372
 40
0.3743804062325372
 40
0.3743804062325372
 40
0.3743804062325372
 10
-1.559872741152257
 20
-2.828059924011743
 30
0.0
 10
-1.754693014785689
 20
-2.717030918242089
 30
0.0
 10
-1.939139131440075
 20
-2.585826498372857
 30
0.0
 10
-2.108865291979555
 20
-2.439281592049471
 30
0.0
 10
-2.288625348895939
 20
-2.284073222180229
 30
0.0
 10
-2.45364418662255
 20
-2.110278329781737
 30
0.0
 10
-2.600681639227442
 20
-1.923775504946525
 30
0.0
  0
SPLINE
  5
8C
330
1F
100
AcDbEntity
  8
0
  6
Continuous
 62
     7
370
    25
100
AcDbSpline
210
0.0
220
0.0
230
1.0
 70
    24
 71
     3
 72
    11
 73
     7
 74
     0
 42
0.00000001
 43
0.00000001
 40
0.0
 40
0.0
 40
0.0
 40
0.0
 40
0.2499999999999997
 40
0.4999999999999998
 40
0.7499999999999999
 40
0.9971224349734034
 40
0.9971224349734034
 40
0.9971224349734034
 40
0.9971224349734034
 10
-1.500000773127852
 20
-2.717785853381102
 30
0.0
 10
-1.505004502352554
 20
-2.727001878980054
 30
0.0
 10
-1.515011960801962
 20
-2.74543393017796
 30
0.0
 10
-1.530023148476072
 20
-2.773082006974811
 30
0.0
 10
-1.544976741925302
 20
-2.800624004919882
 30
0.0
 10
-1.554926606149832
 20
-2.818949977265991
 30
0.0
 10
-1.559872741149658
 20
-2.828059924013153
 30
0.0
  0
SPLINE
  5
8D
330
1F
100
AcDbEntity
  8
0
  6
Continuous
 62
     7
370
    25
100
AcDbSpline
210
0.0
220
0.0
230
1.0
 70
     8
 71
     3
 72
    14
 73
    10
 74
     0
 42
0.00000001
 43
0.00000001
 40
0.0
 40
0.0
 40
0.0
 40
0.0
 40
0.0007939432594371
 40
0.0007939432594371
 40
0.0007939432594371
 40
0.0019848581485939
 40
0.0019848581485939
 40
0.0019848581485939
 40
0.0031757730377517
 40
0.0031757730377517
 40
0.0031757730377517
 40
0.0031757730377517
 10
-1.389773366294885
 20
-2.776798804071121
 30
0.0
 10
-1.39895898961798
 20
-2.771881069550465
 30
0.0
 10
-1.408144611399202
 20
-2.76696333214981
 30
0.0
 10
-1.417330231670025
 20
-2.762045591927952
 30
0.0
 10
-1.431108662076272
 20
-2.754668981595158
 30
0.0
 10
-1.444887089054749
 20
-2.747292364859788
 30
0.0
 10
-1.458665512623564
 20
-2.739915741755684
 30
0.0
 10
-1.47244393619239
 20
-2.732539118651575
 30
0.0
 10
-1.486222356351459
 20
-2.725162489178548
 30
0.0
 10
-1.500000773119348
 20
-2.717785853371323
 30
0.0
  0
SPLINE
  5
8E
330
1F
100
AcDbEntity
  8
0
  6
Continuous
 62
     7
370
    25
100
AcDbSpline
210
0.0
220
0.0
230
1.0
 70
    24
 71
     3
 72
    11
 73
     7
 74
     0
 42
0.00000001
 43
0.00000001
 40
0.0
 40
0.0
 40
0.0
 40
0.0
 40
0.25
 40
0.5
 40
0.75
 40
1.0
 40
1.0
 40
1.0
 40
1.0
 10
-1.449818131146966
 20
-2.887391133229309
 30
0.0
 10
-1.444814400742326
 20
-2.878175105798332
 30
0.0
 10
-1.434806939933046
 20
-2.85974305093638
 30
0.0
 10
-1.419795748719121
 20
-2.832094968643449
 30
0.0
 10
-1.4047845575052
 20
-2.804446886350522
 30
0.0
 10
-1.394777096695918
 20
-2.786014831488568
 30
0.0
 10
-1.389773366291192
 20
-2.776798804057637
 30
0.0
  0
SPLINE
  5
8F
330
1F
100
AcDbEntity
  8
0
  6
Continuous
 62
     7
370
    25
100
AcDbSpline
210
0.0
220
0.0
230
1.0
 70
     8
 71
     3
 72
    14
 73
    10
 74
     0
 42
0.00000001
 43
0.00000001
 40
0.0003797996888238
 40
0.0003797996888238
 40
0.0003797996888238
 40
0.0003797996888238
 40
0.0015878864921217
 40
0.0015878864921217
 40
0.0015878864921217
 40
0.0023818297381835
 40
0.0023818297381835
 40
0.0023818297381835
 40
0.0031757729842457
 40
0.0031757729842457
 40
0.0031757729842457
 40
0.0031757729842457
 10
-1.546863125286436
 20
-2.835435703460488
 30
0.0
 10
-1.53288603559123
 20
-2.842918702487289
 30
0.0
 10
-1.518908942400009
 20
-2.850401694984078
 30
0.0
 10
-1.504931845693874
 20
-2.857884680915528
 30
0.0
 10
-1.495746229644516
 20
-2.86280242865057
 30
0.0
 10
-1.486560612077066
 20
-2.867720173550044
 30
0.0
 10
-1.477374992986163
 20
-2.87263791560393
 30
0.0
 10
-1.468189373895256
 20
-2.877555657657819
 30
0.0
 10
-1.459003753280893
 20
-2.882473396866116
 30
0.0
 10
-1.449818131137711
 20
-2.887391133218799
 30
0.0
  0
SPLINE
  5
90
330
1F
100
AcDbEntity
  8
0
  6
Continuous
 62
     7
370
    25
100
AcDbSpline
210
0.0
220
0.0
230
1.0
 70
     8
 71
     3
 72
    14
 73
    10
 74
     0
 42
0.00000001
 43
0.00000001
 40
0.3013021829922463
 40
0.3013021829922463
 40
0.3013021829922463
 40
0.3013021829922463
 40
0.30358372858609
 40
0.30358372858609
 40
0.30358372858609
 40
0.3297906232571213
 40
0.3297906232571213
 40
0.3297906232571213
 40
0.3389694256051191
 40
0.3389694256051191
 40
0.3389694256051191
 40
0.3389694256051191
 10
-0.12499999999997
 20
-3.245590897525017
 30
0.0
 10
-0.1553107786303288
 20
-3.244343539878096
 30
0.0
 10
-0.1856062917064069
 20
-3.242643999969523
 30
0.0
 10
-0.215866550778485
 20
-3.240495530009606
 30
0.0
 10
-0.5595061569243263
 20
-3.216097213753176
 30
0.0
 10
-0.9032189739859096
 20
-3.131550159196451
 30
0.0
 10
-1.220187887814248
 20
-2.996590296960671
 30
0.0
 10
-1.331903881221422
 20
-2.949023565896529
 30
0.0
 10
-1.441103301581218
 20
-2.895083979017462
 30
0.0
 10
-1.546863125286438
 20
-2.835435703460487
 30
0.0
  0
SPLINE
  5
91
330
1F
100
AcDbEntity
  8
0
  6
Continuous
 62
     7
370
    25
100
AcDbSpline
210
0.0
220
0.0
230
1.0
 70
     8
 71
     3
 72
    14
 73
    10
 74
     0
 42
0.00000001
 43
0.00000001
 40
0.0
 40
0.0
 40
0.0
 40
0.0
 40
0.0007940580476795
 40
0.0007940580476795
 40
0.0007940580476795
 40
0.001588116095359
 40
0.001588116095359
 40
0.001588116095359
 40
0.0031762321907272
 40
0.0031762321907272
 40
0.0031762321907272
 40
0.0031762321907272
 10
2.595342825711195
 20
-1.917540870112
 30
0.0
 10
2.601847420332061
 20
-1.909399529260204
 30
0.0
 10
2.608352010672091
 20
-1.901258184988194
 30
0.0
 10
2.614856596733055
 20
-1.893116837297397
 30
0.0
 10
2.621361182794019
 20
-1.8849754896066
 30
0.0
 10
2.627865764573986
 20
-1.876834138495469
 30
0.0
 10
2.634370342070865
 20
-1.868692783962345
 30
0.0
 10
2.647379497064692
 20
-1.852410074896007
 30
0.0
 10
2.660388634926172
 20
-1.836127352141678
 30
0.0
 10
2.673397755638561
 20
-1.819844615686066
 30
0.0
  0
SPLINE
  5
92
330
1F
100
AcDbEntity
  8
0
  6
Continuous
 62
     7
370
    25
100
AcDbSpline
210
0.0
220
0.0
230
1.0
 70
    24
 71
     3
 72
    11
 73
     7
 74
     0
 42
0.00000001
 43
0.00000001
 40
0.0
 40
0.0
 40
0.0
 40
0.0
 40
0.2499999999999997
 40
0.4999999999999998
 40
0.7499999999999999
 40
1.0
 40
1.0
 40
1.0
 40
1.0
 10
2.495596438885432
 20
-1.841450240663294
 30
0.0
 10
2.503908637787536
 20
-1.847791126450576
 30
0.0
 10
2.520533035591742
 20
-1.860472898025141
 30
0.0
 10
2.545469632298051
 20
-1.879495555386988
 30
0.0
 10
2.57040622900436
 20
-1.898518212748833
 30
0.0
 10
2.587030626808565
 20
-1.911199984323398
 30
0.0
 10
2.595342825710669
 20
-1.91754087011068
 30
0.0
  0
SPLINE
  5
93
330
1F
100
AcDbEntity
  8
0
  6
Continuous
 62
     7
370
    25
100
AcDbSpline
210
0.0
220
0.0
230
1.0
 70
     8
 71
     3
 72
    14
 73
    10
 74
     0
 42
0.00000001
 43
0.00000001
 40
0.0
 40
0.0
 40
0.0
 40
0.0
 40
0.0015881162053427
 40
0.0015881162053427
 40
0.0015881162053427
 40
0.002382174308017
 40
0.002382174308017
 40
0.002382174308017
 40
0.0031762324106921
 40
0.0031762324106921
 40
0.0031762324106921
 40
0.0031762324106921
 10
2.573651349828282
 20
-1.74375395998582
 30
0.0
 10
2.560642232280701
 20
-1.760036700817268
 30
0.0
 10
2.547633097581194
 20
-1.776319427945177
 30
0.0
 10
2.534623945752152
 20
-1.792602141387348
 30
0.0
 10
2.528119369837605
 20
-1.800743498108466
 30
0.0
 10
2.521614789639968
 20
-1.80888485140759
 30
0.0
 10
2.515110205161331
 20
-1.81702620128638
 30
0.0
 10
2.508605620682687
 20
-1.825167551165179
 30
0.0
 10
2.502101031923042
 20
-1.833308897623646
 30
0.0
 10
2.495596438884026
 20
-1.841450240663074
 30
0.0
  0
SPLINE
  5
94
330
1F
100
AcDbEntity
  8
0
  6
Continuous
 62
     7
370
    25
100
AcDbSpline
210
0.0
220
0.0
230
1.0
 70
    24
 71
     3
 72
    11
 73
     7
 74
     0
 42
0.00000001
 43
0.00000001
 40
0.0
 40
0.0
 40
0.0
 40
0.0
 40
0.2500000000000001
 40
0.5000000000000001
 40
0.7500000000000001
 40
1.0
 40
1.0
 40
1.0
 40
1.0
 10
2.673397755640487
 20
-1.819844615686067
 30
0.0
 10
2.665085555156018
 20
-1.813503727710833
 30
0.0
 10
2.64846115418708
 20
-1.800821951760367
 30
0.0
 10
2.623524552733676
 20
-1.781799287834664
 30
0.0
 10
2.598587951280264
 20
-1.762776623908965
 30
0.0
 10
2.581963550311329
 20
-1.750094847958496
 30
0.0
 10
2.573651349827126
 20
-1.743753959982916
 30
0.0
  0
SPLINE
  5
95
330
1F
100
AcDbEntity
  8
0
  6
Continuous
 62
     7
370
    25
100
AcDbSpline
210
0.0
220
0.0
230
1.0
 70
     8
 71
     3
 72
    14
 73
    10
 74
     0
 42
0.00000001
 43
0.00000001
 40
0.0
 40
0.0
 40
0.0
 40
0.0
 40
0.0015879367010501
 40
0.0015879367010501
 40
0.0015879367010501
 40
0.0023819050515751
 40
0.0023819050515751
 40
0.0023819050515751
 40
0.0031758734021002
 40
0.0031758734021002
 40
0.0031758734021002
 40
0.0031758734021002
 10
1.448740721140007
 20
-2.87750691195268
 30
0.0
 10
1.467114384261136
 20
-2.867674562021402
 30
0.0
 10
1.485488046401573
 20
-2.85784221025751
 30
0.0
 10
1.503861707551958
 20
-2.848009856643512
 30
0.0
 10
1.513048538127151
 20
-2.843093679836513
 30
0.0
 10
1.522235368455783
 20
-2.838177502568768
 30
0.0
 10
1.531422198537633
 20
-2.833261324839862
 30
0.0
 10
1.540609028619483
 20
-2.828345147110957
 30
0.0
 10
1.54979585845455
 20
-2.823428968920891
 30
0.0
 10
1.558982688042619
 20
-2.81851279026926
 30
0.0
  0
SPLINE
  5
96
330
1F
100
AcDbEntity
  8
0
  6
Continuous
 62
     7
370
    25
100
AcDbSpline
210
0.0
220
0.0
230
1.0
 70
    24
 71
     3
 72
    11
 73
     7
 74
     0
 42
0.00000001
 43
0.00000001
 40
0.0
 40
0.0
 40
0.0
 40
0.0
 40
0.2499999999999998
 40
0.5000000000000004
 40
0.7500000000000002
 40
1.0
 40
1.0
 40
1.0
 40
1.0
 10
1.38869596033997
 20
-2.766914589080522
 30
0.0
 10
1.39369969040672
 20
-2.776130615986871
 30
0.0
 10
1.40370715054022
 20
-2.794562669799578
 30
0.0
 10
1.418718340740468
 20
-2.822210750518625
 30
0.0
 10
1.433729530940717
 20
-2.849858831237683
 30
0.0
 10
1.443736991074217
 20
-2.868290885050385
 30
0.0
 10
1.448740721140966
 20
-2.877506911956737
 30
0.0
  0
SPLINE
  5
97
330
1F
100
AcDbEntity
  8
0
  6
Continuous
 62
     7
370
    25
100
AcDbSpline
210
0.0
220
0.0
230
1.0
 70
     8
 71
     3
 72
    14
 73
    10
 74
     0
 42
0.00000001
 43
0.00000001
 40
0.0
 40
0.0
 40
0.0
 40
0.0
 40
0.0007939683639231
 40
0.0007939683639231
 40
0.0007939683639231
 40
0.0019849209098078
 40
0.0019849209098078
 40
0.0019849209098078
 40
0.0031758734556926
 40
0.0031758734556926
 40
0.0031758734556926
 40
0.0031758734556926
 10
1.498937941387036
 20
-2.707920489354623
 30
0.0
 10
1.489751110619857
 20
-2.712836666175515
 30
0.0
 10
1.480564279609402
 20
-2.717752842541797
 30
0.0
 10
1.471377448348443
 20
-2.722669018439964
 30
0.0
 10
1.457597201457005
 20
-2.730043282287215
 30
0.0
 10
1.443816954010309
 20
-2.737417545096859
 30
0.0
 10
1.430036706009095
 20
-2.74479180687028
 30
0.0
 10
1.416256458007881
 20
-2.7521660686437
 30
0.0
 10
1.402476209452064
 20
-2.759540329380736
 30
0.0
 10
1.388695960342811
 20
-2.766914589083568
 30
0.0
  0
SPLINE
  5
98
330
1F
100
AcDbEntity
  8
0
  6
Continuous
 62
     7
370
    25
100
AcDbSpline
210
0.0
220
0.0
230
1.0
 70
    24
 71
     3
 72
    11
 73
     7
 74
     0
 42
0.00000001
 43
0.00000001
 40
0.0
 40
0.0
 40
0.0
 40
0.0
 40
0.2500000000000002
 40
0.5000000000000001
 40
0.75
 40
1.0
 40
1.0
 40
1.0
 40
1.0
 10
1.558982688039881
 20
-2.818512790266457
 30
0.0
 10
1.55397895915224
 20
-2.809296765190844
 30
0.0
 10
1.543971501376958
 20
-2.79086471503962
 30
0.0
 10
1.528960314714037
 20
-2.763216639812773
 30
0.0
 10
1.513949128051113
 20
-2.73556856458594
 30
0.0
 10
1.503941670275832
 20
-2.71713651443471
 30
0.0
 10
1.498937941388107
 20
-2.707920489359144
 30
0.0
  0
LINE
  5
99
330
1F
100
AcDbEntity
  8
0
  6
Continuous
 62
     7
370
    25
100
AcDbLine
 10
0.1250000085
 20
4.7338769972
 30
0.0
 11
-0.1249999915
 21
4.7338769966
 31
0.0
  0
LINE
  5
9A
330
1F
100
AcDbEntity
  8
0
  6
Continuous
 62
     7
370
    25
100
AcDbLine
 10
0.1250000085
 20
4.7338769972
 30
0.0
 11
0.1250000085
 21
4.2338750584
 31
0.0
  0
LINE
  5
9B
330
1F
100
AcDbEntity
  8
0
  6
Continuous
 62
     7
370
    25
100
AcDbLine
 10
0.1250000085
 20
4.2338750584
 30
0.0
 11
-0.1249999915
 21
4.2338750577
 31
0.0
  0
LINE
  5
9C
330
1F
100
AcDbEntity
  8
0
  6
Continuous
 62
     7
370
    25
100
AcDbLine
 10
-0.1249999915
 20
4.7338769966
 30
0.0
 11
-0.1249999915
 21
4.2338750577
 31
0.0
  0
LINE
  5
9D
330
1F
100
AcDbEntity
  8
0
  6
Continuous
 62
     7
370
    25
100
AcDbLine
 10
1.4625677133
 20
-2.0108941376
 30
0.0
 11
-1.4625649233
 21
-2.0108941376
 31
0.0
  0
SPLINE
  5
9E
330
1F
100
AcDbEntity
  8
0
  6
Continuous
 62
     7
370
    25
100
AcDbSpline
210
0.0
220
0.0
230
1.0
 70
     8
 71
     3
 72
    39
 73
    35
 74
     0
 42
0.00000001
 43
0.00000001
 40
0.6282631712315386
 40
0.6282631712315386
 40
0.6282631712315386
 40
0.6282631712315386
 40
0.6562500000000011
 40
0.6562500000000011
 40
0.6640625000000011
 40
0.6640625000000011
 40
0.6718750000000011
 40
0.6718750000000011
 40
0.687500000000001
 40
0.687500000000001
 40
0.7187500000000008
 40
0.7187500000000008
 40
0.7265625000000008
 40
0.7265625000000008
 40
0.7343750000000008
 40
0.7343750000000008
 40
0.7500000000000009
 40
0.7500000000000009
 40
0.8125000000000008
 40
0.8125000000000008
 40
0.8203125000000008
 40
0.8203125000000008
 40
0.8281250000000008
 40
0.8437500000000007
 40
0.8437500000000007
 40
0.8750000000000007
 40
0.8750000000000007
 40
0.9062500000000006
 40
0.9062500000000006
 40
0.9218750000000004
 40
0.9218750000000004
 40
0.9375000000000003
 40
0.9375000000000003
 40
1.0
 40
1.0
 40
1.0
 40
1.0
 10
-1.462564923315761
 20
-2.010894137556363
 30
0.0
 10
-1.554787051799289
 20
-1.942305910411274
 30
0.0
 10
-1.642793232226869
 20
-1.867886684740017
 30
0.0
 10
-1.750063289280078
 20
-1.765358948254471
 30
0.0
 10
-1.773135958252158
 20
-1.742548597749064
 30
0.0
 10
-1.818351261917849
 20
-1.696352066166104
 30
0.0
 10
-1.840532431845461
 20
-1.672929665038637
 30
0.0
 10
-1.905842027958881
 20
-1.601724660973698
 30
0.0
 10
-1.947747463203354
 20
-1.553012558859788
 30
0.0
 10
-2.068784489245633
 20
-1.403319900240844
 30
0.0
 10
-2.143179574813995
 20
-1.298739498830043
 30
0.0
 10
-2.228539786321347
 20
-1.162212263854908
 30
0.0
 10
-2.245230393693673
 20
-1.134616918185637
 30
0.0
 10
-2.277855544093815
 20
-1.078851601834102
 30
0.0
 10
-2.293810355418129
 20
-1.050644067879174
 30
0.0
 10
-2.340393270041456
 20
-0.9654595794539611
 30
0.0
 10
-2.369703699257722
 20
-0.9080183545416967
 30
0.0
 10
-2.507974645023735
 20
-0.6177198398540539
 30
0.0
 10
-2.591842864877607
 20
-0.375492511002917
 30
0.0
 10
-2.658146560445113
 20
-0.092512980235674
 30
0.0
 10
-2.665128899975566
 20
-0.0608822538879596
 30
0.0
 10
-2.678247855178568
 20
0.0024391201309971
 30
0.0
 10
-2.696657449669254
 20
0.0974887559168065
 30
0.0
 10
-2.711296429848898
 20
0.1927392040082291
 30
0.0
 10
-2.735647068169745
 20
0.3835025154946137
 30
0.0
 10
-2.745313008892139
 20
0.5110278399951532
 30
0.0
 10
-2.752055853365538
 20
0.7667489456727956
 30
0.0
 10
-2.749095278095956
 20
0.8949467228770465
 30
0.0
 10
-2.734685475765231
 20
1.087774306339141
 30
0.0
 10
-2.728196796262107
 20
1.152294849675419
 30
0.0
 10
-2.711980902507181
 20
1.280394106507101
 30
0.0
 10
-2.702257569661579
 20
1.344040704390115
 30
0.0
 10
-2.645764272621314
 20
1.660308514224661
 30
0.0
 10
-2.575317225159696
 20
1.907022415060992
 30
0.0
 10
-2.477395482540994
 20
2.146881520048587
 30
0.0
  0
SPLINE
  5
9F
330
1F
100
AcDbEntity
  8
0
  6
Continuous
 62
     7
370
    25
100
AcDbSpline
210
0.0
220
0.0
230
1.0
 70
     8
 71
     3
 72
    63
 73
    59
 74
     0
 42
0.00000001
 43
0.00000001
 40
0.0
 40
0.0
 40
0.0
 40
0.0
 40
0.0624999999999997
 40
0.0624999999999997
 40
0.1249999999999993
 40
0.1249999999999993
 40
0.1562499999999993
 40
0.1562499999999993
 40
0.1718749999999994
 40
0.1718749999999994
 40
0.1874999999999994
 40
0.1874999999999994
 40
0.2499999999999994
 40
0.2499999999999994
 40
0.3124999999999993
 40
0.3124999999999993
 40
0.3281249999999993
 40
0.3281249999999993
 40
0.3437499999999994
 40
0.3437499999999994
 40
0.3749999999999993
 40
0.3749999999999993
 40
0.4374999999999993
 40
0.4374999999999993
 40
0.4531249999999993
 40
0.4531249999999993
 40
0.4687499999999993
 40
0.4687499999999993
 40
0.4999999999999992
 40
0.5624999999999991
 40
0.5624999999999991
 40
0.5781249999999991
 40
0.5781249999999991
 40
0.5937499999999991
 40
0.5937499999999991
 40
0.6249999999999991
 40
0.6249999999999991
 40
0.6874999999999989
 40
0.6874999999999989
 40
0.7031249999999988
 40
0.7031249999999988
 40
0.7187499999999988
 40
0.7187499999999988
 40
0.7499999999999988
 40
0.7499999999999988
 40
0.8124999999999987
 40
0.8124999999999987
 40
0.8281249999999988
 40
0.8281249999999988
 40
0.8437499999999988
 40
0.8437499999999988
 40
0.8749999999999989
 40
0.8749999999999989
 40
0.9374999999999993
 40
0.9374999999999993
 40
0.9687499999999998
 40
0.9687499999999998
 40
1.0
 40
1.0
 40
1.0
 40
1.0
 10
-2.477395482541008
 20
2.146881520048587
 30
0.0
 10
-2.425466061263887
 20
2.274082497752849
 30
0.0
 10
-2.366695215702146
 20
2.39696609050929
 30
0.0
 10
-2.235365776584504
 20
2.634032307747456
 30
0.0
 10
-2.162833577832885
 20
2.748231589072253
 30
0.0
 10
-2.042989818784721
 20
2.912560104790669
 30
0.0
 10
-2.001209537986338
 20
2.966179937319129
 30
0.0
 10
-1.93563464369648
 20
3.044776774149585
 30
0.0
 10
-1.913291490744323
 20
3.070669744721778
 30
0.0
 10
-1.867606148634225
 20
3.121825228859298
 30
0.0
 10
-1.844219022748339
 20
3.147132809190055
 30
0.0
 10
-1.725556181582196
 20
3.271182623172492
 30
0.0
 10
-1.624810395604193
 20
3.362941198684245
 30
0.0
 10
-1.411037661886934
 20
3.530659441507772
 30
0.0
 10
-1.298056389575707
 20
3.606677867258563
 30
0.0
 10
-1.148404543770122
 20
3.690862361572919
 30
0.0
 10
-1.117986514054425
 20
3.707190542730348
 30
0.0
 10
-1.056811047861655
 20
3.738460592213568
 30
0.0
 10
-1.026014299184088
 20
3.753425906909373
 30
0.0
 10
-0.9329950801583899
 20
3.796306548933798
 30
0.0
 10
-0.8701433135080504
 20
3.822205538279401
 30
0.0
 10
-0.6790664760723164
 20
3.891823209189937
 30
0.0
 10
-0.5483423204559328
 20
3.927534534522503
 30
0.0
 10
-0.3804862832286502
 20
3.957912677458038
 30
0.0
 10
-0.3466934318550043
 20
3.963278133318016
 30
0.0
 10
-0.2786503301784161
 20
3.97254348607744
 30
0.0
 10
-0.2443061942352339
 20
3.976449065799887
 30
0.0
 10
-0.1415194452909825
 20
3.985812861646157
 30
0.0
 10
0.0634172784520684
 20
3.995230612973843
 30
0.0
 10
0.2665127858106467
 20
3.977729195646999
 30
0.0
 10
0.4347402395375174
 20
3.948249466281109
 30
0.0
 10
0.4683348367487388
 20
3.941609440765353
 30
0.0
 10
0.5354205071733609
 20
3.926815835987147
 30
0.0
 10
0.5689903564373001
 20
3.91863943680747
 30
0.0
 10
0.6687227227666955
 20
3.892034354577801
 30
0.0
 10
0.73402614003103
 20
3.871522838989959
 30
0.0
 10
0.9265858982334344
 20
3.802141635961012
 30
0.0
 10
1.050466877761667
 20
3.745367053304214
 30
0.0
 10
1.200005405086367
 20
3.661956805099946
 30
0.0
 10
1.229646209098346
 20
3.644649688166307
 30
0.0
 10
1.288390830757167
 20
3.608777864241796
 30
0.0
 10
1.317457033567534
 20
3.590232669095766
 30
0.0
 10
1.403183654385476
 20
3.533176171992733
 30
0.0
 10
1.458596779289523
 20
3.493113954864523
 30
0.0
 10
1.619922890532427
 20
3.36720382062608
 30
0.0
 10
1.720891872818799
 20
3.275596610817468
 30
0.0
 10
1.839470942425348
 20
3.152196862864828
 30
0.0
 10
1.862803007779213
 20
3.127069882831164
 30
0.0
 10
1.908698205758574
 20
3.075920189548183
 30
0.0
 10
1.931274490340305
 20
3.049878634697419
 30
0.0
 10
1.997422691164734
 20
2.970936338259344
 30
0.0
 10
2.039565150018897
 20
2.917058713928926
 30
0.0
 10
2.160442137644728
 20
2.751881059278677
 30
0.0
 10
2.233596443919802
 20
2.637017193958305
 30
0.0
 10
2.332904053788564
 20
2.458064156079629
 30
0.0
 10
2.364266358837843
 20
2.397301736480838
 30
0.0
 10
2.423515211736726
 20
2.273557088813409
 30
0.0
 10
2.451396968276125
 20
2.210564810792451
 30
0.0
 10
2.477395482541009
 20
2.146881520048587
 30
0.0
  0
SPLINE
  5
A0
330
1F
100
AcDbEntity
  8
0
  6
Continuous
 62
     7
370
    25
100
AcDbSpline
210
0.0
220
0.0
230
1.0
 70
     8
 71
     3
 72
    37
 73
    33
 74
     0
 42
0.00000001
 43
0.00000001
 40
0.0
 40
0.0
 40
0.0
 40
0.0
 40
0.0625000000000001
 40
0.0625000000000001
 40
0.0937500000000001
 40
0.0937500000000001
 40
0.1015625000000001
 40
0.1015625000000001
 40
0.109375
 40
0.125
 40
0.125
 40
0.1875
 40
0.1875
 40
0.1953125000000001
 40
0.1953125000000001
 40
0.2031250000000001
 40
0.2031250000000001
 40
0.2187500000000001
 40
0.2187500000000001
 40
0.2500000000000002
 40
0.2500000000000002
 40
0.2812500000000003
 40
0.2812500000000003
 40
0.2968750000000003
 40
0.2968750000000003
 40
0.3046875000000003
 40
0.3046875000000003
 40
0.3125000000000004
 40
0.3125000000000004
 40
0.3437500000000006
 40
0.3437500000000006
 40
0.3733019785627199
 40
0.3733019785627199
 40
0.3733019785627199
 40
0.3733019785627199
 10
2.477395482541009
 20
2.146881520048587
 30
0.0
 10
2.575122772920415
 20
1.907498723476028
 30
0.0
 10
2.645302302545806
 20
1.661764998831213
 30
0.0
 10
2.712992251053707
 20
1.284500777634831
 30
0.0
 10
2.72930926419687
 20
1.157305999274664
 30
0.0
 10
2.741551867752032
 20
0.9964327609635175
 30
0.0
 10
2.74358971778642
 20
0.9641872465107906
 30
0.0
 10
2.746831803886304
 20
0.8998589568504751
 30
0.0
 10
2.750454813796402
 20
0.8034840841318708
 30
0.0
 10
2.750413122217432
 20
0.7074566205870181
 30
0.0
 10
2.74237694512483
 20
0.3881137207306272
 30
0.0
 10
2.710845317567656
 20
0.1350191044550852
 30
0.0
 10
2.645474587507693
 20
-0.1468780786600863
 30
0.0
 10
2.637797451816275
 20
-0.1781607676326401
 30
0.0
 10
2.621603438037045
 20
-0.2406465390359966
 30
0.0
 10
2.613091196925583
 20
-0.2718201265128552
 30
0.0
 10
2.586425014729863
 20
-0.3646594407522012
 30
0.0
 10
2.567096773694048
 20
-0.4258196762490903
 30
0.0
 10
2.504433410295776
 20
-0.6070900445012392
 30
0.0
 10
2.456416694911713
 20
-0.7249884440542043
 30
0.0
 10
2.347824763668956
 20
-0.9548522087544086
 30
0.0
 10
2.287349703794638
 20
-1.066864890769013
 30
0.0
 10
2.186443112284995
 20
-1.230067943689279
 30
0.0
 10
2.151100643358034
 20
-1.283662549416019
 30
0.0
 10
2.095383261473252
 20
-1.362777154433035
 30
0.0
 10
2.07632470846874
 20
-1.388981552396573
 30
0.0
 10
2.03751793852642
 20
-1.440643518167283
 30
0.0
 10
2.017761828875179
 20
-1.466115843057798
 30
0.0
 10
1.917228899678523
 20
-1.59169560910978
 30
0.0
 10
1.831291849499134
 20
-1.686556017453276
 30
0.0
 10
1.652612280029028
 20
-1.859454404936861
 30
0.0
 10
1.560459237614385
 20
-1.938091776765685
 30
0.0
 10
1.46256771332759
 20
-2.010894137556384
 30
0.0
  0
MTEXT
  5
A2
330
1F
100
AcDbEntity
  8
0
  6
Continuous
 62
     7
100
AcDbMText
 10
-3.4994546769
 20
-3.2857313067
 30
0.0
 40
0.1903
 41
0.0
 71
     1
 72
     1
  1
SOLIDWORKS Educational Product.
  7
SLDTEXTSTYLE0
 73
     1
 44
1.0
  0
MTEXT
  5
A3
330
1F
100
AcDbEntity
  8
0
  6
Continuous
 62
     7
100
AcDbMText
 10
-3.4994546769
 20
-3.5711813067
 30
0.0
 40
0.1903
 41
0.0
 71
     1
 72
     1
  1
For Instructional Use Only.
  7
SLDTEXTSTYLE0
 73
     1
 44
1.0
  0
ENDSEC
  0
SECTION
  2
OBJECTS
  0
DICTIONARY
  5
C
330
0
100
AcDbDictionary
281
     1
  3
ACAD_GROUP
350
D
  3
ACAD_LAYOUT
350
1A
  3
ACAD_MLINESTYLE
350
17
  3
ACAD_PLOTSETTINGS
350
19
  3
ACAD_PLOTSTYLENAME
350
E
  3
ACAD_SCALELIST
350
47
  3
DWGPROPS
350
A4
  0
DICTIONARY
  5
D
102
{ACAD_REACTORS
330
C
102
}
330
C
100
AcDbDictionary
281
     1
  0
DICTIONARY
  5
1A
102
{ACAD_REACTORS
330
C
102
}
330
C
100
AcDbDictionary
281
     1
  3
Layout1
350
1E
  3
Layout2
350
26
  3
Model
350
22
  0
DICTIONARY
  5
17
102
{ACAD_REACTORS
330
C
102
}
330
C
100
AcDbDictionary
281
     1
  3
Standard
350
18
  0
DICTIONARY
  5
19
102
{ACAD_REACTORS
330
C
102
}
330
C
100
AcDbDictionary
281
     1
  0
ACDBDICTIONARYWDFLT
  5
E
102
{ACAD_REACTORS
330
C
102
}
330
C
100
AcDbDictionary
281
     1
  3
Normal
350
F
100
AcDbDictionaryWithDefault
340
F
  0
DICTIONARY
  5
47
102
{ACAD_REACTORS
330
C
102
}
330
C
100
AcDbDictionary
281
     1
  3
A0
350
48
  3
A1
350
49
  3
A2
350
4A
  3
A3
350
4B
  3
A4
350
4C
  3
A5
350
4D
  3
A6
350
4E
  3
A7
350
4F
  3
A8
350
50
  3
A9
350
51
  3
B1
350
52
  3
B2
350
53
  3
B3
350
54
  3
B4
350
55
  3
B5
350
56
  3
B6
350
57
  3
B7
350
58
  0
XRECORD
  5
A4
102
{ACAD_REACTORS
330
C
102
}
330
C
100
AcDbXrecord
280
     1
  1
DWGPROPS COOKIE
  2

  3

  4

  6

  7

  8
deshe
  9

300
=
301
=
302
=
303
=
304
=
305
=
306
=
307
=
308
=
309
=
 40
0.0
 41
2459872.946830301
 42
2459872.946867188
  1

 90
        0
  0
LAYOUT
  5
1E
102
{ACAD_REACTORS
330
1A
102
}
330
1A
100
AcDbPlotSettings
  1

  2
none_device
  4

  6

 40
0.0
 41
0.0
 42
0.0
 43
0.0
 44
0.0
 45
0.0
 46
0.0
 47
0.0
 48
0.0
 49
0.0
140
0.0
141
0.0
142
1.0
143
1.0
 70
   688
 72
     0
 73
     0
 74
     5
  7

 75
    16
147
1.0
148
0.0
149
0.0
100
AcDbLayout
  1
Layout1
 70
     1
 71
     1
 10
0.0
 20
0.0
 11
12.0
 21
9.0
 12
0.0
 22
0.0
 32
0.0
 14
1.0000000000E+20
 24
1.0000000000E+20
 34
1.0000000000E+20
 15
-1.0000000000E+20
 25
-1.0000000000E+20
 35
-1.0000000000E+20
146
0.0
 13
0.0
 23
0.0
 33
0.0
 16
1.0
 26
0.0
 36
0.0
 17
0.0
 27
1.0
 37
0.0
 76
     0
330
1B
  0
LAYOUT
  5
26
102
{ACAD_REACTORS
330
1A
102
}
330
1A
100
AcDbPlotSettings
  1

  2
none_device
  4

  6

 40
0.0
 41
0.0
 42
0.0
 43
0.0
 44
0.0
 45
0.0
 46
0.0
 47
0.0
 48
0.0
 49
0.0
140
0.0
141
0.0
142
1.0
143
1.0
 70
   688
 72
     0
 73
     0
 74
     5
  7

 75
    16
147
1.0
148
0.0
149
0.0
100
AcDbLayout
  1
Layout2
 70
     1
 71
     2
 10
0.0
 20
0.0
 11
0.0
 21
0.0
 12
0.0
 22
0.0
 32
0.0
 14
0.0
 24
0.0
 34
0.0
 15
0.0
 25
0.0
 35
0.0
146
0.0
 13
0.0
 23
0.0
 33
0.0
 16
1.0
 26
0.0
 36
0.0
 17
0.0
 27
1.0
 37
0.0
 76
     0
330
23
  0
LAYOUT
  5
22
102
{ACAD_REACTORS
330
1A
102
}
330
1A
100
AcDbPlotSettings
  1

  2
none_device
  4
ANSI_A_(11.00_x_8.50_Inches)
  6

 40
6.35
 41
19.05
 42
6.35000508
 43
19.05000254
 44
279.4
 45
215.9
 46
133.3459843819
 47
68.9174166461
 48
0.0
 49
0.0
140
0.0
141
0.0
142
1.0539788525
143
1.0
 70
  1696
 72
     0
 73
     0
 74
     0
  7

 75
     0
147
0.5913241897
148
-39.4088153714
149
0.0
100
AcDbLayout
  1
Model
 70
     1
 71
     0
 10
0.0
 20
0.0
 11
12.0
 21
9.0
 12
0.0
 22
0.0
 32
0.0
 14
-3.4994546769
 24
-3.2455908975
 34
0.0
 15
3.499754484
 25
4.738440262
 35
0.0
146
0.0
 13
0.0
 23
0.0
 33
0.0
 16
1.0
 26
0.0
 36
0.0
 17
0.0
 27
1.0
 37
0.0
 76
     0
330
1F
331
29
  0
MLINESTYLE
  5
18
102
{ACAD_REACTORS
330
17
102
}
330
17
100
AcDbMlineStyle
  2
Standard
 70
     0
  3

 62
   256
 51
90.0
 52
90.0
 71
     2
 49
0.5
 62
   256
  6
BYLAYER
 49
-0.5
 62
   256
  6
BYLAYER
  0
ACDBPLACEHOLDER
  5
F
102
{ACAD_REACTORS
330
E
102
}
330
E
  0
SCALE
  5
48
102
{ACAD_REACTORS
330
47
102
}
330
47
100
AcDbScale
 70
     0
300
1:1
140
1.0
141
1.0
290
     1
  0
SCALE
  5
49
102
{ACAD_REACTORS
330
47
102
}
330
47
100
AcDbScale
 70
     0
300
1/128" = 1'-0"
140
0.0078125
141
12.0
290
     0
  0
SCALE
  5
4A
102
{ACAD_REACTORS
330
47
102
}
330
47
100
AcDbScale
 70
     0
300
1/64" = 1'-0"
140
0.015625
141
12.0
290
     0
  0
SCALE
  5
4B
102
{ACAD_REACTORS
330
47
102
}
330
47
100
AcDbScale
 70
     0
300
1/32" = 1'-0"
140
0.03125
141
12.0
290
     0
  0
SCALE
  5
4C
102
{ACAD_REACTORS
330
47
102
}
330
47
100
AcDbScale
 70
     0
300
1/16" = 1'-0"
140
0.0625
141
12.0
290
     0
  0
SCALE
  5
4D
102
{ACAD_REACTORS
330
47
102
}
330
47
100
AcDbScale
 70
     0
300
3/32" = 1'-0"
140
0.09375
141
12.0
290
     0
  0
SCALE
  5
4E
102
{ACAD_REACTORS
330
47
102
}
330
47
100
AcDbScale
 70
     0
300
1/8" = 1'-0"
140
0.125
141
12.0
290
     0
  0
SCALE
  5
4F
102
{ACAD_REACTORS
330
47
102
}
330
47
100
AcDbScale
 70
     0
300
3/16" = 1'-0"
140
0.1875
141
12.0
290
     0
  0
SCALE
  5
50
102
{ACAD_REACTORS
330
47
102
}
330
47
100
AcDbScale
 70
     0
300
1/4" = 1'-0"
140
0.25
141
12.0
290
     0
  0
SCALE
  5
51
102
{ACAD_REACTORS
330
47
102
}
330
47
100
AcDbScale
 70
     0
300
3/8" = 1'-0"
140
0.375
141
12.0
290
     0
  0
SCALE
  5
52
102
{ACAD_REACTORS
330
47
102
}
330
47
100
AcDbScale
 70
     0
300
1/2" = 1'-0"
140
0.5
141
12.0
290
     0
  0
SCALE
  5
53
102
{ACAD_REACTORS
330
47
102
}
330
47
100
AcDbScale
 70
     0
300
3/4" = 1'-0"
140
0.75
141
12.0
290
     0
  0
SCALE
  5
54
102
{ACAD_REACTORS
330
47
102
}
330
47
100
AcDbScale
 70
     0
300
1" = 1'-0"
140
1.0
141
12.0
290
     0
  0
SCALE
  5
55
102
{ACAD_REACTORS
330
47
102
}
330
47
100
AcDbScale
 70
     0
300
1-1/2" = 1'-0"
140
1.5
141
12.0
290
     0
  0
SCALE
  5
56
102
{ACAD_REACTORS
330
47
102
}
330
47
100
AcDbScale
 70
     0
300
3" = 1'-0"
140
3.0
141
12.0
290
     0
  0
SCALE
  5
57
102
{ACAD_REACTORS
330
47
102
}
330
47
100
AcDbScale
 70
     0
300
6" = 1'-0"
140
6.0
141
12.0
290
     0
  0
SCALE
  5
58
102
{ACAD_REACTORS
330
47
102
}
330
47
100
AcDbScale
 70
     0
300
1'-0" = 1'-0"
140
12.0
141
12.0
290
     0
  0
ENDSEC
  0
EOF
