  0
SECTION
  2
HEADER
  9
$ACADVER
  1
AC1015
  9
$ACADMAINTVER
 70
     6
  9
$DWGCODEPAGE
  3
ANSI_1252
  9
$INSBASE
 10
0.0
 20
0.0
 30
0.0
  9
$EXTMIN
 10
-3.0
 20
0.0
 30
0.0
  9
$EXTMAX
 10
3.0
 20
4.87659153
 30
0.0
  9
$LIMMIN
 10
0.0
 20
0.0
  9
$LIMMAX
 10
12.0
 20
9.0
  9
$ORTHOMODE
 70
     0
  9
$REGENMODE
 70
     1
  9
$FILLMODE
 70
     1
  9
$QTEXTMODE
 70
     0
  9
$MIRRTEXT
 70
     1
  9
$LTSCALE
 40
1.0
  9
$ATTMODE
 70
     1
  9
$TEXTSIZE
 40
0.1377952756
  9
$TRACEWID
 40
0.05
  9
$TEXTSTYLE
  7
Standard
  9
$CLAYER
  8
0
  9
$CELTYPE
  6
ByLayer
  9
$CECOLOR
 62
   256
  9
$CELTSCALE
 40
1.0
  9
$DISPSILH
 70
     0
  9
$DIMSCALE
 40
1.0
  9
$DIMASZ
 40
0.13
  9
$DIMEXO
 40
0.0
  9
$DIMDLI
 40
0.38
  9
$DIMRND
 40
0.0
  9
$DIMDLE
 40
0.0
  9
$DIMEXE
 40
0.125
  9
$DIMTP
 40
0.0
  9
$DIMTM
 40
0.0
  9
$DIMTXT
 40
0.1377952756
  9
$DIMCEN
 40
0.09
  9
$DIMTSZ
 40
0.0
  9
$DIMTOL
 70
     0
  9
$DIMLIM
 70
     0
  9
$DIMTIH
 70
     1
  9
$DIMTOH
 70
     1
  9
$DIMSE1
 70
     0
  9
$DIMSE2
 70
     0
  9
$DIMTAD
 70
     1
  9
$DIMZIN
 70
     1
  9
$DIMBLK
  1

  9
$DIMASO
 70
     1
  9
$DIMSHO
 70
     1
  9
$DIMPOST
  1

  9
$DIMAPOST
  1

  9
$DIMALT
 70
     0
  9
$DIMALTD
 70
     2
  9
$DIMALTF
 40
25.4
  9
$DIMLFAC
 40
1.0
  9
$DIMTOFL
 70
     0
  9
$DIMTVP
 40
0.0
  9
$DIMTIX
 70
     0
  9
$DIMSOXD
 70
     0
  9
$DIMSAH
 70
     0
  9
$DIMBLK1
  1

  9
$DIMBLK2
  1

  9
$DIMSTYLE
  2
Standard
  9
$DIMCLRD
 70
     0
  9
$DIMCLRE
 70
     0
  9
$DIMCLRT
 70
     0
  9
$DIMTFAC
 40
1.0
  9
$DIMGAP
 40
0.06
  9
$DIMJUST
 70
     0
  9
$DIMSD1
 70
     0
  9
$DIMSD2
 70
     0
  9
$DIMTOLJ
 70
     1
  9
$DIMTZIN
 70
     1
  9
$DIMALTZ
 70
     0
  9
$DIMALTTZ
 70
     0
  9
$DIMUPT
 70
     0
  9
$DIMDEC
 70
     2
  9
$DIMTDEC
 70
     2
  9
$DIMALTU
 70
     2
  9
$DIMALTTD
 70
     2
  9
$DIMTXSTY
  7
Standard
  9
$DIMAUNIT
 70
     0
  9
$DIMADEC
 70
     2
  9
$DIMALTRND
 40
0.0
  9
$DIMAZIN
 70
     0
  9
$DIMDSEP
 70
    46
  9
$DIMATFIT
 70
     3
  9
$DIMFRAC
 70
     0
  9
$DIMLDRBLK
  1

  9
$DIMLUNIT
 70
     2
  9
$DIMLWD
 70
    -2
  9
$DIMLWE
 70
    -2
  9
$DIMTMOVE
 70
     0
  9
$LUNITS
 70
     2
  9
$LUPREC
 70
     2
  9
$SKETCHINC
 40
0.1
  9
$FILLETRAD
 40
0.0
  9
$AUNITS
 70
     0
  9
$AUPREC
 70
     2
  9
$MENU
  1
.
  9
$ELEVATION
 40
0.0
  9
$PELEVATION
 40
0.0
  9
$THICKNESS
 40
0.0
  9
$LIMCHECK
 70
     0
  9
$CHAMFERA
 40
0.0
  9
$CHAMFERB
 40
0.0
  9
$CHAMFERC
 40
0.0
  9
$CHAMFERD
 40
0.0
  9
$SKPOLY
 70
     0
  9
$TDCREATE
 40
2459858.554711447
  9
$TDUCREATE
 40
2459858.76304478
  9
$TDUPDATE
 40
2459858.554748137
  9
$TDUUPDATE
 40
2459858.76308147
  9
$TDINDWG
 40
0.0000000116
  9
$TDUSRTIMER
 40
0.0000000116
  9
$USRTIMER
 70
     1
  9
$ANGBASE
 50
0.0
  9
$ANGDIR
 70
     0
  9
$PDMODE
 70
     0
  9
$PDSIZE
 40
-1.0
  9
$PLINEWID
 40
0.0
  9
$SPLFRAME
 70
     0
  9
$SPLINETYPE
 70
     6
  9
$SPLINESEGS
 70
     8
  9
$HANDSEED
  5
7B
  9
$SURFTAB1
 70
     6
  9
$SURFTAB2
 70
     6
  9
$SURFTYPE
 70
     6
  9
$SURFU
 70
     6
  9
$SURFV
 70
     6
  9
$UCSBASE
  2

  9
$UCSNAME
  2

  9
$UCSORG
 10
0.0
 20
0.0
 30
0.0
  9
$UCSXDIR
 10
1.0
 20
0.0
 30
0.0
  9
$UCSYDIR
 10
0.0
 20
1.0
 30
0.0
  9
$UCSORTHOREF
  2

  9
$UCSORTHOVIEW
 70
     0
  9
$UCSORGTOP
 10
0.0
 20
0.0
 30
0.0
  9
$UCSORGBOTTOM
 10
0.0
 20
0.0
 30
0.0
  9
$UCSORGLEFT
 10
0.0
 20
0.0
 30
0.0
  9
$UCSORGRIGHT
 10
0.0
 20
0.0
 30
0.0
  9
$UCSORGFRONT
 10
0.0
 20
0.0
 30
0.0
  9
$UCSORGBACK
 10
0.0
 20
0.0
 30
0.0
  9
$PUCSBASE
  2

  9
$PUCSNAME
  2

  9
$PUCSORG
 10
0.0
 20
0.0
 30
0.0
  9
$PUCSXDIR
 10
1.0
 20
0.0
 30
0.0
  9
$PUCSYDIR
 10
0.0
 20
1.0
 30
0.0
  9
$PUCSORTHOREF
  2

  9
$PUCSORTHOVIEW
 70
     0
  9
$PUCSORGTOP
 10
0.0
 20
0.0
 30
0.0
  9
$PUCSORGBOTTOM
 10
0.0
 20
0.0
 30
0.0
  9
$PUCSORGLEFT
 10
0.0
 20
0.0
 30
0.0
  9
$PUCSORGRIGHT
 10
0.0
 20
0.0
 30
0.0
  9
$PUCSORGFRONT
 10
0.0
 20
0.0
 30
0.0
  9
$PUCSORGBACK
 10
0.0
 20
0.0
 30
0.0
  9
$USERI1
 70
     0
  9
$USERI2
 70
     0
  9
$USERI3
 70
     0
  9
$USERI4
 70
     0
  9
$USERI5
 70
     0
  9
$USERR1
 40
0.0
  9
$USERR2
 40
0.0
  9
$USERR3
 40
0.0
  9
$USERR4
 40
0.0
  9
$USERR5
 40
0.0
  9
$WORLDVIEW
 70
     1
  9
$SHADEDGE
 70
     3
  9
$SHADEDIF
 70
    70
  9
$TILEMODE
 70
     1
  9
$MAXACTVP
 70
    64
  9
$PINSBASE
 10
0.0
 20
0.0
 30
0.0
  9
$PLIMCHECK
 70
     0
  9
$PEXTMIN
 10
1.0000000000E+20
 20
1.0000000000E+20
 30
1.0000000000E+20
  9
$PEXTMAX
 10
-1.0000000000E+20
 20
-1.0000000000E+20
 30
-1.0000000000E+20
  9
$PLIMMIN
 10
0.0
 20
0.0
  9
$PLIMMAX
 10
12.0
 20
9.0
  9
$UNITMODE
 70
     0
  9
$VISRETAIN
 70
     1
  9
$PLINEGEN
 70
     0
  9
$PSLTSCALE
 70
     1
  9
$TREEDEPTH
 70
  3020
  9
$CMLSTYLE
  2
Standard
  9
$CMLJUST
 70
     0
  9
$CMLSCALE
 40
1.0
  9
$PROXYGRAPHICS
 70
     1
  9
$MEASUREMENT
 70
     0
  9
$CELWEIGHT
370
    -1
  9
$ENDCAPS
280
     0
  9
$JOINSTYLE
280
     0
  9
$LWDISPLAY
290
     1
  9
$INSUNITS
 70
     1
  9
$HYPERLINKBASE
  1

  9
$STYLESHEET
  1

  9
$XEDIT
290
     1
  9
$CEPSNTYPE
380
     0
  9
$PSTYLEMODE
290
     1
  9
$FINGERPRINTGUID
  2
{008df1bc-69c3-4508-bd31-955ae487c6b7}
  9
$VERSIONGUID
  2
{FAEB1C32-E019-11D5-929B-00C0DF256EC4}
  9
$EXTNAMES
290
     1
  9
$PSVPSCALE
 40
0.0
  9
$OLESTARTUP
290
     0
  0
ENDSEC
  0
SECTION
  2
CLASSES
  0
CLASS
  1
ACDBDICTIONARYWDFLT
  2
AcDbDictionaryWithDefault
  3
ObjectDBX Classes
 90
        0
280
     0
281
     0
  0
CLASS
  1
VISUALSTYLE
  2
AcDbVisualStyle
  3
ObjectDBX Classes
 90
     4095
280
     0
281
     0
  0
CLASS
  1
MATERIAL
  2
AcDbMaterial
  3
ObjectDBX Classes
 90
     1153
280
     0
281
     0
  0
CLASS
  1
SCALE
  2
AcDbScale
  3
ObjectDBX Classes
 90
     1153
280
     0
281
     0
  0
CLASS
  1
TABLESTYLE
  2
AcDbTableStyle
  3
ObjectDBX Classes
 90
     4095
280
     0
281
     0
  0
CLASS
  1
MLEADERSTYLE
  2
AcDbMLeaderStyle
  3
ACDB_MLEADERSTYLE_CLASS
 90
     4095
280
     0
281
     0
  0
CLASS
  1
SUN
  2
AcDbSun
  3
SCENEOE
 90
     1153
280
     0
281
     0
  0
CLASS
  1
ACDBPLACEHOLDER
  2
AcDbPlaceHolder
  3
ObjectDBX Classes
 90
        0
280
     0
281
     0
  0
CLASS
  1
LAYOUT
  2
AcDbLayout
  3
ObjectDBX Classes
 90
        0
280
     0
281
     0
  0
ENDSEC
  0
SECTION
  2
TABLES
  0
TABLE
  2
VPORT
  5
8
330
0
100
AcDbSymbolTable
 70
     1
  0
VPORT
  5
29
330
8
100
AcDbSymbolTableRecord
100
AcDbViewportTableRecord
  2
*Active
 70
     0
 10
0.0
 20
0.0
 11
1.0
 21
1.0
 12
0.0
 22
2.438295765
 13
0.0
 23
0.0
 14
0.5
 24
0.5
 15
0.5
 25
0.5
 16
0.0
 26
0.0
 36
1.0
 17
0.0
 27
0.0
 37
0.0
 40
4.9741233606
 41
1.2303675555
 42
50.0
 43
0.0
 44
0.0
 50
0.0
 51
0.0
 71
     0
 72
   100
 73
     1
 74
     3
 75
     0
 76
     0
 77
     0
 78
     0
281
     0
 65
     1
110
0.0
120
0.0
130
0.0
111
1.0
121
0.0
131
0.0
112
0.0
122
1.0
132
0.0
 79
     0
146
0.0
  0
ENDTAB
  0
TABLE
  2
LTYPE
  5
5
330
0
100
AcDbSymbolTable
 70
     6
  0
LTYPE
  5
14
330
5
100
AcDbSymbolTableRecord
100
AcDbLinetypeTableRecord
  2
ByBlock
 70
     0
  3

 72
    65
 73
     0
 40
0.0
  0
LTYPE
  5
15
330
5
100
AcDbSymbolTableRecord
100
AcDbLinetypeTableRecord
  2
ByLayer
 70
     0
  3

 72
    65
 73
     0
 40
0.0
  0
LTYPE
  5
16
330
5
100
AcDbSymbolTableRecord
100
AcDbLinetypeTableRecord
  2
Continuous
 70
     0
  3
Solid line
 72
    65
 73
     0
 40
0.0
  0
LTYPE
  5
5E
330
5
100
AcDbSymbolTableRecord
100
AcDbLinetypeTableRecord
  2
HIDDEN
 70
     0
  3
Hidden __ __ __ __ __ __ __ __ __ __ __ __ __ __
 72
    65
 73
     2
 40
0.075
 49
0.05
 74
     0
 49
-0.025
 74
     0
  0
LTYPE
  5
5F
330
5
100
AcDbSymbolTableRecord
100
AcDbLinetypeTableRecord
  2
PHANTOM
 70
     0
  3
Phantom ______  __  __  ______  __  __  ______
 72
    65
 73
     6
 40
0.5
 49
0.25
 74
     0
 49
-0.05
 74
     0
 49
0.05
 74
     0
 49
-0.05
 74
     0
 49
0.05
 74
     0
 49
-0.05
 74
     0
  0
LTYPE
  5
60
330
5
100
AcDbSymbolTableRecord
100
AcDbLinetypeTableRecord
  2
CENTER
 70
     0
  3
Center ____ _ ____ _ ____ _ ____ _ ____ _ ____
 72
    65
 73
     4
 40
0.4
 49
0.25
 74
     0
 49
-0.05
 74
     0
 49
0.05
 74
     0
 49
-0.05
 74
     0
  0
LTYPE
  5
61
330
5
100
AcDbSymbolTableRecord
100
AcDbLinetypeTableRecord
  2
CENTERX2
 70
     0
  3
Center (2x) ________  __  ________  __  _____
 72
    65
 73
     4
 40
0.8
 49
0.5
 74
     0
 49
-0.1
 74
     0
 49
0.1
 74
     0
 49
-0.1
 74
     0
  0
LTYPE
  5
62
330
5
100
AcDbSymbolTableRecord
100
AcDbLinetypeTableRecord
  2
DOT2
 70
     0
  3
Dot (.5x) ........................................
 72
    65
 73
     2
 40
0.025
 49
0.0
 74
     0
 49
-0.025
 74
     0
  0
ENDTAB
  0
TABLE
  2
LAYER
  5
2
330
0
100
AcDbSymbolTable
 70
     1
  0
LAYER
  5
10
330
2
100
AcDbSymbolTableRecord
100
AcDbLayerTableRecord
  2
0
 70
     0
 62
     7
  6
Continuous
370
    -3
390
F
  0
ENDTAB
  0
TABLE
  2
STYLE
  5
3
330
0
100
AcDbSymbolTable
 70
     2
  0
STYLE
  5
11
330
3
100
AcDbSymbolTableRecord
100
AcDbTextStyleTableRecord
  2
Standard
 70
     0
 40
0.0
 41
1.0
 50
0.0
 71
     0
 42
0.1377952756
  3
txt
  4

  0
STYLE
  5
77
330
3
100
AcDbSymbolTableRecord
100
AcDbTextStyleTableRecord
  2
SLDTEXTSTYLE0
 70
     0
 40
0.0
 41
0.7
 50
0.0
 71
     0
 42
0.1377952756
  3
TXT
  4

  0
ENDTAB
  0
TABLE
  2
VIEW
  5
6
330
0
100
AcDbSymbolTable
 70
     0
  0
ENDTAB
  0
TABLE
  2
UCS
  5
7
330
0
100
AcDbSymbolTable
 70
     0
  0
ENDTAB
  0
TABLE
  2
APPID
  5
9
330
0
100
AcDbSymbolTable
 70
     1
  0
APPID
  5
12
330
9
100
AcDbSymbolTableRecord
100
AcDbRegAppTableRecord
  2
ACAD
 70
     0
  0
ENDTAB
  0
TABLE
  2
DIMSTYLE
  5
A
330
0
100
AcDbSymbolTable
 70
     1
100
AcDbDimStyleTable
  0
DIMSTYLE
105
27
330
A
100
AcDbSymbolTableRecord
100
AcDbDimStyleTableRecord
  2
Standard
 70
     0
178
     0
340
11
  0
ENDTAB
  0
TABLE
  2
BLOCK_RECORD
  5
1
330
0
100
AcDbSymbolTable
 70
     1
  0
BLOCK_RECORD
  5
1F
330
1
100
AcDbSymbolTableRecord
100
AcDbBlockTableRecord
  2
*Model_Space
340
22
  0
BLOCK_RECORD
  5
1B
330
1
100
AcDbSymbolTableRecord
100
AcDbBlockTableRecord
  2
*Paper_Space
340
1E
  0
BLOCK_RECORD
  5
23
330
1
100
AcDbSymbolTableRecord
100
AcDbBlockTableRecord
  2
*Paper_Space0
340
26
  0
ENDTAB
  0
ENDSEC
  0
SECTION
  2
BLOCKS
  0
BLOCK
  5
20
330
1F
100
AcDbEntity
  8
0
100
AcDbBlockBegin
  2
*Model_Space
 70
     0
 10
0.0
 20
0.0
 30
0.0
  3
*Model_Space
  1

  0
ENDBLK
  5
21
330
1F
100
AcDbEntity
  8
0
100
AcDbBlockEnd
  0
BLOCK
  5
1C
330
1B
100
AcDbEntity
 67
     1
  8
0
100
AcDbBlockBegin
  2
*Paper_Space
 70
     0
 10
0.0
 20
0.0
 30
0.0
  3
*Paper_Space
  1

  0
ENDBLK
  5
1D
330
1B
100
AcDbEntity
 67
     1
  8
0
100
AcDbBlockEnd
  0
BLOCK
  5
24
330
23
100
AcDbEntity
  8
0
100
AcDbBlockBegin
  2
*Paper_Space0
 70
     0
 10
0.0
 20
0.0
 30
0.0
  3
*Paper_Space0
  1

  0
ENDBLK
  5
25
330
23
100
AcDbEntity
  8
0
100
AcDbBlockEnd
  0
ENDSEC
  0
SECTION
  2
ENTITIES
  0
SPLINE
  5
63
330
1F
100
AcDbEntity
  8
0
  6
Continuous
 62
     7
370
    25
100
AcDbSpline
210
0.0
220
0.0
230
1.0
 70
    11
 71
     3
 72
   122
 73
   118
 74
     0
 42
0.00000001
 43
0.00000001
 40
0.0
 40
0.0
 40
0.0
 40
0.0
 40
0.0002710283195858
 40
0.0002710283195858
 40
0.0002710283195858
 40
0.0005420566391715
 40
0.0005420566391715
 40
0.0005420566391715
 40
0.0008130849587573
 40
0.0008130849587573
 40
0.0008130849587573
 40
0.001084113278343
 40
0.001084113278343
 40
0.001084113278343
 40
0.0013551415979288
 40
0.0013551415979288
 40
0.0013551415979288
 40
0.0016261699175145
 40
0.0016261699175145
 40
0.0016261699175145
 40
0.0018971982371003
 40
0.0018971982371003
 40
0.0018971982371003
 40
0.0021682265566861
 40
0.0021682265566861
 40
0.0021682265566861
 40
0.0024392548762718
 40
0.0024392548762718
 40
0.0024392548762718
 40
0.0027102831958576
 40
0.0027102831958576
 40
0.0027102831958576
 40
0.0029813115154433
 40
0.0029813115154433
 40
0.0029813115154433
 40
0.0032523398350291
 40
0.0032523398350291
 40
0.0032523398350291
 40
0.0035233681546148
 40
0.0035233681546148
 40
0.0035233681546148
 40
0.0037943964742005
 40
0.0037943964742005
 40
0.0037943964742005
 40
0.0040654247937863
 40
0.0040654247937863
 40
0.0040654247937863
 40
0.004336453113372
 40
0.004336453113372
 40
0.004336453113372
 40
0.0046074814329577
 40
0.0046074814329577
 40
0.0046074814329577
 40
0.0048785097525435
 40
0.0048785097525435
 40
0.0048785097525435
 40
0.0051495380721292
 40
0.0051495380721292
 40
0.0051495380721292
 40
0.0054205663917149
 40
0.0054205663917149
 40
0.0054205663917149
 40
0.0056915947113007
 40
0.0056915947113007
 40
0.0056915947113007
 40
0.0059626230308864
 40
0.0059626230308864
 40
0.0059626230308864
 40
0.0062336513504722
 40
0.0062336513504722
 40
0.0062336513504722
 40
0.0065046796700579
 40
0.0065046796700579
 40
0.0065046796700579
 40
0.0067757079896436
 40
0.0067757079896436
 40
0.0067757079896436
 40
0.0070467363092294
 40
0.0070467363092294
 40
0.0070467363092294
 40
0.0073177646288151
 40
0.0073177646288151
 40
0.0073177646288151
 40
0.0075887929484009
 40
0.0075887929484009
 40
0.0075887929484009
 40
0.0078598212679866
 40
0.0078598212679866
 40
0.0078598212679866
 40
0.0081308495875723
 40
0.0081308495875723
 40
0.0081308495875723
 40
0.0084018779071581
 40
0.0084018779071581
 40
0.0084018779071581
 40
0.0086729062267438
 40
0.0086729062267438
 40
0.0086729062267438
 40
0.0089439345463296
 40
0.0089439345463296
 40
0.0089439345463296
 40
0.0092149628659153
 40
0.0092149628659153
 40
0.0092149628659153
 40
0.009485991185501
 40
0.009485991185501
 40
0.009485991185501
 40
0.0097570195050868
 40
0.0097570195050868
 40
0.0097570195050868
 40
0.0099967097025131
 40
0.0099967097025131
 40
0.0099967097025131
 40
0.0101187414765264
 40
0.0101187414765264
 40
0.0101187414765264
 40
0.0102414671890356
 40
0.0102414671890356
 40
0.0102414671890356
 40
0.0102414671890356
 10
-0.2063499229162178
 20
4.654639834285359
 30
0.0
 10
-0.2063499229162177
 20
4.65819663637966
 30
0.0
 10
-0.206052532475508
 20
4.661765637516924
 30
0.0
 10
-0.2054638717859277
 20
4.665273388895025
 30
0.0
 10
-0.2048752110963473
 20
4.668781140273126
 30
0.0
 10
-0.2039912422064715
 20
4.672251703511816
 30
0.0
 10
-0.2028301568886141
 20
4.675613655626686
 30
0.0
 10
-0.2016690715707567
 20
4.678975607741556
 30
0.0
 10
-0.2002229052942523
 20
4.682252010234034
 30
0.0
 10
-0.1985214196581022
 20
4.68537543588034
 30
0.0
 10
-0.1968199340219521
 20
4.688498861526647
 30
0.0
 10
-0.1948514575888231
 20
4.691490735642351
 30
0.0
 10
-0.1926565009190833
 20
4.694289486498715
 30
0.0
 10
-0.1904615442493435
 20
4.697088237355078
 30
0.0
 10
-0.188025050913085
 20
4.699713063142513
 30
0.0
 10
-0.1853971630957682
 20
4.702109945859214
 30
0.0
 10
-0.1827692752784514
 20
4.704506828575916
 30
0.0
 10
-0.1799319668343794
 20
4.706692209774977
 30
0.0
 10
-0.1769436285845302
 20
4.708621115071387
 30
0.0
 10
-0.1739552903346811
 20
4.710550020367796
 30
0.0
 10
-0.170795423603149
 20
4.712235681196957
 30
0.0
 10
-0.167529057348284
 20
4.713643407245272
 30
0.0
 10
-0.1642626910934189
 20
4.715051133293588
 30
0.0
 10
-0.160867419490428
 20
4.716190580937817
 30
0.0
 10
-0.1574131160480432
 20
4.717038300741735
 30
0.0
 10
-0.1539588126056584
 20
4.717886020545653
 30
0.0
 10
-0.1504217823332777
 20
4.718447827491389
 30
0.0
 10
-0.1468748160837463
 20
4.718712159787395
 30
0.0
 10
-0.143327849834215
 20
4.718976492083399
 30
0.0
 10
-0.1397466169911439
 20
4.718945162932068
 30
0.0
 10
-0.1362048180809095
 20
4.718618817076436
 30
0.0
 10
-0.1326630191706751
 20
4.718292471220805
 30
0.0
 10
-0.1291363590225457
 20
4.717668870072946
 30
0.0
 10
-0.1256974150758159
 20
4.716760847127599
 30
0.0
 10
-0.1222584711290862
 20
4.715852824182253
 30
0.0
 10
-0.1188836537524867
 20
4.714654150804466
 30
0.0
 10
-0.1156424155138842
 20
4.71318949527546
 30
0.0
 10
-0.1124011772752819
 20
4.711724839746455
 30
0.0
 10
-0.1092712847169379
 20
4.709984155178466
 30
0.0
 10
-0.106317149939143
 20
4.708003264254502
 30
0.0
 10
-0.103363015161348
 20
4.706022373330536
 30
0.0
 10
-0.100564374108855
 20
4.703787688016825
 30
0.0
 10
-0.0979788218411716
 20
4.701345197359913
 30
0.0
 10
-0.0953932695734881
 20
4.698902706703002
 30
0.0
 10
-0.0930030703480237
 20
4.696235656299541
 30
0.0
 10
-0.0908574136335399
 20
4.693398933119247
 30
0.0
 10
-0.0887117569190561
 20
4.690562209938953
 30
0.0
 10
-0.0867959244614873
 20
4.687536355318101
 30
0.0
 10
-0.0851493434264936
 20
4.684383640292409
 30
0.0
 10
-0.0835027623914999
 20
4.681230925266717
 30
0.0
 10
-0.0821141379629772
 20
4.677929723608454
 30
0.0
 10
-0.0810120475487084
 20
4.674547972899605
 30
0.0
 10
-0.0799099571344396
 20
4.671166222190756
 30
0.0
 10
-0.0790868408826503
 20
4.667680725120315
 30
0.0
 10
-0.0785596382395264
 20
4.664163212005754
 30
0.0
 10
-0.0780324355964025
 20
4.660645698891193
 30
0.0
 10
-0.0777975301854785
 20
4.657072041151575
 30
0.0
 10
-0.0778597562784127
 20
4.653515783420282
 30
0.0
 10
-0.0779219823713468
 20
4.649959525688989
 30
0.0
 10
-0.0782817668115566
 20
4.646396273614185
 30
0.0
 10
-0.0789317053603937
 20
4.642899357684289
 30
0.0
 10
-0.079581643909231
 20
4.639402441754393
 30
0.0
 10
-0.0805261948570755
 20
4.635947874676026
 30
0.0
 10
-0.0817459196739305
 20
4.632606750238179
 30
0.0
 10
-0.0829656444907853
 20
4.629265625800333
 30
0.0
 10
-0.0844689099482894
 20
4.626015025370214
 30
0.0
 10
-0.0862247793661544
 20
4.622921845174133
 30
0.0
 10
-0.0879806487840196
 20
4.619828664978051
 30
0.0
 10
-0.0900011666482178
 20
4.616871687170819
 30
0.0
 10
-0.0922447514038296
 20
4.614111765327285
 30
0.0
 10
-0.0944883361594414
 20
4.611351843483752
 30
0.0
 10
-0.0969703778034907
 20
4.608770045763323
 30
0.0
 10
-0.0996397967821843
 20
4.606419504665147
 30
0.0
 10
-0.1023092157608778
 20
4.60406896356697
 30
0.0
 10
-0.1051843231052721
 20
4.60193355542092
 30
0.0
 10
-0.1082059501061668
 20
4.600057226183955
 30
0.0
 10
-0.1112275771070616
 20
4.59818089694699
 30
0.0
 10
-0.1144164507864406
 20
4.596550775832172
 30
0.0
 10
-0.1177069452330555
 20
4.595200410165094
 30
0.0
 10
-0.1209974396796704
 20
4.593850044498017
 30
0.0
 10
-0.1244121262270153
 20
4.592770171368712
 30
0.0
 10
-0.1278807318135562
 20
4.591983014190608
 30
0.0
 10
-0.1313493374000971
 20
4.591195857012504
 30
0.0
 10
-0.1348956551228058
 20
4.590696016236239
 30
0.0
 10
-0.1384467029963394
 20
4.590493778411151
 30
0.0
 10
-0.141997750869873
 20
4.590291540586062
 30
0.0
 10
-0.1455778875087522
 20
4.590385518450303
 30
0.0
 10
-0.1491134349461016
 20
4.590773777972113
 30
0.0
 10
-0.152648982383451
 20
4.591162037493922
 30
0.0
 10
-0.1561641929076692
 20
4.591847241961537
 30
0.0
 10
-0.1595867247087393
 20
4.592815290105324
 30
0.0
 10
-0.1630092565098094
 20
4.593783338249109
 30
0.0
 10
-0.1663625866389559
 20
4.595040870450276
 30
0.0
 10
-0.1695777047283914
 20
4.596562007133487
 30
0.0
 10
-0.1727928228178269
 20
4.598083143816697
 30
0.0
 10
-0.1758917831526435
 20
4.599878319305402
 30
0.0
 10
-0.1788108102069531
 20
4.601910589512396
 30
0.0
 10
-0.1817298372612625
 20
4.603942859719389
 30
0.0
 10
-0.1844889542668892
 20
4.606226165117551
 30
0.0
 10
-0.1870313795554636
 20
4.608713516075908
 30
0.0
 10
-0.189573804844038
 20
4.611200867034266
 30
0.0
 10
-0.1919169783261886
 20
4.613909325677952
 30
0.0
 10
-0.1940126783065962
 20
4.616783152870068
 30
0.0
 10
-0.1961083782870038
 20
4.619656980062183
 30
0.0
 10
-0.1979709803386801
 20
4.622715888983531
 30
0.0
 10
-0.1995621527592046
 20
4.625896928352383
 30
0.0
 10
-0.201153325179729
 20
4.629077967721235
 30
0.0
 10
-0.2024839827066688
 20
4.632402958057764
 30
0.0
 10
-0.203526740870915
 20
4.635803472217258
 30
0.0
 10
-0.2044496218249873
 20
4.638813057622057
 30
0.0
 10
-0.205152608328007
 20
4.641898928668951
 30
0.0
 10
-0.2056243556759486
 20
4.64501128597554
 30
0.0
 10
-0.2058650149959112
 20
4.646599037970654
 30
0.0
 10
-0.2060462323258167
 20
4.648196940044557
 30
0.0
 10
-0.2061672443051374
 20
4.649798261188843
 30
0.0
 10
-0.2062889434483382
 20
4.651408675400251
 30
0.0
 10
-0.2063499229162179
 20
4.653024828212999
 30
0.0
 10
-0.2063499229162178
 20
4.654639834285359
 30
0.0
  0
CIRCLE
  5
64
330
1F
100
AcDbEntity
  8
0
  6
Continuous
 62
     7
370
    25
100
AcDbCircle
 10
0.9683524825
 20
4.595757798
 30
0.0
 40
0.0642500000000021
  0
LINE
  5
65
330
1F
100
AcDbEntity
  8
0
  6
Continuous
 62
     7
370
    25
100
AcDbLine
 10
2.6975
 20
1.0
 30
0.0
 11
3.0
 21
1.0
 31
0.0
  0
LINE
  5
66
330
1F
100
AcDbEntity
  8
0
  6
Continuous
 62
     7
370
    25
100
AcDbLine
 10
2.6975
 20
1.0
 30
0.0
 11
2.6975
 21
0.5
 31
0.0
  0
LINE
  5
67
330
1F
100
AcDbEntity
  8
0
  6
Continuous
 62
     7
370
    25
100
AcDbLine
 10
2.6975
 20
0.5
 30
0.0
 11
2.5025
 21
0.5
 31
0.0
  0
LINE
  5
68
330
1F
100
AcDbEntity
  8
0
  6
Continuous
 62
     7
370
    25
100
AcDbLine
 10
2.5025
 20
1.0
 30
0.0
 11
2.5025
 21
0.5
 31
0.0
  0
LINE
  5
69
330
1F
100
AcDbEntity
  8
0
  6
Continuous
 62
     7
370
    25
100
AcDbLine
 10
1.68
 20
1.0
 30
0.0
 11
2.5025
 21
1.0
 31
0.0
  0
ARC
  5
6A
330
1F
100
AcDbEntity
  8
0
  6
Continuous
 62
     7
370
    25
100
AcDbCircle
 10
1.68
 20
1.5
 30
0.0
 40
0.5000000000000002
100
AcDbArc
 50
179.9999999997
 51
270.0
  0
LINE
  5
6B
330
1F
100
AcDbEntity
  8
0
  6
Continuous
 62
     7
370
    25
100
AcDbLine
 10
1.18
 20
4.87659153
 30
0.0
 11
1.18
 21
1.5
 31
0.0
  0
LINE
  5
6C
330
1F
100
AcDbEntity
  8
0
  6
Continuous
 62
     7
370
    25
100
AcDbLine
 10
-0.29503392
 20
4.87659153
 30
0.0
 11
1.18
 21
4.87659153
 31
0.0
  0
LINE
  5
6D
330
1F
100
AcDbEntity
  8
0
  6
Continuous
 62
     7
370
    25
100
AcDbLine
 10
-0.29503392
 20
1.5
 30
0.0
 11
-0.29503392
 21
4.87659153
 31
0.0
  0
ARC
  5
6E
330
1F
100
AcDbEntity
  8
0
  6
Continuous
 62
     7
370
    25
100
AcDbCircle
 10
-0.79503392
 20
1.5
 30
0.0
 40
0.5000000000000001
100
AcDbArc
 50
270.0000000001
 51
0.0000000002
  0
LINE
  5
6F
330
1F
100
AcDbEntity
  8
0
  6
Continuous
 62
     7
370
    25
100
AcDbLine
 10
-2.3025
 20
1.0
 30
0.0
 11
-0.79503392
 21
1.0
 31
0.0
  0
LINE
  5
70
330
1F
100
AcDbEntity
  8
0
  6
Continuous
 62
     7
370
    25
100
AcDbLine
 10
-2.3025
 20
1.0
 30
0.0
 11
-2.3025
 21
0.5
 31
0.0
  0
LINE
  5
71
330
1F
100
AcDbEntity
  8
0
  6
Continuous
 62
     7
370
    25
100
AcDbLine
 10
-2.3025
 20
0.5
 30
0.0
 11
-2.4975
 21
0.5
 31
0.0
  0
LINE
  5
72
330
1F
100
AcDbEntity
  8
0
  6
Continuous
 62
     7
370
    25
100
AcDbLine
 10
-2.4975
 20
0.5
 30
0.0
 11
-2.4975
 21
1.0
 31
0.0
  0
LINE
  5
73
330
1F
100
AcDbEntity
  8
0
  6
Continuous
 62
     7
370
    25
100
AcDbLine
 10
-3.0
 20
1.0
 30
0.0
 11
-2.4975
 21
1.0
 31
0.0
  0
LINE
  5
74
330
1F
100
AcDbEntity
  8
0
  6
Continuous
 62
     7
370
    25
100
AcDbLine
 10
-3.0
 20
0.0
 30
0.0
 11
-3.0
 21
1.0
 31
0.0
  0
LINE
  5
75
330
1F
100
AcDbEntity
  8
0
  6
Continuous
 62
     7
370
    25
100
AcDbLine
 10
3.0
 20
0.0
 30
0.0
 11
-3.0
 21
0.0
 31
0.0
  0
LINE
  5
76
330
1F
100
AcDbEntity
  8
0
  6
Continuous
 62
     7
370
    25
100
AcDbLine
 10
3.0
 20
1.0
 30
0.0
 11
3.0
 21
0.0
 31
0.0
  0
MTEXT
  5
78
330
1F
100
AcDbEntity
  8
0
  6
Continuous
 62
     7
100
AcDbMText
 10
-3.0
 20
-0.0401404091
 30
0.0
 40
0.1903
 41
0.0
 71
     1
 72
     1
  1
SOLIDWORKS Educational Product.
  7
SLDTEXTSTYLE0
 73
     1
 44
1.0
  0
MTEXT
  5
79
330
1F
100
AcDbEntity
  8
0
  6
Continuous
 62
     7
100
AcDbMText
 10
-3.0
 20
-0.3255904091
 30
0.0
 40
0.1903
 41
0.0
 71
     1
 72
     1
  1
For Instructional Use Only.
  7
SLDTEXTSTYLE0
 73
     1
 44
1.0
  0
ENDSEC
  0
SECTION
  2
OBJECTS
  0
DICTIONARY
  5
C
330
0
100
AcDbDictionary
281
     1
  3
ACAD_GROUP
350
D
  3
ACAD_LAYOUT
350
1A
  3
ACAD_MLINESTYLE
350
17
  3
ACAD_PLOTSETTINGS
350
19
  3
ACAD_PLOTSTYLENAME
350
E
  3
ACAD_SCALELIST
350
47
  3
DWGPROPS
350
7A
  0
DICTIONARY
  5
D
102
{ACAD_REACTORS
330
C
102
}
330
C
100
AcDbDictionary
281
     1
  0
DICTIONARY
  5
1A
102
{ACAD_REACTORS
330
C
102
}
330
C
100
AcDbDictionary
281
     1
  3
Layout1
350
1E
  3
Layout2
350
26
  3
Model
350
22
  0
DICTIONARY
  5
17
102
{ACAD_REACTORS
330
C
102
}
330
C
100
AcDbDictionary
281
     1
  3
Standard
350
18
  0
DICTIONARY
  5
19
102
{ACAD_REACTORS
330
C
102
}
330
C
100
AcDbDictionary
281
     1
  0
ACDBDICTIONARYWDFLT
  5
E
102
{ACAD_REACTORS
330
C
102
}
330
C
100
AcDbDictionary
281
     1
  3
Normal
350
F
100
AcDbDictionaryWithDefault
340
F
  0
DICTIONARY
  5
47
102
{ACAD_REACTORS
330
C
102
}
330
C
100
AcDbDictionary
281
     1
  3
A0
350
48
  3
A1
350
49
  3
A2
350
4A
  3
A3
350
4B
  3
A4
350
4C
  3
A5
350
4D
  3
A6
350
4E
  3
A7
350
4F
  3
A8
350
50
  3
A9
350
51
  3
B1
350
52
  3
B2
350
53
  3
B3
350
54
  3
B4
350
55
  3
B5
350
56
  3
B6
350
57
  3
B7
350
58
  0
XRECORD
  5
7A
102
{ACAD_REACTORS
330
C
102
}
330
C
100
AcDbXrecord
280
     1
  1
DWGPROPS COOKIE
  2

  3

  4

  6

  7

  8
deshe
  9

300
=
301
=
302
=
303
=
304
=
305
=
306
=
307
=
308
=
309
=
 40
0.0
 41
2459858.76304478
 42
2459858.76308147
  1

 90
        0
  0
LAYOUT
  5
1E
102
{ACAD_REACTORS
330
1A
102
}
330
1A
100
AcDbPlotSettings
  1

  2
none_device
  4

  6

 40
0.0
 41
0.0
 42
0.0
 43
0.0
 44
0.0
 45
0.0
 46
0.0
 47
0.0
 48
0.0
 49
0.0
140
0.0
141
0.0
142
1.0
143
1.0
 70
   688
 72
     0
 73
     0
 74
     5
  7

 75
    16
147
1.0
148
0.0
149
0.0
100
AcDbLayout
  1
Layout1
 70
     1
 71
     1
 10
0.0
 20
0.0
 11
12.0
 21
9.0
 12
0.0
 22
0.0
 32
0.0
 14
1.0000000000E+20
 24
1.0000000000E+20
 34
1.0000000000E+20
 15
-1.0000000000E+20
 25
-1.0000000000E+20
 35
-1.0000000000E+20
146
0.0
 13
0.0
 23
0.0
 33
0.0
 16
1.0
 26
0.0
 36
0.0
 17
0.0
 27
1.0
 37
0.0
 76
     0
330
1B
  0
LAYOUT
  5
26
102
{ACAD_REACTORS
330
1A
102
}
330
1A
100
AcDbPlotSettings
  1

  2
none_device
  4

  6

 40
0.0
 41
0.0
 42
0.0
 43
0.0
 44
0.0
 45
0.0
 46
0.0
 47
0.0
 48
0.0
 49
0.0
140
0.0
141
0.0
142
1.0
143
1.0
 70
   688
 72
     0
 73
     0
 74
     5
  7

 75
    16
147
1.0
148
0.0
149
0.0
100
AcDbLayout
  1
Layout2
 70
     1
 71
     2
 10
0.0
 20
0.0
 11
0.0
 21
0.0
 12
0.0
 22
0.0
 32
0.0
 14
0.0
 24
0.0
 34
0.0
 15
0.0
 25
0.0
 35
0.0
146
0.0
 13
0.0
 23
0.0
 33
0.0
 16
1.0
 26
0.0
 36
0.0
 17
0.0
 27
1.0
 37
0.0
 76
     0
330
23
  0
LAYOUT
  5
22
102
{ACAD_REACTORS
330
1A
102
}
330
1A
100
AcDbPlotSettings
  1

  2
none_device
  4
ANSI_A_(11.00_x_8.50_Inches)
  6

 40
6.35
 41
19.05
 42
6.35000508
 43
19.05000254
 44
279.4
 45
215.9
 46
133.34999746
 47
-17.97050127
 48
0.0
 49
0.0
140
0.0
141
0.0
142
1.7255904966
143
1.0
 70
  1696
 72
     0
 73
     0
 74
     0
  7

 75
     0
147
0.5913241897
148
-39.4088153714
149
0.0
100
AcDbLayout
  1
Model
 70
     1
 71
     0
 10
0.0
 20
0.0
 11
12.0
 21
9.0
 12
0.0
 22
0.0
 32
0.0
 14
-3.0
 24
0.0
 34
0.0
 15
3.0
 25
4.87659153
 35
0.0
146
0.0
 13
0.0
 23
0.0
 33
0.0
 16
1.0
 26
0.0
 36
0.0
 17
0.0
 27
1.0
 37
0.0
 76
     0
330
1F
331
29
  0
MLINESTYLE
  5
18
102
{ACAD_REACTORS
330
17
102
}
330
17
100
AcDbMlineStyle
  2
Standard
 70
     0
  3

 62
   256
 51
90.0
 52
90.0
 71
     2
 49
0.5
 62
   256
  6
BYLAYER
 49
-0.5
 62
   256
  6
BYLAYER
  0
ACDBPLACEHOLDER
  5
F
102
{ACAD_REACTORS
330
E
102
}
330
E
  0
SCALE
  5
48
102
{ACAD_REACTORS
330
47
102
}
330
47
100
AcDbScale
 70
     0
300
1:1
140
1.0
141
1.0
290
     1
  0
SCALE
  5
49
102
{ACAD_REACTORS
330
47
102
}
330
47
100
AcDbScale
 70
     0
300
1/128" = 1'-0"
140
0.0078125
141
12.0
290
     0
  0
SCALE
  5
4A
102
{ACAD_REACTORS
330
47
102
}
330
47
100
AcDbScale
 70
     0
300
1/64" = 1'-0"
140
0.015625
141
12.0
290
     0
  0
SCALE
  5
4B
102
{ACAD_REACTORS
330
47
102
}
330
47
100
AcDbScale
 70
     0
300
1/32" = 1'-0"
140
0.03125
141
12.0
290
     0
  0
SCALE
  5
4C
102
{ACAD_REACTORS
330
47
102
}
330
47
100
AcDbScale
 70
     0
300
1/16" = 1'-0"
140
0.0625
141
12.0
290
     0
  0
SCALE
  5
4D
102
{ACAD_REACTORS
330
47
102
}
330
47
100
AcDbScale
 70
     0
300
3/32" = 1'-0"
140
0.09375
141
12.0
290
     0
  0
SCALE
  5
4E
102
{ACAD_REACTORS
330
47
102
}
330
47
100
AcDbScale
 70
     0
300
1/8" = 1'-0"
140
0.125
141
12.0
290
     0
  0
SCALE
  5
4F
102
{ACAD_REACTORS
330
47
102
}
330
47
100
AcDbScale
 70
     0
300
3/16" = 1'-0"
140
0.1875
141
12.0
290
     0
  0
SCALE
  5
50
102
{ACAD_REACTORS
330
47
102
}
330
47
100
AcDbScale
 70
     0
300
1/4" = 1'-0"
140
0.25
141
12.0
290
     0
  0
SCALE
  5
51
102
{ACAD_REACTORS
330
47
102
}
330
47
100
AcDbScale
 70
     0
300
3/8" = 1'-0"
140
0.375
141
12.0
290
     0
  0
SCALE
  5
52
102
{ACAD_REACTORS
330
47
102
}
330
47
100
AcDbScale
 70
     0
300
1/2" = 1'-0"
140
0.5
141
12.0
290
     0
  0
SCALE
  5
53
102
{ACAD_REACTORS
330
47
102
}
330
47
100
AcDbScale
 70
     0
300
3/4" = 1'-0"
140
0.75
141
12.0
290
     0
  0
SCALE
  5
54
102
{ACAD_REACTORS
330
47
102
}
330
47
100
AcDbScale
 70
     0
300
1" = 1'-0"
140
1.0
141
12.0
290
     0
  0
SCALE
  5
55
102
{ACAD_REACTORS
330
47
102
}
330
47
100
AcDbScale
 70
     0
300
1-1/2" = 1'-0"
140
1.5
141
12.0
290
     0
  0
SCALE
  5
56
102
{ACAD_REACTORS
330
47
102
}
330
47
100
AcDbScale
 70
     0
300
3" = 1'-0"
140
3.0
141
12.0
290
     0
  0
SCALE
  5
57
102
{ACAD_REACTORS
330
47
102
}
330
47
100
AcDbScale
 70
     0
300
6" = 1'-0"
140
6.0
141
12.0
290
     0
  0
SCALE
  5
58
102
{ACAD_REACTORS
330
47
102
}
330
47
100
AcDbScale
 70
     0
300
1'-0" = 1'-0"
140
12.0
141
12.0
290
     0
  0
ENDSEC
  0
EOF
