  0
SECTION
  2
HEADER
  9
$ACADVER
  1
AC1015
  9
$ACADMAINTVER
 70
     6
  9
$DWGCODEPAGE
  3
ANSI_1252
  9
$INSBASE
 10
0.0
 20
0.0
 30
0.0
  9
$EXTMIN
 10
-3.0023525255
 20
0.0
 30
0.0
  9
$EXTMAX
 10
2.9976474745
 20
4.8428370804
 30
0.0
  9
$LIMMIN
 10
0.0
 20
0.0
  9
$LIMMAX
 10
12.0
 20
9.0
  9
$ORTHOMODE
 70
     0
  9
$REGENMODE
 70
     1
  9
$FILLMODE
 70
     1
  9
$QTEXTMODE
 70
     0
  9
$MIRRTEXT
 70
     1
  9
$LTSCALE
 40
1.0
  9
$ATTMODE
 70
     1
  9
$TEXTSIZE
 40
0.1377952756
  9
$TRACEWID
 40
0.05
  9
$TEXTSTYLE
  7
Standard
  9
$CLAYER
  8
0
  9
$CELTYPE
  6
ByLayer
  9
$CECOLOR
 62
   256
  9
$CELTSCALE
 40
1.0
  9
$DISPSILH
 70
     0
  9
$DIMSCALE
 40
1.0
  9
$DIMASZ
 40
0.13
  9
$DIMEXO
 40
0.0
  9
$DIMDLI
 40
0.38
  9
$DIMRND
 40
0.0
  9
$DIMDLE
 40
0.0
  9
$DIMEXE
 40
0.125
  9
$DIMTP
 40
0.0
  9
$DIMTM
 40
0.0
  9
$DIMTXT
 40
0.1377952756
  9
$DIMCEN
 40
0.09
  9
$DIMTSZ
 40
0.0
  9
$DIMTOL
 70
     0
  9
$DIMLIM
 70
     0
  9
$DIMTIH
 70
     1
  9
$DIMTOH
 70
     1
  9
$DIMSE1
 70
     0
  9
$DIMSE2
 70
     0
  9
$DIMTAD
 70
     1
  9
$DIMZIN
 70
     1
  9
$DIMBLK
  1

  9
$DIMASO
 70
     1
  9
$DIMSHO
 70
     1
  9
$DIMPOST
  1

  9
$DIMAPOST
  1

  9
$DIMALT
 70
     0
  9
$DIMALTD
 70
     2
  9
$DIMALTF
 40
25.4
  9
$DIMLFAC
 40
1.0
  9
$DIMTOFL
 70
     0
  9
$DIMTVP
 40
0.0
  9
$DIMTIX
 70
     0
  9
$DIMSOXD
 70
     0
  9
$DIMSAH
 70
     0
  9
$DIMBLK1
  1

  9
$DIMBLK2
  1

  9
$DIMSTYLE
  2
Standard
  9
$DIMCLRD
 70
     0
  9
$DIMCLRE
 70
     0
  9
$DIMCLRT
 70
     0
  9
$DIMTFAC
 40
1.0
  9
$DIMGAP
 40
0.06
  9
$DIMJUST
 70
     0
  9
$DIMSD1
 70
     0
  9
$DIMSD2
 70
     0
  9
$DIMTOLJ
 70
     1
  9
$DIMTZIN
 70
     1
  9
$DIMALTZ
 70
     0
  9
$DIMALTTZ
 70
     0
  9
$DIMUPT
 70
     0
  9
$DIMDEC
 70
     2
  9
$DIMTDEC
 70
     2
  9
$DIMALTU
 70
     2
  9
$DIMALTTD
 70
     2
  9
$DIMTXSTY
  7
Standard
  9
$DIMAUNIT
 70
     0
  9
$DIMADEC
 70
     2
  9
$DIMALTRND
 40
0.0
  9
$DIMAZIN
 70
     0
  9
$DIMDSEP
 70
    46
  9
$DIMATFIT
 70
     3
  9
$DIMFRAC
 70
     0
  9
$DIMLDRBLK
  1

  9
$DIMLUNIT
 70
     2
  9
$DIMLWD
 70
    -2
  9
$DIMLWE
 70
    -2
  9
$DIMTMOVE
 70
     0
  9
$LUNITS
 70
     2
  9
$LUPREC
 70
     2
  9
$SKETCHINC
 40
0.1
  9
$FILLETRAD
 40
0.0
  9
$AUNITS
 70
     0
  9
$AUPREC
 70
     2
  9
$MENU
  1
.
  9
$ELEVATION
 40
0.0
  9
$PELEVATION
 40
0.0
  9
$THICKNESS
 40
0.0
  9
$LIMCHECK
 70
     0
  9
$CHAMFERA
 40
0.0
  9
$CHAMFERB
 40
0.0
  9
$CHAMFERC
 40
0.0
  9
$CHAMFERD
 40
0.0
  9
$SKPOLY
 70
     0
  9
$TDCREATE
 40
2459858.555060752
  9
$TDUCREATE
 40
2459858.763394086
  9
$TDUPDATE
 40
2459858.555085451
  9
$TDUUPDATE
 40
2459858.763418785
  9
$TDINDWG
 40
0.0000000116
  9
$TDUSRTIMER
 40
0.0000000116
  9
$USRTIMER
 70
     1
  9
$ANGBASE
 50
0.0
  9
$ANGDIR
 70
     0
  9
$PDMODE
 70
     0
  9
$PDSIZE
 40
-1.0
  9
$PLINEWID
 40
0.0
  9
$SPLFRAME
 70
     0
  9
$SPLINETYPE
 70
     6
  9
$SPLINESEGS
 70
     8
  9
$HANDSEED
  5
77
  9
$SURFTAB1
 70
     6
  9
$SURFTAB2
 70
     6
  9
$SURFTYPE
 70
     6
  9
$SURFU
 70
     6
  9
$SURFV
 70
     6
  9
$UCSBASE
  2

  9
$UCSNAME
  2

  9
$UCSORG
 10
0.0
 20
0.0
 30
0.0
  9
$UCSXDIR
 10
1.0
 20
0.0
 30
0.0
  9
$UCSYDIR
 10
0.0
 20
1.0
 30
0.0
  9
$UCSORTHOREF
  2

  9
$UCSORTHOVIEW
 70
     0
  9
$UCSORGTOP
 10
0.0
 20
0.0
 30
0.0
  9
$UCSORGBOTTOM
 10
0.0
 20
0.0
 30
0.0
  9
$UCSORGLEFT
 10
0.0
 20
0.0
 30
0.0
  9
$UCSORGRIGHT
 10
0.0
 20
0.0
 30
0.0
  9
$UCSORGFRONT
 10
0.0
 20
0.0
 30
0.0
  9
$UCSORGBACK
 10
0.0
 20
0.0
 30
0.0
  9
$PUCSBASE
  2

  9
$PUCSNAME
  2

  9
$PUCSORG
 10
0.0
 20
0.0
 30
0.0
  9
$PUCSXDIR
 10
1.0
 20
0.0
 30
0.0
  9
$PUCSYDIR
 10
0.0
 20
1.0
 30
0.0
  9
$PUCSORTHOREF
  2

  9
$PUCSORTHOVIEW
 70
     0
  9
$PUCSORGTOP
 10
0.0
 20
0.0
 30
0.0
  9
$PUCSORGBOTTOM
 10
0.0
 20
0.0
 30
0.0
  9
$PUCSORGLEFT
 10
0.0
 20
0.0
 30
0.0
  9
$PUCSORGRIGHT
 10
0.0
 20
0.0
 30
0.0
  9
$PUCSORGFRONT
 10
0.0
 20
0.0
 30
0.0
  9
$PUCSORGBACK
 10
0.0
 20
0.0
 30
0.0
  9
$USERI1
 70
     0
  9
$USERI2
 70
     0
  9
$USERI3
 70
     0
  9
$USERI4
 70
     0
  9
$USERI5
 70
     0
  9
$USERR1
 40
0.0
  9
$USERR2
 40
0.0
  9
$USERR3
 40
0.0
  9
$USERR4
 40
0.0
  9
$USERR5
 40
0.0
  9
$WORLDVIEW
 70
     1
  9
$SHADEDGE
 70
     3
  9
$SHADEDIF
 70
    70
  9
$TILEMODE
 70
     1
  9
$MAXACTVP
 70
    64
  9
$PINSBASE
 10
0.0
 20
0.0
 30
0.0
  9
$PLIMCHECK
 70
     0
  9
$PEXTMIN
 10
1.0000000000E+20
 20
1.0000000000E+20
 30
1.0000000000E+20
  9
$PEXTMAX
 10
-1.0000000000E+20
 20
-1.0000000000E+20
 30
-1.0000000000E+20
  9
$PLIMMIN
 10
0.0
 20
0.0
  9
$PLIMMAX
 10
12.0
 20
9.0
  9
$UNITMODE
 70
     0
  9
$VISRETAIN
 70
     1
  9
$PLINEGEN
 70
     0
  9
$PSLTSCALE
 70
     1
  9
$TREEDEPTH
 70
  3020
  9
$CMLSTYLE
  2
Standard
  9
$CMLJUST
 70
     0
  9
$CMLSCALE
 40
1.0
  9
$PROXYGRAPHICS
 70
     1
  9
$MEASUREMENT
 70
     0
  9
$CELWEIGHT
370
    -1
  9
$ENDCAPS
280
     0
  9
$JOINSTYLE
280
     0
  9
$LWDISPLAY
290
     1
  9
$INSUNITS
 70
     1
  9
$HYPERLINKBASE
  1

  9
$STYLESHEET
  1

  9
$XEDIT
290
     1
  9
$CEPSNTYPE
380
     0
  9
$PSTYLEMODE
290
     1
  9
$FINGERPRINTGUID
  2
{e6fb0772-87f5-4148-a274-082723665417}
  9
$VERSIONGUID
  2
{FAEB1C32-E019-11D5-929B-00C0DF256EC4}
  9
$EXTNAMES
290
     1
  9
$PSVPSCALE
 40
0.0
  9
$OLESTARTUP
290
     0
  0
ENDSEC
  0
SECTION
  2
CLASSES
  0
CLASS
  1
ACDBDICTIONARYWDFLT
  2
AcDbDictionaryWithDefault
  3
ObjectDBX Classes
 90
        0
280
     0
281
     0
  0
CLASS
  1
VISUALSTYLE
  2
AcDbVisualStyle
  3
ObjectDBX Classes
 90
     4095
280
     0
281
     0
  0
CLASS
  1
MATERIAL
  2
AcDbMaterial
  3
ObjectDBX Classes
 90
     1153
280
     0
281
     0
  0
CLASS
  1
SCALE
  2
AcDbScale
  3
ObjectDBX Classes
 90
     1153
280
     0
281
     0
  0
CLASS
  1
TABLESTYLE
  2
AcDbTableStyle
  3
ObjectDBX Classes
 90
     4095
280
     0
281
     0
  0
CLASS
  1
MLEADERSTYLE
  2
AcDbMLeaderStyle
  3
ACDB_MLEADERSTYLE_CLASS
 90
     4095
280
     0
281
     0
  0
CLASS
  1
SUN
  2
AcDbSun
  3
SCENEOE
 90
     1153
280
     0
281
     0
  0
CLASS
  1
ACDBPLACEHOLDER
  2
AcDbPlaceHolder
  3
ObjectDBX Classes
 90
        0
280
     0
281
     0
  0
CLASS
  1
LAYOUT
  2
AcDbLayout
  3
ObjectDBX Classes
 90
        0
280
     0
281
     0
  0
ENDSEC
  0
SECTION
  2
TABLES
  0
TABLE
  2
VPORT
  5
8
330
0
100
AcDbSymbolTable
 70
     1
  0
VPORT
  5
29
330
8
100
AcDbSymbolTableRecord
100
AcDbViewportTableRecord
  2
*Active
 70
     0
 10
0.0
 20
0.0
 11
1.0
 21
1.0
 12
-0.0023525255
 22
2.4214185402
 13
0.0
 23
0.0
 14
0.5
 24
0.5
 15
0.5
 25
0.5
 16
0.0
 26
0.0
 36
1.0
 17
0.0
 27
0.0
 37
0.0
 40
4.939693822
 41
1.2389431856
 42
50.0
 43
0.0
 44
0.0
 50
0.0
 51
0.0
 71
     0
 72
   100
 73
     1
 74
     3
 75
     0
 76
     0
 77
     0
 78
     0
281
     0
 65
     1
110
0.0
120
0.0
130
0.0
111
1.0
121
0.0
131
0.0
112
0.0
122
1.0
132
0.0
 79
     0
146
0.0
  0
ENDTAB
  0
TABLE
  2
LTYPE
  5
5
330
0
100
AcDbSymbolTable
 70
     6
  0
LTYPE
  5
14
330
5
100
AcDbSymbolTableRecord
100
AcDbLinetypeTableRecord
  2
ByBlock
 70
     0
  3

 72
    65
 73
     0
 40
0.0
  0
LTYPE
  5
15
330
5
100
AcDbSymbolTableRecord
100
AcDbLinetypeTableRecord
  2
ByLayer
 70
     0
  3

 72
    65
 73
     0
 40
0.0
  0
LTYPE
  5
16
330
5
100
AcDbSymbolTableRecord
100
AcDbLinetypeTableRecord
  2
Continuous
 70
     0
  3
Solid line
 72
    65
 73
     0
 40
0.0
  0
LTYPE
  5
5E
330
5
100
AcDbSymbolTableRecord
100
AcDbLinetypeTableRecord
  2
HIDDEN
 70
     0
  3
Hidden __ __ __ __ __ __ __ __ __ __ __ __ __ __
 72
    65
 73
     2
 40
0.075
 49
0.05
 74
     0
 49
-0.025
 74
     0
  0
LTYPE
  5
5F
330
5
100
AcDbSymbolTableRecord
100
AcDbLinetypeTableRecord
  2
PHANTOM
 70
     0
  3
Phantom ______  __  __  ______  __  __  ______
 72
    65
 73
     6
 40
0.5
 49
0.25
 74
     0
 49
-0.05
 74
     0
 49
0.05
 74
     0
 49
-0.05
 74
     0
 49
0.05
 74
     0
 49
-0.05
 74
     0
  0
LTYPE
  5
60
330
5
100
AcDbSymbolTableRecord
100
AcDbLinetypeTableRecord
  2
CENTER
 70
     0
  3
Center ____ _ ____ _ ____ _ ____ _ ____ _ ____
 72
    65
 73
     4
 40
0.4
 49
0.25
 74
     0
 49
-0.05
 74
     0
 49
0.05
 74
     0
 49
-0.05
 74
     0
  0
LTYPE
  5
61
330
5
100
AcDbSymbolTableRecord
100
AcDbLinetypeTableRecord
  2
CENTERX2
 70
     0
  3
Center (2x) ________  __  ________  __  _____
 72
    65
 73
     4
 40
0.8
 49
0.5
 74
     0
 49
-0.1
 74
     0
 49
0.1
 74
     0
 49
-0.1
 74
     0
  0
LTYPE
  5
62
330
5
100
AcDbSymbolTableRecord
100
AcDbLinetypeTableRecord
  2
DOT2
 70
     0
  3
Dot (.5x) ........................................
 72
    65
 73
     2
 40
0.025
 49
0.0
 74
     0
 49
-0.025
 74
     0
  0
ENDTAB
  0
TABLE
  2
LAYER
  5
2
330
0
100
AcDbSymbolTable
 70
     1
  0
LAYER
  5
10
330
2
100
AcDbSymbolTableRecord
100
AcDbLayerTableRecord
  2
0
 70
     0
 62
     7
  6
Continuous
370
    -3
390
F
  0
ENDTAB
  0
TABLE
  2
STYLE
  5
3
330
0
100
AcDbSymbolTable
 70
     2
  0
STYLE
  5
11
330
3
100
AcDbSymbolTableRecord
100
AcDbTextStyleTableRecord
  2
Standard
 70
     0
 40
0.0
 41
1.0
 50
0.0
 71
     0
 42
0.1377952756
  3
txt
  4

  0
STYLE
  5
73
330
3
100
AcDbSymbolTableRecord
100
AcDbTextStyleTableRecord
  2
SLDTEXTSTYLE0
 70
     0
 40
0.0
 41
0.7
 50
0.0
 71
     0
 42
0.1377952756
  3
TXT
  4

  0
ENDTAB
  0
TABLE
  2
VIEW
  5
6
330
0
100
AcDbSymbolTable
 70
     0
  0
ENDTAB
  0
TABLE
  2
UCS
  5
7
330
0
100
AcDbSymbolTable
 70
     0
  0
ENDTAB
  0
TABLE
  2
APPID
  5
9
330
0
100
AcDbSymbolTable
 70
     1
  0
APPID
  5
12
330
9
100
AcDbSymbolTableRecord
100
AcDbRegAppTableRecord
  2
ACAD
 70
     0
  0
ENDTAB
  0
TABLE
  2
DIMSTYLE
  5
A
330
0
100
AcDbSymbolTable
 70
     1
100
AcDbDimStyleTable
  0
DIMSTYLE
105
27
330
A
100
AcDbSymbolTableRecord
100
AcDbDimStyleTableRecord
  2
Standard
 70
     0
178
     0
340
11
  0
ENDTAB
  0
TABLE
  2
BLOCK_RECORD
  5
1
330
0
100
AcDbSymbolTable
 70
     1
  0
BLOCK_RECORD
  5
1F
330
1
100
AcDbSymbolTableRecord
100
AcDbBlockTableRecord
  2
*Model_Space
340
22
  0
BLOCK_RECORD
  5
1B
330
1
100
AcDbSymbolTableRecord
100
AcDbBlockTableRecord
  2
*Paper_Space
340
1E
  0
BLOCK_RECORD
  5
23
330
1
100
AcDbSymbolTableRecord
100
AcDbBlockTableRecord
  2
*Paper_Space0
340
26
  0
ENDTAB
  0
ENDSEC
  0
SECTION
  2
BLOCKS
  0
BLOCK
  5
20
330
1F
100
AcDbEntity
  8
0
100
AcDbBlockBegin
  2
*Model_Space
 70
     0
 10
0.0
 20
0.0
 30
0.0
  3
*Model_Space
  1

  0
ENDBLK
  5
21
330
1F
100
AcDbEntity
  8
0
100
AcDbBlockEnd
  0
BLOCK
  5
1C
330
1B
100
AcDbEntity
 67
     1
  8
0
100
AcDbBlockBegin
  2
*Paper_Space
 70
     0
 10
0.0
 20
0.0
 30
0.0
  3
*Paper_Space
  1

  0
ENDBLK
  5
1D
330
1B
100
AcDbEntity
 67
     1
  8
0
100
AcDbBlockEnd
  0
BLOCK
  5
24
330
23
100
AcDbEntity
  8
0
100
AcDbBlockBegin
  2
*Paper_Space0
 70
     0
 10
0.0
 20
0.0
 30
0.0
  3
*Paper_Space0
  1

  0
ENDBLK
  5
25
330
23
100
AcDbEntity
  8
0
100
AcDbBlockEnd
  0
ENDSEC
  0
SECTION
  2
ENTITIES
  0
SPLINE
  5
63
330
1F
100
AcDbEntity
  8
0
  6
Continuous
 62
     7
370
    25
100
AcDbSpline
210
0.0
220
0.0
230
1.0
 70
    11
 71
     3
 72
   119
 73
   115
 74
     0
 42
0.00000001
 43
0.00000001
 40
0.0
 40
0.0
 40
0.0
 40
0.0
 40
0.0002710283195858
 40
0.0002710283195858
 40
0.0002710283195858
 40
0.0005420566391715
 40
0.0005420566391715
 40
0.0005420566391715
 40
0.0008130849587573
 40
0.0008130849587573
 40
0.0008130849587573
 40
0.001084113278343
 40
0.001084113278343
 40
0.001084113278343
 40
0.0013551415979288
 40
0.0013551415979288
 40
0.0013551415979288
 40
0.0016261699175145
 40
0.0016261699175145
 40
0.0016261699175145
 40
0.0018971982371003
 40
0.0018971982371003
 40
0.0018971982371003
 40
0.002168226556686
 40
0.002168226556686
 40
0.002168226556686
 40
0.0024392548762717
 40
0.0024392548762717
 40
0.0024392548762717
 40
0.0027102831958575
 40
0.0027102831958575
 40
0.0027102831958575
 40
0.0029813115154432
 40
0.0029813115154432
 40
0.0029813115154432
 40
0.003252339835029
 40
0.003252339835029
 40
0.003252339835029
 40
0.0035233681546147
 40
0.0035233681546147
 40
0.0035233681546147
 40
0.0037943964742005
 40
0.0037943964742005
 40
0.0037943964742005
 40
0.0040654247937862
 40
0.0040654247937862
 40
0.0040654247937862
 40
0.0043364531133719
 40
0.0043364531133719
 40
0.0043364531133719
 40
0.0046074814329577
 40
0.0046074814329577
 40
0.0046074814329577
 40
0.0048785097525434
 40
0.0048785097525434
 40
0.0048785097525434
 40
0.0051495380721292
 40
0.0051495380721292
 40
0.0051495380721292
 40
0.0054205663917149
 40
0.0054205663917149
 40
0.0054205663917149
 40
0.0056915947113007
 40
0.0056915947113007
 40
0.0056915947113007
 40
0.0059626230308864
 40
0.0059626230308864
 40
0.0059626230308864
 40
0.0062336513504721
 40
0.0062336513504721
 40
0.0062336513504721
 40
0.0065046796700579
 40
0.0065046796700579
 40
0.0065046796700579
 40
0.0067757079896436
 40
0.0067757079896436
 40
0.0067757079896436
 40
0.0070467363092294
 40
0.0070467363092294
 40
0.0070467363092294
 40
0.0073177646288151
 40
0.0073177646288151
 40
0.0073177646288151
 40
0.0075887929484009
 40
0.0075887929484009
 40
0.0075887929484009
 40
0.0078598212679866
 40
0.0078598212679866
 40
0.0078598212679866
 40
0.0081308495875724
 40
0.0081308495875724
 40
0.0081308495875724
 40
0.0084018779071581
 40
0.0084018779071581
 40
0.0084018779071581
 40
0.0086729062267439
 40
0.0086729062267439
 40
0.0086729062267439
 40
0.0089439345463296
 40
0.0089439345463296
 40
0.0089439345463296
 40
0.0092149628659153
 40
0.0092149628659153
 40
0.0092149628659153
 40
0.0094859911855011
 40
0.0094859911855011
 40
0.0094859911855011
 40
0.0097570195050868
 40
0.0097570195050868
 40
0.0097570195050868
 40
0.0099967097025131
 40
0.0099967097025131
 40
0.0099967097025131
 40
0.0102418141582836
 40
0.0102418141582836
 40
0.0102418141582836
 40
0.0102418141582836
 10
0.0080424068872134
 20
4.630051946585274
 30
0.0
 10
0.0080424068872134
 20
4.633608748679575
 30
0.0
 10
0.0083397973279228
 20
4.637177749816838
 30
0.0
 10
0.0089284580175029
 20
4.640685501194939
 30
0.0
 10
0.0095171187070831
 20
4.64419325257304
 30
0.0
 10
0.0104010875969588
 20
4.647663815811731
 30
0.0
 10
0.011562172914816
 20
4.6510257679266
 30
0.0
 10
0.0127232582326733
 20
4.654387720041471
 30
0.0
 10
0.0141694245091777
 20
4.657664122533949
 30
0.0
 10
0.0158709101453276
 20
4.660787548180255
 30
0.0
 10
0.0175723957814776
 20
4.663910973826561
 30
0.0
 10
0.0195408722146064
 20
4.666902847942266
 30
0.0
 10
0.0217358288843461
 20
4.669701598798629
 30
0.0
 10
0.0239307855540858
 20
4.672500349654992
 30
0.0
 10
0.0263672788903443
 20
4.675125175442427
 30
0.0
 10
0.028995166707661
 20
4.677522058159129
 30
0.0
 10
0.0316230545249775
 20
4.67991894087583
 30
0.0
 10
0.0344603629690494
 20
4.682104322074892
 30
0.0
 10
0.0374487012188983
 20
4.684033227371301
 30
0.0
 10
0.0404370394687472
 20
4.68596213266771
 30
0.0
 10
0.043596906200279
 20
4.687647793496872
 30
0.0
 10
0.0468632724551439
 20
4.689055519545187
 30
0.0
 10
0.0501296387100087
 20
4.690463245593502
 30
0.0
 10
0.0535249103129994
 20
4.691602693237731
 30
0.0
 10
0.056979213755384
 20
4.692450413041649
 30
0.0
 10
0.0604335171977686
 20
4.693298132845567
 30
0.0
 10
0.063970547470149
 20
4.693859939791304
 30
0.0
 10
0.0675175137196802
 20
4.69412427208731
 30
0.0
 10
0.0710644799692114
 20
4.694388604383314
 30
0.0
 10
0.0746457128122824
 20
4.694357275231982
 30
0.0
 10
0.0781875117225167
 20
4.694030929376351
 30
0.0
 10
0.081729310632751
 20
4.693704583520719
 30
0.0
 10
0.0852559707808804
 20
4.693080982372861
 30
0.0
 10
0.0886949147276102
 20
4.692172959427515
 30
0.0
 10
0.0921338586743399
 20
4.691264936482168
 30
0.0
 10
0.0955086760509395
 20
4.690066263104381
 30
0.0
 10
0.098749914289542
 20
4.688601607575376
 30
0.0
 10
0.1019911525281446
 20
4.687136952046371
 30
0.0
 10
0.1051210450864887
 20
4.685396267478382
 30
0.0
 10
0.1080751798642838
 20
4.683415376554417
 30
0.0
 10
0.1110293146420789
 20
4.681434485630452
 30
0.0
 10
0.113827955694572
 20
4.679199800316741
 30
0.0
 10
0.1164135079622556
 20
4.67675730965983
 30
0.0
 10
0.1189990602299391
 20
4.674314819002919
 30
0.0
 10
0.1213892594554037
 20
4.671647768599457
 30
0.0
 10
0.1235349161698877
 20
4.668811045419164
 30
0.0
 10
0.1256805728843718
 20
4.665974322238871
 30
0.0
 10
0.127596405341941
 20
4.662948467618017
 30
0.0
 10
0.129242986376935
 20
4.659795752592325
 30
0.0
 10
0.130889567411929
 20
4.656643037566633
 30
0.0
 10
0.1322781918404519
 20
4.65334183590837
 30
0.0
 10
0.133380282254721
 20
4.649960085199521
 30
0.0
 10
0.1344823726689901
 20
4.646578334490672
 30
0.0
 10
0.1353054889207799
 20
4.643092837420231
 30
0.0
 10
0.135832691563904
 20
4.63957532430567
 30
0.0
 10
0.1363598942070282
 20
4.636057811191109
 30
0.0
 10
0.1365947996179522
 20
4.63248415345149
 30
0.0
 10
0.1365325735250183
 20
4.628927895720198
 30
0.0
 10
0.1364703474320844
 20
4.625371637988905
 30
0.0
 10
0.1361105629918748
 20
4.6218083859141
 30
0.0
 10
0.1354606244430378
 20
4.618311469984205
 30
0.0
 10
0.1348106858942008
 20
4.614814554054308
 30
0.0
 10
0.1338661349463565
 20
4.61135998697594
 30
0.0
 10
0.1326464101295018
 20
4.608018862538095
 30
0.0
 10
0.131426685312647
 20
4.604677738100248
 30
0.0
 10
0.1299234198551433
 20
4.601427137670129
 30
0.0
 10
0.1281675504372783
 20
4.598333957474048
 30
0.0
 10
0.1264116810194133
 20
4.595240777277966
 30
0.0
 10
0.1243911631552151
 20
4.592283799470733
 30
0.0
 10
0.1221475783996034
 20
4.5895238776272
 30
0.0
 10
0.1199039936439917
 20
4.586763955783667
 30
0.0
 10
0.1174219519999425
 20
4.584182158063236
 30
0.0
 10
0.1147525330212489
 20
4.581831616965061
 30
0.0
 10
0.1120831140425553
 20
4.579481075866885
 30
0.0
 10
0.1092080066981608
 20
4.577345667720833
 30
0.0
 10
0.1061863796972659
 20
4.575469338483868
 30
0.0
 10
0.103164752696371
 20
4.573593009246903
 30
0.0
 10
0.099975879016992
 20
4.571962888132085
 30
0.0
 10
0.096685384570377
 20
4.570612522465008
 30
0.0
 10
0.0933948901237621
 20
4.56926215679793
 30
0.0
 10
0.0899802035764169
 20
4.568182283668627
 30
0.0
 10
0.0865115979898759
 20
4.567395126490521
 30
0.0
 10
0.0830429924033349
 20
4.566607969312417
 30
0.0
 10
0.0794966746806262
 20
4.566108128536154
 30
0.0
 10
0.0759456268070925
 20
4.565905890711065
 30
0.0
 10
0.0723945789335589
 20
4.565703652885976
 30
0.0
 10
0.0688144422946795
 20
4.565797630750217
 30
0.0
 10
0.06527889485733
 20
4.566185890272027
 30
0.0
 10
0.0617433474199805
 20
4.566574149793837
 30
0.0
 10
0.0582281368957624
 20
4.567259354261451
 30
0.0
 10
0.0548056050946922
 20
4.568227402405238
 30
0.0
 10
0.051383073293622
 20
4.569195450549024
 30
0.0
 10
0.0480297431644755
 20
4.570452982750191
 30
0.0
 10
0.04481462507504
 20
4.571974119433402
 30
0.0
 10
0.0415995069856045
 20
4.573495256116613
 30
0.0
 10
0.0385005466507877
 20
4.575290431605318
 30
0.0
 10
0.0355815195964782
 20
4.577322701812311
 30
0.0
 10
0.0326624925421687
 20
4.579354972019305
 30
0.0
 10
0.0299033755365421
 20
4.581638277417467
 30
0.0
 10
0.0273609502479677
 20
4.584125628375824
 30
0.0
 10
0.0248185249593932
 20
4.586612979334181
 30
0.0
 10
0.0224753514772425
 20
4.589321437977868
 30
0.0
 10
0.0203796514968349
 20
4.592195265169984
 30
0.0
 10
0.0182839515164273
 20
4.5950690923621
 30
0.0
 10
0.016421349464751
 20
4.598128001283448
 30
0.0
 10
0.0148301770442265
 20
4.6013090406523
 30
0.0
 10
0.0132390046237019
 20
4.604490080021152
 30
0.0
 10
0.0119083470967622
 20
4.607815070357682
 30
0.0
 10
0.0108655889325158
 20
4.611215584517176
 30
0.0
 10
0.0099427079784438
 20
4.614225169921975
 30
0.0
 10
0.0092397214754244
 20
4.617311040968868
 30
0.0
 10
0.0087679741274828
 20
4.620423398275457
 30
0.0
 10
0.0082856301905568
 20
4.623605666671729
 30
0.0
 10
0.0080424068872134
 20
4.626833330761755
 30
0.0
 10
0.0080424068872134
 20
4.630051946585274
 30
0.0
  0
CIRCLE
  5
64
330
1F
100
AcDbEntity
  8
0
  6
Continuous
 62
     7
370
    25
100
AcDbCircle
 10
0.9683524825
 20
4.595757798
 30
0.0
 40
0.0642500000000019
  0
SPLINE
  5
65
330
1F
100
AcDbEntity
  8
0
  6
Continuous
 62
     7
370
    25
100
AcDbSpline
210
0.0
220
0.0
230
1.0
 70
    24
 71
     3
 72
     8
 73
     4
 74
     0
 42
0.00000001
 43
0.00000001
 40
0.0
 40
0.0
 40
0.0
 40
0.0
 40
0.0550778074801858
 40
0.0550778074801858
 40
0.0550778074801858
 40
0.0550778074801858
 10
2.997647474516268
 20
1.0
 30
0.0
 10
2.897520745424027
 20
1.0
 30
0.0
 10
2.797484315634209
 20
1.0
 30
0.0
 10
2.697499999997433
 20
1.0
 30
0.0
  0
LINE
  5
66
330
1F
100
AcDbEntity
  8
0
  6
Continuous
 62
     7
370
    25
100
AcDbLine
 10
2.6975
 20
1.0
 30
0.0
 11
2.6975
 21
0.5
 31
0.0
  0
LINE
  5
67
330
1F
100
AcDbEntity
  8
0
  6
Continuous
 62
     7
370
    25
100
AcDbLine
 10
2.6975
 20
0.5
 30
0.0
 11
2.5025
 21
0.5
 31
0.0
  0
LINE
  5
68
330
1F
100
AcDbEntity
  8
0
  6
Continuous
 62
     7
370
    25
100
AcDbLine
 10
2.5025000002
 20
1.0
 30
0.0
 11
2.5025
 21
0.5
 31
0.0
  0
SPLINE
  5
69
330
1F
100
AcDbEntity
  8
0
  6
Continuous
 62
     7
370
    25
100
AcDbSpline
210
0.0
220
0.0
230
1.0
 70
     8
 71
     3
 72
    20
 73
    16
 74
     0
 42
0.00000001
 43
0.00000001
 40
0.0
 40
0.0
 40
0.0
 40
0.0
 40
0.0305688997608368
 40
0.0913006070779101
 40
0.1520323143949833
 40
0.1520323143949833
 40
0.188129875370593
 40
0.2242274363462027
 40
0.2603249973218122
 40
0.296422558297422
 40
0.296422558297422
 40
0.4495932900047391
 40
0.6027640217120561
 40
0.7559347534193732
 40
0.9091054851266902
 40
0.9091054851266902
 40
0.9091054851266902
 40
0.9091054851266902
 10
2.502500000162586
 20
1.0
 30
0.0
 10
2.447037742147652
 20
1.0
 30
0.0
 10
2.281417948103046
 20
1.000000000000001
 30
0.0
 10
2.005709357906736
 20
0.9999999999999996
 30
0.0
 10
1.78536539907088
 20
1.0
 30
0.0
 10
1.609693321006846
 20
1.0
 30
0.0
 10
1.478922750583949
 20
1.025997159856594
 30
0.0
 10
1.31257618829592
 20
1.137100117171609
 30
0.0
 10
1.201287236871041
 20
1.303427378732159
 30
0.0
 10
1.175183163710819
 20
1.434382905175125
 30
0.0
 10
1.175183163710819
 20
1.778429294256904
 30
0.0
 10
1.175183163710819
 20
2.335540713856125
 30
0.0
 10
1.175183163710818
 20
3.171534251608549
 30
0.0
 10
1.175183163710819
 20
4.007471784992036
 30
0.0
 10
1.175183163710819
 20
4.564467666116816
 30
0.0
 10
1.175183163710819
 20
4.842837080425475
 30
0.0
  0
LINE
  5
6A
330
1F
100
AcDbEntity
  8
0
  6
Continuous
 62
     7
370
    25
100
AcDbLine
 10
1.1751831637
 20
4.8428370804
 30
0.0
 11
-0.1211742913
 21
4.8428370804
 31
0.0
  0
SPLINE
  5
6B
330
1F
100
AcDbEntity
  8
0
  6
Continuous
 62
     7
370
    25
100
AcDbSpline
210
0.0
220
0.0
230
1.0
 70
     8
 71
     3
 72
    21
 73
    17
 74
     0
 42
0.00000001
 43
0.00000001
 40
0.0
 40
0.0
 40
0.0
 40
0.0
 40
0.1274963468095471
 40
0.254992693619094
 40
0.3824890404286412
 40
0.5099853872381881
 40
0.5099853872381881
 40
0.5249837635979868
 40
0.5399821399577854
 40
0.5699788926773828
 40
0.5999756453969801
 40
0.6299723981165775
 40
0.6299723981165775
 40
0.7224792985874331
 40
0.8149861990582887
 40
0.8915557616515859
 40
0.8915557616515859
 40
0.8915557616515859
 40
0.8915557616515859
 10
-0.1211742913236131
 20
4.842837080425474
 30
0.0
 10
-0.1211742913236131
 20
4.566422899174953
 30
0.0
 10
-0.1211742913236128
 20
4.012282489411364
 30
0.0
 10
-0.1211742913236136
 20
3.175853928657959
 30
0.0
 10
-0.1211742913236129
 20
2.336824666397734
 30
0.0
 10
-0.121174291323613
 20
1.778451134822767
 30
0.0
 10
-0.1211742913236131
 20
1.467243650328872
 30
0.0
 10
-0.1276823792299061
 20
1.401536406872631
 30
0.0
 10
-0.1661344371355657
 20
1.274897448213003
 30
0.0
 10
-0.2599380786155065
 20
1.13562593524222
 30
0.0
 10
-0.4269541625993841
 20
1.025389446145814
 30
0.0
 10
-0.5565665950883771
 20
1.0
 30
0.0
 10
-0.8204177821491929
 20
1.0
 30
0.0
 10
-1.216967692123178
 20
1.0
 30
0.0
 10
-1.776777025481545
 20
1.0
 30
0.0
 10
-2.138498179192685
 20
0.9999999999999999
 30
0.0
 10
-2.302499999929833
 20
0.9999999999999997
 30
0.0
  0
LINE
  5
6C
330
1F
100
AcDbEntity
  8
0
  6
Continuous
 62
     7
370
    25
100
AcDbLine
 10
-2.3024999999
 20
1.0
 30
0.0
 11
-2.3025
 21
0.5
 31
0.0
  0
LINE
  5
6D
330
1F
100
AcDbEntity
  8
0
  6
Continuous
 62
     7
370
    25
100
AcDbLine
 10
-2.3025
 20
0.5
 30
0.0
 11
-2.4975
 21
0.5
 31
0.0
  0
LINE
  5
6E
330
1F
100
AcDbEntity
  8
0
  6
Continuous
 62
     7
370
    25
100
AcDbLine
 10
-2.4975
 20
0.5
 30
0.0
 11
-2.4975
 21
1.0
 31
0.0
  0
SPLINE
  5
6F
330
1F
100
AcDbEntity
  8
0
  6
Continuous
 62
     7
370
    25
100
AcDbSpline
210
0.0
220
0.0
230
1.0
 70
    24
 71
     3
 72
     8
 73
     4
 74
     0
 42
0.00000001
 43
0.00000001
 40
0.0
 40
0.0
 40
0.0
 40
0.0
 40
0.0781135723830137
 40
0.0781135723830137
 40
0.0781135723830137
 40
0.0781135723830137
 10
-2.497499999953773
 20
0.9999999999999997
 30
0.0
 10
-2.665022383552871
 20
1.0
 30
0.0
 10
-2.832972618363932
 20
1.0
 30
0.0
 10
-3.002352525483731
 20
1.0
 30
0.0
  0
LINE
  5
70
330
1F
100
AcDbEntity
  8
0
  6
Continuous
 62
     7
370
    25
100
AcDbLine
 10
-3.0023525255
 20
1.0
 30
0.0
 11
-3.0023525255
 21
0.0
 31
0.0
  0
LINE
  5
71
330
1F
100
AcDbEntity
  8
0
  6
Continuous
 62
     7
370
    25
100
AcDbLine
 10
-3.0023525255
 20
0.0
 30
0.0
 11
2.9976474745
 21
0.0
 31
0.0
  0
LINE
  5
72
330
1F
100
AcDbEntity
  8
0
  6
Continuous
 62
     7
370
    25
100
AcDbLine
 10
2.9976474745
 20
0.0
 30
0.0
 11
2.9976474745
 21
1.0
 31
0.0
  0
MTEXT
  5
74
330
1F
100
AcDbEntity
  8
0
  6
Continuous
 62
     7
100
AcDbMText
 10
-3.0023525255
 20
-0.0401404091
 30
0.0
 40
0.1903
 41
0.0
 71
     1
 72
     1
  1
SOLIDWORKS Educational Product.
  7
SLDTEXTSTYLE0
 73
     1
 44
1.0
  0
MTEXT
  5
75
330
1F
100
AcDbEntity
  8
0
  6
Continuous
 62
     7
100
AcDbMText
 10
-3.0023525255
 20
-0.3255904091
 30
0.0
 40
0.1903
 41
0.0
 71
     1
 72
     1
  1
For Instructional Use Only.
  7
SLDTEXTSTYLE0
 73
     1
 44
1.0
  0
ENDSEC
  0
SECTION
  2
OBJECTS
  0
DICTIONARY
  5
C
330
0
100
AcDbDictionary
281
     1
  3
ACAD_GROUP
350
D
  3
ACAD_LAYOUT
350
1A
  3
ACAD_MLINESTYLE
350
17
  3
ACAD_PLOTSETTINGS
350
19
  3
ACAD_PLOTSTYLENAME
350
E
  3
ACAD_SCALELIST
350
47
  3
DWGPROPS
350
76
  0
DICTIONARY
  5
D
102
{ACAD_REACTORS
330
C
102
}
330
C
100
AcDbDictionary
281
     1
  0
DICTIONARY
  5
1A
102
{ACAD_REACTORS
330
C
102
}
330
C
100
AcDbDictionary
281
     1
  3
Layout1
350
1E
  3
Layout2
350
26
  3
Model
350
22
  0
DICTIONARY
  5
17
102
{ACAD_REACTORS
330
C
102
}
330
C
100
AcDbDictionary
281
     1
  3
Standard
350
18
  0
DICTIONARY
  5
19
102
{ACAD_REACTORS
330
C
102
}
330
C
100
AcDbDictionary
281
     1
  0
ACDBDICTIONARYWDFLT
  5
E
102
{ACAD_REACTORS
330
C
102
}
330
C
100
AcDbDictionary
281
     1
  3
Normal
350
F
100
AcDbDictionaryWithDefault
340
F
  0
DICTIONARY
  5
47
102
{ACAD_REACTORS
330
C
102
}
330
C
100
AcDbDictionary
281
     1
  3
A0
350
48
  3
A1
350
49
  3
A2
350
4A
  3
A3
350
4B
  3
A4
350
4C
  3
A5
350
4D
  3
A6
350
4E
  3
A7
350
4F
  3
A8
350
50
  3
A9
350
51
  3
B1
350
52
  3
B2
350
53
  3
B3
350
54
  3
B4
350
55
  3
B5
350
56
  3
B6
350
57
  3
B7
350
58
  0
XRECORD
  5
76
102
{ACAD_REACTORS
330
C
102
}
330
C
100
AcDbXrecord
280
     1
  1
DWGPROPS COOKIE
  2

  3

  4

  6

  7

  8
deshe
  9

300
=
301
=
302
=
303
=
304
=
305
=
306
=
307
=
308
=
309
=
 40
0.0
 41
2459858.763394086
 42
2459858.763418785
  1

 90
        0
  0
LAYOUT
  5
1E
102
{ACAD_REACTORS
330
1A
102
}
330
1A
100
AcDbPlotSettings
  1

  2
none_device
  4

  6

 40
0.0
 41
0.0
 42
0.0
 43
0.0
 44
0.0
 45
0.0
 46
0.0
 47
0.0
 48
0.0
 49
0.0
140
0.0
141
0.0
142
1.0
143
1.0
 70
   688
 72
     0
 73
     0
 74
     5
  7

 75
    16
147
1.0
148
0.0
149
0.0
100
AcDbLayout
  1
Layout1
 70
     1
 71
     1
 10
0.0
 20
0.0
 11
12.0
 21
9.0
 12
0.0
 22
0.0
 32
0.0
 14
1.0000000000E+20
 24
1.0000000000E+20
 34
1.0000000000E+20
 15
-1.0000000000E+20
 25
-1.0000000000E+20
 35
-1.0000000000E+20
146
0.0
 13
0.0
 23
0.0
 33
0.0
 16
1.0
 26
0.0
 36
0.0
 17
0.0
 27
1.0
 37
0.0
 76
     0
330
1B
  0
LAYOUT
  5
26
102
{ACAD_REACTORS
330
1A
102
}
330
1A
100
AcDbPlotSettings
  1

  2
none_device
  4

  6

 40
0.0
 41
0.0
 42
0.0
 43
0.0
 44
0.0
 45
0.0
 46
0.0
 47
0.0
 48
0.0
 49
0.0
140
0.0
141
0.0
142
1.0
143
1.0
 70
   688
 72
     0
 73
     0
 74
     5
  7

 75
    16
147
1.0
148
0.0
149
0.0
100
AcDbLayout
  1
Layout2
 70
     1
 71
     2
 10
0.0
 20
0.0
 11
0.0
 21
0.0
 12
0.0
 22
0.0
 32
0.0
 14
0.0
 24
0.0
 34
0.0
 15
0.0
 25
0.0
 35
0.0
146
0.0
 13
0.0
 23
0.0
 33
0.0
 16
1.0
 26
0.0
 36
0.0
 17
0.0
 27
1.0
 37
0.0
 76
     0
330
23
  0
LAYOUT
  5
22
102
{ACAD_REACTORS
330
1A
102
}
330
1A
100
AcDbPlotSettings
  1

  2
none_device
  4
ANSI_A_(11.00_x_8.50_Inches)
  6

 40
6.35
 41
19.05
 42
6.35000508
 43
19.05000254
 44
279.4
 45
215.9
 46
133.453827331
 47
-17.97050127
 48
0.0
 49
0.0
140
0.0
141
0.0
142
1.7376178179
143
1.0
 70
  1696
 72
     0
 73
     0
 74
     0
  7

 75
     0
147
0.5913241897
148
-39.4088153714
149
0.0
100
AcDbLayout
  1
Model
 70
     1
 71
     0
 10
0.0
 20
0.0
 11
12.0
 21
9.0
 12
0.0
 22
0.0
 32
0.0
 14
-3.0023525255
 24
0.0
 34
0.0
 15
2.9976474745
 25
4.8428370804
 35
0.0
146
0.0
 13
0.0
 23
0.0
 33
0.0
 16
1.0
 26
0.0
 36
0.0
 17
0.0
 27
1.0
 37
0.0
 76
     0
330
1F
331
29
  0
MLINESTYLE
  5
18
102
{ACAD_REACTORS
330
17
102
}
330
17
100
AcDbMlineStyle
  2
Standard
 70
     0
  3

 62
   256
 51
90.0
 52
90.0
 71
     2
 49
0.5
 62
   256
  6
BYLAYER
 49
-0.5
 62
   256
  6
BYLAYER
  0
ACDBPLACEHOLDER
  5
F
102
{ACAD_REACTORS
330
E
102
}
330
E
  0
SCALE
  5
48
102
{ACAD_REACTORS
330
47
102
}
330
47
100
AcDbScale
 70
     0
300
1:1
140
1.0
141
1.0
290
     1
  0
SCALE
  5
49
102
{ACAD_REACTORS
330
47
102
}
330
47
100
AcDbScale
 70
     0
300
1/128" = 1'-0"
140
0.0078125
141
12.0
290
     0
  0
SCALE
  5
4A
102
{ACAD_REACTORS
330
47
102
}
330
47
100
AcDbScale
 70
     0
300
1/64" = 1'-0"
140
0.015625
141
12.0
290
     0
  0
SCALE
  5
4B
102
{ACAD_REACTORS
330
47
102
}
330
47
100
AcDbScale
 70
     0
300
1/32" = 1'-0"
140
0.03125
141
12.0
290
     0
  0
SCALE
  5
4C
102
{ACAD_REACTORS
330
47
102
}
330
47
100
AcDbScale
 70
     0
300
1/16" = 1'-0"
140
0.0625
141
12.0
290
     0
  0
SCALE
  5
4D
102
{ACAD_REACTORS
330
47
102
}
330
47
100
AcDbScale
 70
     0
300
3/32" = 1'-0"
140
0.09375
141
12.0
290
     0
  0
SCALE
  5
4E
102
{ACAD_REACTORS
330
47
102
}
330
47
100
AcDbScale
 70
     0
300
1/8" = 1'-0"
140
0.125
141
12.0
290
     0
  0
SCALE
  5
4F
102
{ACAD_REACTORS
330
47
102
}
330
47
100
AcDbScale
 70
     0
300
3/16" = 1'-0"
140
0.1875
141
12.0
290
     0
  0
SCALE
  5
50
102
{ACAD_REACTORS
330
47
102
}
330
47
100
AcDbScale
 70
     0
300
1/4" = 1'-0"
140
0.25
141
12.0
290
     0
  0
SCALE
  5
51
102
{ACAD_REACTORS
330
47
102
}
330
47
100
AcDbScale
 70
     0
300
3/8" = 1'-0"
140
0.375
141
12.0
290
     0
  0
SCALE
  5
52
102
{ACAD_REACTORS
330
47
102
}
330
47
100
AcDbScale
 70
     0
300
1/2" = 1'-0"
140
0.5
141
12.0
290
     0
  0
SCALE
  5
53
102
{ACAD_REACTORS
330
47
102
}
330
47
100
AcDbScale
 70
     0
300
3/4" = 1'-0"
140
0.75
141
12.0
290
     0
  0
SCALE
  5
54
102
{ACAD_REACTORS
330
47
102
}
330
47
100
AcDbScale
 70
     0
300
1" = 1'-0"
140
1.0
141
12.0
290
     0
  0
SCALE
  5
55
102
{ACAD_REACTORS
330
47
102
}
330
47
100
AcDbScale
 70
     0
300
1-1/2" = 1'-0"
140
1.5
141
12.0
290
     0
  0
SCALE
  5
56
102
{ACAD_REACTORS
330
47
102
}
330
47
100
AcDbScale
 70
     0
300
3" = 1'-0"
140
3.0
141
12.0
290
     0
  0
SCALE
  5
57
102
{ACAD_REACTORS
330
47
102
}
330
47
100
AcDbScale
 70
     0
300
6" = 1'-0"
140
6.0
141
12.0
290
     0
  0
SCALE
  5
58
102
{ACAD_REACTORS
330
47
102
}
330
47
100
AcDbScale
 70
     0
300
1'-0" = 1'-0"
140
12.0
141
12.0
290
     0
  0
ENDSEC
  0
EOF
