  0
SECTION
  2
HEADER
  9
$ACADVER
  1
AC1015
  9
$ACADMAINTVER
 70
     6
  9
$DWGCODEPAGE
  3
ANSI_1252
  9
$INSBASE
 10
0.0
 20
0.0
 30
0.0
  9
$EXTMIN
 10
-3.0038492313
 20
0.0
 30
0.0
  9
$EXTMAX
 10
2.9961507687
 20
4.8213620823
 30
0.0
  9
$LIMMIN
 10
0.0
 20
0.0
  9
$LIMMAX
 10
12.0
 20
9.0
  9
$ORTHOMODE
 70
     0
  9
$REGENMODE
 70
     1
  9
$FILLMODE
 70
     1
  9
$QTEXTMODE
 70
     0
  9
$MIRRTEXT
 70
     1
  9
$LTSCALE
 40
1.0
  9
$ATTMODE
 70
     1
  9
$TEXTSIZE
 40
0.1377952756
  9
$TRACEWID
 40
0.05
  9
$TEXTSTYLE
  7
Standard
  9
$CLAYER
  8
0
  9
$CELTYPE
  6
ByLayer
  9
$CECOLOR
 62
   256
  9
$CELTSCALE
 40
1.0
  9
$DISPSILH
 70
     0
  9
$DIMSCALE
 40
1.0
  9
$DIMASZ
 40
0.13
  9
$DIMEXO
 40
0.0
  9
$DIMDLI
 40
0.38
  9
$DIMRND
 40
0.0
  9
$DIMDLE
 40
0.0
  9
$DIMEXE
 40
0.125
  9
$DIMTP
 40
0.0
  9
$DIMTM
 40
0.0
  9
$DIMTXT
 40
0.1377952756
  9
$DIMCEN
 40
0.09
  9
$DIMTSZ
 40
0.0
  9
$DIMTOL
 70
     0
  9
$DIMLIM
 70
     0
  9
$DIMTIH
 70
     1
  9
$DIMTOH
 70
     1
  9
$DIMSE1
 70
     0
  9
$DIMSE2
 70
     0
  9
$DIMTAD
 70
     1
  9
$DIMZIN
 70
     1
  9
$DIMBLK
  1

  9
$DIMASO
 70
     1
  9
$DIMSHO
 70
     1
  9
$DIMPOST
  1

  9
$DIMAPOST
  1

  9
$DIMALT
 70
     0
  9
$DIMALTD
 70
     2
  9
$DIMALTF
 40
25.4
  9
$DIMLFAC
 40
1.0
  9
$DIMTOFL
 70
     0
  9
$DIMTVP
 40
0.0
  9
$DIMTIX
 70
     0
  9
$DIMSOXD
 70
     0
  9
$DIMSAH
 70
     0
  9
$DIMBLK1
  1

  9
$DIMBLK2
  1

  9
$DIMSTYLE
  2
Standard
  9
$DIMCLRD
 70
     0
  9
$DIMCLRE
 70
     0
  9
$DIMCLRT
 70
     0
  9
$DIMTFAC
 40
1.0
  9
$DIMGAP
 40
0.06
  9
$DIMJUST
 70
     0
  9
$DIMSD1
 70
     0
  9
$DIMSD2
 70
     0
  9
$DIMTOLJ
 70
     1
  9
$DIMTZIN
 70
     1
  9
$DIMALTZ
 70
     0
  9
$DIMALTTZ
 70
     0
  9
$DIMUPT
 70
     0
  9
$DIMDEC
 70
     2
  9
$DIMTDEC
 70
     2
  9
$DIMALTU
 70
     2
  9
$DIMALTTD
 70
     2
  9
$DIMTXSTY
  7
Standard
  9
$DIMAUNIT
 70
     0
  9
$DIMADEC
 70
     2
  9
$DIMALTRND
 40
0.0
  9
$DIMAZIN
 70
     0
  9
$DIMDSEP
 70
    46
  9
$DIMATFIT
 70
     3
  9
$DIMFRAC
 70
     0
  9
$DIMLDRBLK
  1

  9
$DIMLUNIT
 70
     2
  9
$DIMLWD
 70
    -2
  9
$DIMLWE
 70
    -2
  9
$DIMTMOVE
 70
     0
  9
$LUNITS
 70
     2
  9
$LUPREC
 70
     2
  9
$SKETCHINC
 40
0.1
  9
$FILLETRAD
 40
0.0
  9
$AUNITS
 70
     0
  9
$AUPREC
 70
     2
  9
$MENU
  1
.
  9
$ELEVATION
 40
0.0
  9
$PELEVATION
 40
0.0
  9
$THICKNESS
 40
0.0
  9
$LIMCHECK
 70
     0
  9
$CHAMFERA
 40
0.0
  9
$CHAMFERB
 40
0.0
  9
$CHAMFERC
 40
0.0
  9
$CHAMFERD
 40
0.0
  9
$SKPOLY
 70
     0
  9
$TDCREATE
 40
2459858.555344201
  9
$TDUCREATE
 40
2459858.763677535
  9
$TDUPDATE
 40
2459858.55536919
  9
$TDUUPDATE
 40
2459858.763702523
  9
$TDINDWG
 40
0.0000000116
  9
$TDUSRTIMER
 40
0.0000000116
  9
$USRTIMER
 70
     1
  9
$ANGBASE
 50
0.0
  9
$ANGDIR
 70
     0
  9
$PDMODE
 70
     0
  9
$PDSIZE
 40
-1.0
  9
$PLINEWID
 40
0.0
  9
$SPLFRAME
 70
     0
  9
$SPLINETYPE
 70
     6
  9
$SPLINESEGS
 70
     8
  9
$HANDSEED
  5
77
  9
$SURFTAB1
 70
     6
  9
$SURFTAB2
 70
     6
  9
$SURFTYPE
 70
     6
  9
$SURFU
 70
     6
  9
$SURFV
 70
     6
  9
$UCSBASE
  2

  9
$UCSNAME
  2

  9
$UCSORG
 10
0.0
 20
0.0
 30
0.0
  9
$UCSXDIR
 10
1.0
 20
0.0
 30
0.0
  9
$UCSYDIR
 10
0.0
 20
1.0
 30
0.0
  9
$UCSORTHOREF
  2

  9
$UCSORTHOVIEW
 70
     0
  9
$UCSORGTOP
 10
0.0
 20
0.0
 30
0.0
  9
$UCSORGBOTTOM
 10
0.0
 20
0.0
 30
0.0
  9
$UCSORGLEFT
 10
0.0
 20
0.0
 30
0.0
  9
$UCSORGRIGHT
 10
0.0
 20
0.0
 30
0.0
  9
$UCSORGFRONT
 10
0.0
 20
0.0
 30
0.0
  9
$UCSORGBACK
 10
0.0
 20
0.0
 30
0.0
  9
$PUCSBASE
  2

  9
$PUCSNAME
  2

  9
$PUCSORG
 10
0.0
 20
0.0
 30
0.0
  9
$PUCSXDIR
 10
1.0
 20
0.0
 30
0.0
  9
$PUCSYDIR
 10
0.0
 20
1.0
 30
0.0
  9
$PUCSORTHOREF
  2

  9
$PUCSORTHOVIEW
 70
     0
  9
$PUCSORGTOP
 10
0.0
 20
0.0
 30
0.0
  9
$PUCSORGBOTTOM
 10
0.0
 20
0.0
 30
0.0
  9
$PUCSORGLEFT
 10
0.0
 20
0.0
 30
0.0
  9
$PUCSORGRIGHT
 10
0.0
 20
0.0
 30
0.0
  9
$PUCSORGFRONT
 10
0.0
 20
0.0
 30
0.0
  9
$PUCSORGBACK
 10
0.0
 20
0.0
 30
0.0
  9
$USERI1
 70
     0
  9
$USERI2
 70
     0
  9
$USERI3
 70
     0
  9
$USERI4
 70
     0
  9
$USERI5
 70
     0
  9
$USERR1
 40
0.0
  9
$USERR2
 40
0.0
  9
$USERR3
 40
0.0
  9
$USERR4
 40
0.0
  9
$USERR5
 40
0.0
  9
$WORLDVIEW
 70
     1
  9
$SHADEDGE
 70
     3
  9
$SHADEDIF
 70
    70
  9
$TILEMODE
 70
     1
  9
$MAXACTVP
 70
    64
  9
$PINSBASE
 10
0.0
 20
0.0
 30
0.0
  9
$PLIMCHECK
 70
     0
  9
$PEXTMIN
 10
1.0000000000E+20
 20
1.0000000000E+20
 30
1.0000000000E+20
  9
$PEXTMAX
 10
-1.0000000000E+20
 20
-1.0000000000E+20
 30
-1.0000000000E+20
  9
$PLIMMIN
 10
0.0
 20
0.0
  9
$PLIMMAX
 10
12.0
 20
9.0
  9
$UNITMODE
 70
     0
  9
$VISRETAIN
 70
     1
  9
$PLINEGEN
 70
     0
  9
$PSLTSCALE
 70
     1
  9
$TREEDEPTH
 70
  3020
  9
$CMLSTYLE
  2
Standard
  9
$CMLJUST
 70
     0
  9
$CMLSCALE
 40
1.0
  9
$PROXYGRAPHICS
 70
     1
  9
$MEASUREMENT
 70
     0
  9
$CELWEIGHT
370
    -1
  9
$ENDCAPS
280
     0
  9
$JOINSTYLE
280
     0
  9
$LWDISPLAY
290
     1
  9
$INSUNITS
 70
     1
  9
$HYPERLINKBASE
  1

  9
$STYLESHEET
  1

  9
$XEDIT
290
     1
  9
$CEPSNTYPE
380
     0
  9
$PSTYLEMODE
290
     1
  9
$FINGERPRINTGUID
  2
{a6e41039-8cdf-419e-90d2-5fdecd12b5f5}
  9
$VERSIONGUID
  2
{FAEB1C32-E019-11D5-929B-00C0DF256EC4}
  9
$EXTNAMES
290
     1
  9
$PSVPSCALE
 40
0.0
  9
$OLESTARTUP
290
     0
  0
ENDSEC
  0
SECTION
  2
CLASSES
  0
CLASS
  1
ACDBDICTIONARYWDFLT
  2
AcDbDictionaryWithDefault
  3
ObjectDBX Classes
 90
        0
280
     0
281
     0
  0
CLASS
  1
VISUALSTYLE
  2
AcDbVisualStyle
  3
ObjectDBX Classes
 90
     4095
280
     0
281
     0
  0
CLASS
  1
MATERIAL
  2
AcDbMaterial
  3
ObjectDBX Classes
 90
     1153
280
     0
281
     0
  0
CLASS
  1
SCALE
  2
AcDbScale
  3
ObjectDBX Classes
 90
     1153
280
     0
281
     0
  0
CLASS
  1
TABLESTYLE
  2
AcDbTableStyle
  3
ObjectDBX Classes
 90
     4095
280
     0
281
     0
  0
CLASS
  1
MLEADERSTYLE
  2
AcDbMLeaderStyle
  3
ACDB_MLEADERSTYLE_CLASS
 90
     4095
280
     0
281
     0
  0
CLASS
  1
SUN
  2
AcDbSun
  3
SCENEOE
 90
     1153
280
     0
281
     0
  0
CLASS
  1
ACDBPLACEHOLDER
  2
AcDbPlaceHolder
  3
ObjectDBX Classes
 90
        0
280
     0
281
     0
  0
CLASS
  1
LAYOUT
  2
AcDbLayout
  3
ObjectDBX Classes
 90
        0
280
     0
281
     0
  0
ENDSEC
  0
SECTION
  2
TABLES
  0
TABLE
  2
VPORT
  5
8
330
0
100
AcDbSymbolTable
 70
     1
  0
VPORT
  5
29
330
8
100
AcDbSymbolTableRecord
100
AcDbViewportTableRecord
  2
*Active
 70
     0
 10
0.0
 20
0.0
 11
1.0
 21
1.0
 12
-0.0038492313
 22
2.4106810411
 13
0.0
 23
0.0
 14
0.5
 24
0.5
 15
0.5
 25
0.5
 16
0.0
 26
0.0
 36
1.0
 17
0.0
 27
0.0
 37
0.0
 40
4.9177893239
 41
1.244461606
 42
50.0
 43
0.0
 44
0.0
 50
0.0
 51
0.0
 71
     0
 72
   100
 73
     1
 74
     3
 75
     0
 76
     0
 77
     0
 78
     0
281
     0
 65
     1
110
0.0
120
0.0
130
0.0
111
1.0
121
0.0
131
0.0
112
0.0
122
1.0
132
0.0
 79
     0
146
0.0
  0
ENDTAB
  0
TABLE
  2
LTYPE
  5
5
330
0
100
AcDbSymbolTable
 70
     6
  0
LTYPE
  5
14
330
5
100
AcDbSymbolTableRecord
100
AcDbLinetypeTableRecord
  2
ByBlock
 70
     0
  3

 72
    65
 73
     0
 40
0.0
  0
LTYPE
  5
15
330
5
100
AcDbSymbolTableRecord
100
AcDbLinetypeTableRecord
  2
ByLayer
 70
     0
  3

 72
    65
 73
     0
 40
0.0
  0
LTYPE
  5
16
330
5
100
AcDbSymbolTableRecord
100
AcDbLinetypeTableRecord
  2
Continuous
 70
     0
  3
Solid line
 72
    65
 73
     0
 40
0.0
  0
LTYPE
  5
5E
330
5
100
AcDbSymbolTableRecord
100
AcDbLinetypeTableRecord
  2
HIDDEN
 70
     0
  3
Hidden __ __ __ __ __ __ __ __ __ __ __ __ __ __
 72
    65
 73
     2
 40
0.075
 49
0.05
 74
     0
 49
-0.025
 74
     0
  0
LTYPE
  5
5F
330
5
100
AcDbSymbolTableRecord
100
AcDbLinetypeTableRecord
  2
PHANTOM
 70
     0
  3
Phantom ______  __  __  ______  __  __  ______
 72
    65
 73
     6
 40
0.5
 49
0.25
 74
     0
 49
-0.05
 74
     0
 49
0.05
 74
     0
 49
-0.05
 74
     0
 49
0.05
 74
     0
 49
-0.05
 74
     0
  0
LTYPE
  5
60
330
5
100
AcDbSymbolTableRecord
100
AcDbLinetypeTableRecord
  2
CENTER
 70
     0
  3
Center ____ _ ____ _ ____ _ ____ _ ____ _ ____
 72
    65
 73
     4
 40
0.4
 49
0.25
 74
     0
 49
-0.05
 74
     0
 49
0.05
 74
     0
 49
-0.05
 74
     0
  0
LTYPE
  5
61
330
5
100
AcDbSymbolTableRecord
100
AcDbLinetypeTableRecord
  2
CENTERX2
 70
     0
  3
Center (2x) ________  __  ________  __  _____
 72
    65
 73
     4
 40
0.8
 49
0.5
 74
     0
 49
-0.1
 74
     0
 49
0.1
 74
     0
 49
-0.1
 74
     0
  0
LTYPE
  5
62
330
5
100
AcDbSymbolTableRecord
100
AcDbLinetypeTableRecord
  2
DOT2
 70
     0
  3
Dot (.5x) ........................................
 72
    65
 73
     2
 40
0.025
 49
0.0
 74
     0
 49
-0.025
 74
     0
  0
ENDTAB
  0
TABLE
  2
LAYER
  5
2
330
0
100
AcDbSymbolTable
 70
     1
  0
LAYER
  5
10
330
2
100
AcDbSymbolTableRecord
100
AcDbLayerTableRecord
  2
0
 70
     0
 62
     7
  6
Continuous
370
    -3
390
F
  0
ENDTAB
  0
TABLE
  2
STYLE
  5
3
330
0
100
AcDbSymbolTable
 70
     2
  0
STYLE
  5
11
330
3
100
AcDbSymbolTableRecord
100
AcDbTextStyleTableRecord
  2
Standard
 70
     0
 40
0.0
 41
1.0
 50
0.0
 71
     0
 42
0.1377952756
  3
txt
  4

  0
STYLE
  5
73
330
3
100
AcDbSymbolTableRecord
100
AcDbTextStyleTableRecord
  2
SLDTEXTSTYLE0
 70
     0
 40
0.0
 41
0.7
 50
0.0
 71
     0
 42
0.1377952756
  3
TXT
  4

  0
ENDTAB
  0
TABLE
  2
VIEW
  5
6
330
0
100
AcDbSymbolTable
 70
     0
  0
ENDTAB
  0
TABLE
  2
UCS
  5
7
330
0
100
AcDbSymbolTable
 70
     0
  0
ENDTAB
  0
TABLE
  2
APPID
  5
9
330
0
100
AcDbSymbolTable
 70
     1
  0
APPID
  5
12
330
9
100
AcDbSymbolTableRecord
100
AcDbRegAppTableRecord
  2
ACAD
 70
     0
  0
ENDTAB
  0
TABLE
  2
DIMSTYLE
  5
A
330
0
100
AcDbSymbolTable
 70
     1
100
AcDbDimStyleTable
  0
DIMSTYLE
105
27
330
A
100
AcDbSymbolTableRecord
100
AcDbDimStyleTableRecord
  2
Standard
 70
     0
178
     0
340
11
  0
ENDTAB
  0
TABLE
  2
BLOCK_RECORD
  5
1
330
0
100
AcDbSymbolTable
 70
     1
  0
BLOCK_RECORD
  5
1F
330
1
100
AcDbSymbolTableRecord
100
AcDbBlockTableRecord
  2
*Model_Space
340
22
  0
BLOCK_RECORD
  5
1B
330
1
100
AcDbSymbolTableRecord
100
AcDbBlockTableRecord
  2
*Paper_Space
340
1E
  0
BLOCK_RECORD
  5
23
330
1
100
AcDbSymbolTableRecord
100
AcDbBlockTableRecord
  2
*Paper_Space0
340
26
  0
ENDTAB
  0
ENDSEC
  0
SECTION
  2
BLOCKS
  0
BLOCK
  5
20
330
1F
100
AcDbEntity
  8
0
100
AcDbBlockBegin
  2
*Model_Space
 70
     0
 10
0.0
 20
0.0
 30
0.0
  3
*Model_Space
  1

  0
ENDBLK
  5
21
330
1F
100
AcDbEntity
  8
0
100
AcDbBlockEnd
  0
BLOCK
  5
1C
330
1B
100
AcDbEntity
 67
     1
  8
0
100
AcDbBlockBegin
  2
*Paper_Space
 70
     0
 10
0.0
 20
0.0
 30
0.0
  3
*Paper_Space
  1

  0
ENDBLK
  5
1D
330
1B
100
AcDbEntity
 67
     1
  8
0
100
AcDbBlockEnd
  0
BLOCK
  5
24
330
23
100
AcDbEntity
  8
0
100
AcDbBlockBegin
  2
*Paper_Space0
 70
     0
 10
0.0
 20
0.0
 30
0.0
  3
*Paper_Space0
  1

  0
ENDBLK
  5
25
330
23
100
AcDbEntity
  8
0
100
AcDbBlockEnd
  0
ENDSEC
  0
SECTION
  2
ENTITIES
  0
SPLINE
  5
63
330
1F
100
AcDbEntity
  8
0
  6
Continuous
 62
     7
370
    25
100
AcDbSpline
210
0.0
220
0.0
230
1.0
 70
    11
 71
     3
 72
   122
 73
   118
 74
     0
 42
0.00000001
 43
0.00000001
 40
0.0
 40
0.0
 40
0.0
 40
0.0
 40
0.0002710283195858
 40
0.0002710283195858
 40
0.0002710283195858
 40
0.0005420566391715
 40
0.0005420566391715
 40
0.0005420566391715
 40
0.0008130849587573
 40
0.0008130849587573
 40
0.0008130849587573
 40
0.001084113278343
 40
0.001084113278343
 40
0.001084113278343
 40
0.0013551415979287
 40
0.0013551415979287
 40
0.0013551415979287
 40
0.0016261699175145
 40
0.0016261699175145
 40
0.0016261699175145
 40
0.0018971982371002
 40
0.0018971982371002
 40
0.0018971982371002
 40
0.002168226556686
 40
0.002168226556686
 40
0.002168226556686
 40
0.0024392548762717
 40
0.0024392548762717
 40
0.0024392548762717
 40
0.0027102831958575
 40
0.0027102831958575
 40
0.0027102831958575
 40
0.0029813115154432
 40
0.0029813115154432
 40
0.0029813115154432
 40
0.003252339835029
 40
0.003252339835029
 40
0.003252339835029
 40
0.0035233681546147
 40
0.0035233681546147
 40
0.0035233681546147
 40
0.0037943964742005
 40
0.0037943964742005
 40
0.0037943964742005
 40
0.0040654247937862
 40
0.0040654247937862
 40
0.0040654247937862
 40
0.004336453113372
 40
0.004336453113372
 40
0.004336453113372
 40
0.0046074814329577
 40
0.0046074814329577
 40
0.0046074814329577
 40
0.0048785097525434
 40
0.0048785097525434
 40
0.0048785097525434
 40
0.0051495380721292
 40
0.0051495380721292
 40
0.0051495380721292
 40
0.0054205663917149
 40
0.0054205663917149
 40
0.0054205663917149
 40
0.0056915947113007
 40
0.0056915947113007
 40
0.0056915947113007
 40
0.0059626230308864
 40
0.0059626230308864
 40
0.0059626230308864
 40
0.0062336513504721
 40
0.0062336513504721
 40
0.0062336513504721
 40
0.0065046796700579
 40
0.0065046796700579
 40
0.0065046796700579
 40
0.0067757079896436
 40
0.0067757079896436
 40
0.0067757079896436
 40
0.0070467363092294
 40
0.0070467363092294
 40
0.0070467363092294
 40
0.0073177646288151
 40
0.0073177646288151
 40
0.0073177646288151
 40
0.0075887929484009
 40
0.0075887929484009
 40
0.0075887929484009
 40
0.0078598212679866
 40
0.0078598212679866
 40
0.0078598212679866
 40
0.0081308495875724
 40
0.0081308495875724
 40
0.0081308495875724
 40
0.0084018779071581
 40
0.0084018779071581
 40
0.0084018779071581
 40
0.0086729062267439
 40
0.0086729062267439
 40
0.0086729062267439
 40
0.0089439345463296
 40
0.0089439345463296
 40
0.0089439345463296
 40
0.0092149628659154
 40
0.0092149628659154
 40
0.0092149628659154
 40
0.0094859911855011
 40
0.0094859911855011
 40
0.0094859911855011
 40
0.0097570195050869
 40
0.0097570195050869
 40
0.0097570195050869
 40
0.0099967097025131
 40
0.0099967097025131
 40
0.0099967097025131
 40
0.0101187414765264
 40
0.0101187414765264
 40
0.0101187414765264
 40
0.0102414671890356
 40
0.0102414671890356
 40
0.0102414671890356
 40
0.0102414671890356
 10
0.1444414577770493
 20
4.614408828434767
 30
0.0
 10
0.1444414577770492
 20
4.617965630529068
 30
0.0
 10
0.1447388482177588
 20
4.621534631666331
 30
0.0
 10
0.145327508907339
 20
4.625042383044432
 30
0.0
 10
0.1459161695969191
 20
4.628550134422533
 30
0.0
 10
0.1468001384867948
 20
4.632020697661224
 30
0.0
 10
0.1479612238046521
 20
4.635382649776093
 30
0.0
 10
0.1491223091225094
 20
4.638744601890964
 30
0.0
 10
0.1505684753990137
 20
4.642021004383442
 30
0.0
 10
0.1522699610351637
 20
4.645144430029748
 30
0.0
 10
0.1539714466713136
 20
4.648267855676054
 30
0.0
 10
0.1559399231044424
 20
4.651259729791759
 30
0.0
 10
0.1581348797741821
 20
4.654058480648122
 30
0.0
 10
0.1603298364439217
 20
4.656857231504484
 30
0.0
 10
0.1627663297801801
 20
4.659482057291919
 30
0.0
 10
0.1653942175974966
 20
4.661878940008621
 30
0.0
 10
0.1680221054148132
 20
4.664275822725322
 30
0.0
 10
0.170859413858885
 20
4.666461203924385
 30
0.0
 10
0.1738477521087339
 20
4.668390109220794
 30
0.0
 10
0.1768360903585829
 20
4.670319014517203
 30
0.0
 10
0.1799959570901148
 20
4.672004675346365
 30
0.0
 10
0.1832623233449795
 20
4.67341240139468
 30
0.0
 10
0.1865286895998444
 20
4.674820127442995
 30
0.0
 10
0.189923961202835
 20
4.675959575087224
 30
0.0
 10
0.1933782646452197
 20
4.676807294891142
 30
0.0
 10
0.1968325680876043
 20
4.67765501469506
 30
0.0
 10
0.2003695983599847
 20
4.678216821640796
 30
0.0
 10
0.2039165646095159
 20
4.678481153936803
 30
0.0
 10
0.2074635308590471
 20
4.678745486232808
 30
0.0
 10
0.2110447637021181
 20
4.678714157081475
 30
0.0
 10
0.2145865626123524
 20
4.678387811225844
 30
0.0
 10
0.2181283615225867
 20
4.678061465370212
 30
0.0
 10
0.2216550216707161
 20
4.677437864222354
 30
0.0
 10
0.2250939656174459
 20
4.676529841277008
 30
0.0
 10
0.2285329095641756
 20
4.675621818331661
 30
0.0
 10
0.2319077269407752
 20
4.674423144953874
 30
0.0
 10
0.2351489651793778
 20
4.672958489424869
 30
0.0
 10
0.2383902034179803
 20
4.671493833895864
 30
0.0
 10
0.2415200959763244
 20
4.669753149327875
 30
0.0
 10
0.2444742307541196
 20
4.66777225840391
 30
0.0
 10
0.2474283655319147
 20
4.665791367479945
 30
0.0
 10
0.2502270065844078
 20
4.663556682166234
 30
0.0
 10
0.2528125588520915
 20
4.661114191509323
 30
0.0
 10
0.255398111119775
 20
4.658671700852412
 30
0.0
 10
0.2577883103452396
 20
4.65600465044895
 30
0.0
 10
0.2599339670597235
 20
4.653167927268657
 30
0.0
 10
0.2620796237742077
 20
4.650331204088364
 30
0.0
 10
0.2639954562317769
 20
4.64730534946751
 30
0.0
 10
0.265642037266771
 20
4.644152634441818
 30
0.0
 10
0.267288618301765
 20
4.640999919416126
 30
0.0
 10
0.2686772427302879
 20
4.637698717757863
 30
0.0
 10
0.269779333144557
 20
4.634316967049014
 30
0.0
 10
0.2708814235588261
 20
4.630935216340165
 30
0.0
 10
0.2717045398106158
 20
4.627449719269724
 30
0.0
 10
0.27223174245374
 20
4.623932206155163
 30
0.0
 10
0.2727589450968642
 20
4.620414693040602
 30
0.0
 10
0.2729938505077882
 20
4.616841035300984
 30
0.0
 10
0.2729316244148544
 20
4.613284777569691
 30
0.0
 10
0.2728693983219205
 20
4.609728519838398
 30
0.0
 10
0.2725096138817108
 20
4.606165267763593
 30
0.0
 10
0.2718596753328739
 20
4.602668351833698
 30
0.0
 10
0.2712097367840369
 20
4.599171435903802
 30
0.0
 10
0.2702651858361926
 20
4.595716868825434
 30
0.0
 10
0.2690454610193379
 20
4.592375744387588
 30
0.0
 10
0.2678257362024831
 20
4.589034619949742
 30
0.0
 10
0.2663224707449796
 20
4.585784019519623
 30
0.0
 10
0.2645666013271146
 20
4.582690839323542
 30
0.0
 10
0.2628107319092497
 20
4.57959765912746
 30
0.0
 10
0.2607902140450515
 20
4.576640681320227
 30
0.0
 10
0.2585466292894398
 20
4.573880759476694
 30
0.0
 10
0.2563030445338281
 20
4.571120837633161
 30
0.0
 10
0.2538210028897789
 20
4.56853903991273
 30
0.0
 10
0.2511515839110853
 20
4.566188498814554
 30
0.0
 10
0.2484821649323918
 20
4.563837957716378
 30
0.0
 10
0.2456070575879975
 20
4.561702549570327
 30
0.0
 10
0.2425854305871026
 20
4.559826220333361
 30
0.0
 10
0.2395638035862078
 20
4.557949891096397
 30
0.0
 10
0.2363749299068287
 20
4.556319769981579
 30
0.0
 10
0.2330844354602138
 20
4.554969404314502
 30
0.0
 10
0.2297939410135988
 20
4.553619038647424
 30
0.0
 10
0.2263792544662537
 20
4.55253916551812
 30
0.0
 10
0.2229106488797127
 20
4.551752008340014
 30
0.0
 10
0.2194420432931716
 20
4.55096485116191
 30
0.0
 10
0.2158957255704629
 20
4.550465010385647
 30
0.0
 10
0.2123446776969292
 20
4.550262772560558
 30
0.0
 10
0.2087936298233955
 20
4.550060534735469
 30
0.0
 10
0.2052134931845162
 20
4.55015451259971
 30
0.0
 10
0.2016779457471666
 20
4.55054277212152
 30
0.0
 10
0.1981423983098171
 20
4.55093103164333
 30
0.0
 10
0.1946271877855989
 20
4.551616236110944
 30
0.0
 10
0.1912046559845287
 20
4.552584284254731
 30
0.0
 10
0.1877821241834585
 20
4.553552332398517
 30
0.0
 10
0.184428794054312
 20
4.554809864599684
 30
0.0
 10
0.1812136759648764
 20
4.556331001282895
 30
0.0
 10
0.1779985578754408
 20
4.557852137966106
 30
0.0
 10
0.1748995975406241
 20
4.559647313454811
 30
0.0
 10
0.1719805704863145
 20
4.561679583661804
 30
0.0
 10
0.1690615434320049
 20
4.563711853868798
 30
0.0
 10
0.1663024264263783
 20
4.56599515926696
 30
0.0
 10
0.1637600011378039
 20
4.568482510225317
 30
0.0
 10
0.1612175758492294
 20
4.570969861183674
 30
0.0
 10
0.1588744023670787
 20
4.573678319827361
 30
0.0
 10
0.156778702386671
 20
4.576552147019477
 30
0.0
 10
0.1546830024062634
 20
4.579425974211593
 30
0.0
 10
0.152820400354587
 20
4.582484883132941
 30
0.0
 10
0.1512292279340626
 20
4.585665922501793
 30
0.0
 10
0.149638055513538
 20
4.588846961870645
 30
0.0
 10
0.1483073979865983
 20
4.592171952207175
 30
0.0
 10
0.1472646398223519
 20
4.595572466366669
 30
0.0
 10
0.1463417588682799
 20
4.598582051771468
 30
0.0
 10
0.1456387723652604
 20
4.601667922818361
 30
0.0
 10
0.1451670250173188
 20
4.604780280124949
 30
0.0
 10
0.1449263656973562
 20
4.606368032120063
 30
0.0
 10
0.1447451483674506
 20
4.607965934193966
 30
0.0
 10
0.1446241363881298
 20
4.609567255338251
 30
0.0
 10
0.1445024372449291
 20
4.611177669549659
 30
0.0
 10
0.1444414577770493
 20
4.612793822362407
 30
0.0
 10
0.1444414577770493
 20
4.614408828434767
 30
0.0
  0
CIRCLE
  5
64
330
1F
100
AcDbEntity
  8
0
  6
Continuous
 62
     7
370
    25
100
AcDbCircle
 10
0.9683524825
 20
4.595757798
 30
0.0
 40
0.0642500000000019
  0
SPLINE
  5
65
330
1F
100
AcDbEntity
  8
0
  6
Continuous
 62
     7
370
    25
100
AcDbSpline
210
0.0
220
0.0
230
1.0
 70
    24
 71
     3
 72
     8
 73
     4
 74
     0
 42
0.00000001
 43
0.00000001
 40
0.0
 40
0.0
 40
0.0
 40
0.0
 40
0.0549086353728178
 40
0.0549086353728178
 40
0.0549086353728178
 40
0.0549086353728178
 10
2.996150768717749
 20
1.0
 30
0.0
 10
2.896732074637938
 20
1.0
 30
0.0
 10
2.79716770332959
 20
1.0
 30
0.0
 10
2.697500000019382
 20
1.0
 30
0.0
  0
LINE
  5
66
330
1F
100
AcDbEntity
  8
0
  6
Continuous
 62
     7
370
    25
100
AcDbLine
 10
2.6975
 20
1.0
 30
0.0
 11
2.6975
 21
0.5
 31
0.0
  0
LINE
  5
67
330
1F
100
AcDbEntity
  8
0
  6
Continuous
 62
     7
370
    25
100
AcDbLine
 10
2.6975
 20
0.5
 30
0.0
 11
2.5025
 21
0.5
 31
0.0
  0
LINE
  5
68
330
1F
100
AcDbEntity
  8
0
  6
Continuous
 62
     7
370
    25
100
AcDbLine
 10
2.5024999999
 20
1.0
 30
0.0
 11
2.5025
 21
0.5
 31
0.0
  0
SPLINE
  5
69
330
1F
100
AcDbEntity
  8
0
  6
Continuous
 62
     7
370
    25
100
AcDbSpline
210
0.0
220
0.0
230
1.0
 70
     8
 71
     3
 72
    20
 73
    16
 74
     0
 42
0.00000001
 43
0.00000001
 40
0.0
 40
0.0
 40
0.0
 40
0.0
 40
0.0307669060009583
 40
0.0914986133180317
 40
0.1522303206351049
 40
0.1522303206351049
 40
0.1883278816107146
 40
0.2244254425863242
 40
0.2605230035619338
 40
0.2966205645375436
 40
0.2966205645375436
 40
0.4497912962448607
 40
0.6029620279521777
 40
0.7561327596594947
 40
0.9093034913668118
 40
0.9093034913668118
 40
0.9093034913668118
 40
0.9093034913668118
 10
2.50249999991364
 20
1.0
 30
0.0
 10
2.446589546039412
 20
1.0
 30
0.0
 10
2.280250133473452
 20
1.000000000000001
 30
0.0
 10
2.003314280056471
 20
0.9999999999999994
 30
0.0
 10
1.78239601256307
 20
1.0
 30
0.0
 10
1.606572238578101
 20
1.0
 30
0.0
 10
1.475650028948309
 20
1.026020335641285
 30
0.0
 10
1.309022338527876
 20
1.137519434701927
 30
0.0
 10
1.197939404970467
 20
1.30416335266138
 30
0.0
 10
1.172118632910029
 20
1.434717745073446
 30
0.0
 10
1.172118632910029
 20
1.777008487120785
 30
0.0
 10
1.172118632910029
 20
2.330643561325872
 30
0.0
 10
1.172118632910028
 20
3.160481122915401
 30
0.0
 10
1.172118632910029
 20
3.990408352358893
 30
0.0
 10
1.172118632910029
 20
4.544208872191414
 30
0.0
 10
1.172118632910029
 20
4.821362082278422
 30
0.0
  0
LINE
  5
6A
330
1F
100
AcDbEntity
  8
0
  6
Continuous
 62
     7
370
    25
100
AcDbLine
 10
1.1721186329
 20
4.8213620823
 30
0.0
 11
-0.010562646
 21
4.8213620823
 31
0.0
  0
SPLINE
  5
6B
330
1F
100
AcDbEntity
  8
0
  6
Continuous
 62
     7
370
    25
100
AcDbSpline
210
0.0
220
0.0
230
1.0
 70
     8
 71
     3
 72
    21
 73
    17
 74
     0
 42
0.00000001
 43
0.00000001
 40
0.0
 40
0.0
 40
0.0
 40
0.0
 40
0.1274963468095471
 40
0.254992693619094
 40
0.3824890404286412
 40
0.5099853872381881
 40
0.5099853872381881
 40
0.5249837635979868
 40
0.5399821399577854
 40
0.5699788926773828
 40
0.5999756453969801
 40
0.6299723981165775
 40
0.6299723981165775
 40
0.7224792985874331
 40
0.8149861990582887
 40
0.8948512548342045
 40
0.8948512548342045
 40
0.8948512548342045
 40
0.8948512548342045
 10
-0.010562646022474
 20
4.821362082278422
 30
0.0
 10
-0.010562646022474
 20
4.540557551570591
 30
0.0
 10
-0.0105626460224738
 20
3.983988073191355
 30
0.0
 10
-0.0105626460224743
 20
3.155610042422751
 30
0.0
 10
-0.0105626460224738
 20
2.329059902234536
 30
0.0
 10
-0.010562646022474
 20
1.777011003480427
 30
0.0
 10
-0.010562646022474
 20
1.467413064060484
 30
0.0
 10
-0.016990024203612
 20
1.402263128821376
 30
0.0
 10
-0.0546979352742698
 20
1.277037920928616
 30
0.0
 10
-0.1463618972597307
 20
1.138945231487309
 30
0.0
 10
-0.3117185920694153
 20
1.027113897802397
 30
0.0
 10
-0.4436666452976989
 20
1.0
 30
0.0
 10
-0.7168630325607188
 20
1.0
 30
0.0
 10
-1.132903427226034
 20
1.0
 30
0.0
 10
-1.733971171429141
 20
1.0
 30
0.0
 10
-2.123277827311905
 20
1.0
 30
0.0
 10
-2.302500000000003
 20
1.0
 30
0.0
  0
LINE
  5
6C
330
1F
100
AcDbEntity
  8
0
  6
Continuous
 62
     7
370
    25
100
AcDbLine
 10
-2.3025
 20
1.0
 30
0.0
 11
-2.3025
 21
0.5
 31
0.0
  0
LINE
  5
6D
330
1F
100
AcDbEntity
  8
0
  6
Continuous
 62
     7
370
    25
100
AcDbLine
 10
-2.3025
 20
0.5
 30
0.0
 11
-2.4975
 21
0.5
 31
0.0
  0
LINE
  5
6E
330
1F
100
AcDbEntity
  8
0
  6
Continuous
 62
     7
370
    25
100
AcDbLine
 10
-2.4975
 20
0.5
 30
0.0
 11
-2.4975
 21
1.0
 31
0.0
  0
SPLINE
  5
6F
330
1F
100
AcDbEntity
  8
0
  6
Continuous
 62
     7
370
    25
100
AcDbSpline
210
0.0
220
0.0
230
1.0
 70
    24
 71
     3
 72
     8
 73
     4
 74
     0
 42
0.00000001
 43
0.00000001
 40
0.0
 40
0.0
 40
0.0
 40
0.0
 40
0.0761109458052155
 40
0.0761109458052155
 40
0.0761109458052155
 40
0.0761109458052155
 10
-2.497499999999992
 20
1.0
 30
0.0
 10
-2.667432734136724
 20
1.0
 30
0.0
 10
-2.836210541739792
 20
1.0
 30
0.0
 10
-3.003849231282251
 20
1.0
 30
0.0
  0
LINE
  5
70
330
1F
100
AcDbEntity
  8
0
  6
Continuous
 62
     7
370
    25
100
AcDbLine
 10
-3.0038492313
 20
1.0
 30
0.0
 11
-3.0038492313
 21
0.0
 31
0.0
  0
LINE
  5
71
330
1F
100
AcDbEntity
  8
0
  6
Continuous
 62
     7
370
    25
100
AcDbLine
 10
-3.0038492313
 20
0.0
 30
0.0
 11
2.9961507687
 21
0.0
 31
0.0
  0
LINE
  5
72
330
1F
100
AcDbEntity
  8
0
  6
Continuous
 62
     7
370
    25
100
AcDbLine
 10
2.9961507687
 20
0.0
 30
0.0
 11
2.9961507687
 21
1.0
 31
0.0
  0
MTEXT
  5
74
330
1F
100
AcDbEntity
  8
0
  6
Continuous
 62
     7
100
AcDbMText
 10
-3.0038492313
 20
-0.0401404091
 30
0.0
 40
0.1903
 41
0.0
 71
     1
 72
     1
  1
SOLIDWORKS Educational Product.
  7
SLDTEXTSTYLE0
 73
     1
 44
1.0
  0
MTEXT
  5
75
330
1F
100
AcDbEntity
  8
0
  6
Continuous
 62
     7
100
AcDbMText
 10
-3.0038492313
 20
-0.3255904091
 30
0.0
 40
0.1903
 41
0.0
 71
     1
 72
     1
  1
For Instructional Use Only.
  7
SLDTEXTSTYLE0
 73
     1
 44
1.0
  0
ENDSEC
  0
SECTION
  2
OBJECTS
  0
DICTIONARY
  5
C
330
0
100
AcDbDictionary
281
     1
  3
ACAD_GROUP
350
D
  3
ACAD_LAYOUT
350
1A
  3
ACAD_MLINESTYLE
350
17
  3
ACAD_PLOTSETTINGS
350
19
  3
ACAD_PLOTSTYLENAME
350
E
  3
ACAD_SCALELIST
350
47
  3
DWGPROPS
350
76
  0
DICTIONARY
  5
D
102
{ACAD_REACTORS
330
C
102
}
330
C
100
AcDbDictionary
281
     1
  0
DICTIONARY
  5
1A
102
{ACAD_REACTORS
330
C
102
}
330
C
100
AcDbDictionary
281
     1
  3
Layout1
350
1E
  3
Layout2
350
26
  3
Model
350
22
  0
DICTIONARY
  5
17
102
{ACAD_REACTORS
330
C
102
}
330
C
100
AcDbDictionary
281
     1
  3
Standard
350
18
  0
DICTIONARY
  5
19
102
{ACAD_REACTORS
330
C
102
}
330
C
100
AcDbDictionary
281
     1
  0
ACDBDICTIONARYWDFLT
  5
E
102
{ACAD_REACTORS
330
C
102
}
330
C
100
AcDbDictionary
281
     1
  3
Normal
350
F
100
AcDbDictionaryWithDefault
340
F
  0
DICTIONARY
  5
47
102
{ACAD_REACTORS
330
C
102
}
330
C
100
AcDbDictionary
281
     1
  3
A0
350
48
  3
A1
350
49
  3
A2
350
4A
  3
A3
350
4B
  3
A4
350
4C
  3
A5
350
4D
  3
A6
350
4E
  3
A7
350
4F
  3
A8
350
50
  3
A9
350
51
  3
B1
350
52
  3
B2
350
53
  3
B3
350
54
  3
B4
350
55
  3
B5
350
56
  3
B6
350
57
  3
B7
350
58
  0
XRECORD
  5
76
102
{ACAD_REACTORS
330
C
102
}
330
C
100
AcDbXrecord
280
     1
  1
DWGPROPS COOKIE
  2

  3

  4

  6

  7

  8
deshe
  9

300
=
301
=
302
=
303
=
304
=
305
=
306
=
307
=
308
=
309
=
 40
0.0
 41
2459858.763677535
 42
2459858.763702523
  1

 90
        0
  0
LAYOUT
  5
1E
102
{ACAD_REACTORS
330
1A
102
}
330
1A
100
AcDbPlotSettings
  1

  2
none_device
  4

  6

 40
0.0
 41
0.0
 42
0.0
 43
0.0
 44
0.0
 45
0.0
 46
0.0
 47
0.0
 48
0.0
 49
0.0
140
0.0
141
0.0
142
1.0
143
1.0
 70
   688
 72
     0
 73
     0
 74
     5
  7

 75
    16
147
1.0
148
0.0
149
0.0
100
AcDbLayout
  1
Layout1
 70
     1
 71
     1
 10
0.0
 20
0.0
 11
12.0
 21
9.0
 12
0.0
 22
0.0
 32
0.0
 14
1.0000000000E+20
 24
1.0000000000E+20
 34
1.0000000000E+20
 15
-1.0000000000E+20
 25
-1.0000000000E+20
 35
-1.0000000000E+20
146
0.0
 13
0.0
 23
0.0
 33
0.0
 16
1.0
 26
0.0
 36
0.0
 17
0.0
 27
1.0
 37
0.0
 76
     0
330
1B
  0
LAYOUT
  5
26
102
{ACAD_REACTORS
330
1A
102
}
330
1A
100
AcDbPlotSettings
  1

  2
none_device
  4

  6

 40
0.0
 41
0.0
 42
0.0
 43
0.0
 44
0.0
 45
0.0
 46
0.0
 47
0.0
 48
0.0
 49
0.0
140
0.0
141
0.0
142
1.0
143
1.0
 70
   688
 72
     0
 73
     0
 74
     5
  7

 75
    16
147
1.0
148
0.0
149
0.0
100
AcDbLayout
  1
Layout2
 70
     1
 71
     2
 10
0.0
 20
0.0
 11
0.0
 21
0.0
 12
0.0
 22
0.0
 32
0.0
 14
0.0
 24
0.0
 34
0.0
 15
0.0
 25
0.0
 35
0.0
146
0.0
 13
0.0
 23
0.0
 33
0.0
 16
1.0
 26
0.0
 36
0.0
 17
0.0
 27
1.0
 37
0.0
 76
     0
330
23
  0
LAYOUT
  5
22
102
{ACAD_REACTORS
330
1A
102
}
330
1A
100
AcDbPlotSettings
  1

  2
none_device
  4
ANSI_A_(11.00_x_8.50_Inches)
  6

 40
6.35
 41
19.05
 42
6.35000508
 43
19.05000254
 44
279.4
 45
215.9
 46
133.5206418815
 47
-17.97050127
 48
0.0
 49
0.0
140
0.0
141
0.0
142
1.7453574024
143
1.0
 70
  1696
 72
     0
 73
     0
 74
     0
  7

 75
     0
147
0.5913241897
148
-39.4088153714
149
0.0
100
AcDbLayout
  1
Model
 70
     1
 71
     0
 10
0.0
 20
0.0
 11
12.0
 21
9.0
 12
0.0
 22
0.0
 32
0.0
 14
-3.0038492313
 24
0.0
 34
0.0
 15
2.9961507687
 25
4.8213620823
 35
0.0
146
0.0
 13
0.0
 23
0.0
 33
0.0
 16
1.0
 26
0.0
 36
0.0
 17
0.0
 27
1.0
 37
0.0
 76
     0
330
1F
331
29
  0
MLINESTYLE
  5
18
102
{ACAD_REACTORS
330
17
102
}
330
17
100
AcDbMlineStyle
  2
Standard
 70
     0
  3

 62
   256
 51
90.0
 52
90.0
 71
     2
 49
0.5
 62
   256
  6
BYLAYER
 49
-0.5
 62
   256
  6
BYLAYER
  0
ACDBPLACEHOLDER
  5
F
102
{ACAD_REACTORS
330
E
102
}
330
E
  0
SCALE
  5
48
102
{ACAD_REACTORS
330
47
102
}
330
47
100
AcDbScale
 70
     0
300
1:1
140
1.0
141
1.0
290
     1
  0
SCALE
  5
49
102
{ACAD_REACTORS
330
47
102
}
330
47
100
AcDbScale
 70
     0
300
1/128" = 1'-0"
140
0.0078125
141
12.0
290
     0
  0
SCALE
  5
4A
102
{ACAD_REACTORS
330
47
102
}
330
47
100
AcDbScale
 70
     0
300
1/64" = 1'-0"
140
0.015625
141
12.0
290
     0
  0
SCALE
  5
4B
102
{ACAD_REACTORS
330
47
102
}
330
47
100
AcDbScale
 70
     0
300
1/32" = 1'-0"
140
0.03125
141
12.0
290
     0
  0
SCALE
  5
4C
102
{ACAD_REACTORS
330
47
102
}
330
47
100
AcDbScale
 70
     0
300
1/16" = 1'-0"
140
0.0625
141
12.0
290
     0
  0
SCALE
  5
4D
102
{ACAD_REACTORS
330
47
102
}
330
47
100
AcDbScale
 70
     0
300
3/32" = 1'-0"
140
0.09375
141
12.0
290
     0
  0
SCALE
  5
4E
102
{ACAD_REACTORS
330
47
102
}
330
47
100
AcDbScale
 70
     0
300
1/8" = 1'-0"
140
0.125
141
12.0
290
     0
  0
SCALE
  5
4F
102
{ACAD_REACTORS
330
47
102
}
330
47
100
AcDbScale
 70
     0
300
3/16" = 1'-0"
140
0.1875
141
12.0
290
     0
  0
SCALE
  5
50
102
{ACAD_REACTORS
330
47
102
}
330
47
100
AcDbScale
 70
     0
300
1/4" = 1'-0"
140
0.25
141
12.0
290
     0
  0
SCALE
  5
51
102
{ACAD_REACTORS
330
47
102
}
330
47
100
AcDbScale
 70
     0
300
3/8" = 1'-0"
140
0.375
141
12.0
290
     0
  0
SCALE
  5
52
102
{ACAD_REACTORS
330
47
102
}
330
47
100
AcDbScale
 70
     0
300
1/2" = 1'-0"
140
0.5
141
12.0
290
     0
  0
SCALE
  5
53
102
{ACAD_REACTORS
330
47
102
}
330
47
100
AcDbScale
 70
     0
300
3/4" = 1'-0"
140
0.75
141
12.0
290
     0
  0
SCALE
  5
54
102
{ACAD_REACTORS
330
47
102
}
330
47
100
AcDbScale
 70
     0
300
1" = 1'-0"
140
1.0
141
12.0
290
     0
  0
SCALE
  5
55
102
{ACAD_REACTORS
330
47
102
}
330
47
100
AcDbScale
 70
     0
300
1-1/2" = 1'-0"
140
1.5
141
12.0
290
     0
  0
SCALE
  5
56
102
{ACAD_REACTORS
330
47
102
}
330
47
100
AcDbScale
 70
     0
300
3" = 1'-0"
140
3.0
141
12.0
290
     0
  0
SCALE
  5
57
102
{ACAD_REACTORS
330
47
102
}
330
47
100
AcDbScale
 70
     0
300
6" = 1'-0"
140
6.0
141
12.0
290
     0
  0
SCALE
  5
58
102
{ACAD_REACTORS
330
47
102
}
330
47
100
AcDbScale
 70
     0
300
1'-0" = 1'-0"
140
12.0
141
12.0
290
     0
  0
ENDSEC
  0
EOF
