  0
SECTION
  2
HEADER
  9
$ACADVER
  1
AC1015
  9
$ACADMAINTVER
 70
     6
  9
$DWGCODEPAGE
  3
ANSI_1252
  9
$INSBASE
 10
0.0
 20
0.0
 30
0.0
  9
$EXTMIN
 10
-3.0053000979
 20
0.0
 30
0.0
  9
$EXTMAX
 10
2.9946999021
 20
4.8005447926
 30
0.0
  9
$LIMMIN
 10
0.0
 20
0.0
  9
$LIMMAX
 10
12.0
 20
9.0
  9
$ORTHOMODE
 70
     0
  9
$REGENMODE
 70
     1
  9
$FILLMODE
 70
     1
  9
$QTEXTMODE
 70
     0
  9
$MIRRTEXT
 70
     1
  9
$LTSCALE
 40
1.0
  9
$ATTMODE
 70
     1
  9
$TEXTSIZE
 40
0.1377952756
  9
$TRACEWID
 40
0.05
  9
$TEXTSTYLE
  7
Standard
  9
$CLAYER
  8
0
  9
$CELTYPE
  6
ByLayer
  9
$CECOLOR
 62
   256
  9
$CELTSCALE
 40
1.0
  9
$DISPSILH
 70
     0
  9
$DIMSCALE
 40
1.0
  9
$DIMASZ
 40
0.13
  9
$DIMEXO
 40
0.0
  9
$DIMDLI
 40
0.38
  9
$DIMRND
 40
0.0
  9
$DIMDLE
 40
0.0
  9
$DIMEXE
 40
0.125
  9
$DIMTP
 40
0.0
  9
$DIMTM
 40
0.0
  9
$DIMTXT
 40
0.1377952756
  9
$DIMCEN
 40
0.09
  9
$DIMTSZ
 40
0.0
  9
$DIMTOL
 70
     0
  9
$DIMLIM
 70
     0
  9
$DIMTIH
 70
     1
  9
$DIMTOH
 70
     1
  9
$DIMSE1
 70
     0
  9
$DIMSE2
 70
     0
  9
$DIMTAD
 70
     1
  9
$DIMZIN
 70
     1
  9
$DIMBLK
  1

  9
$DIMASO
 70
     1
  9
$DIMSHO
 70
     1
  9
$DIMPOST
  1

  9
$DIMAPOST
  1

  9
$DIMALT
 70
     0
  9
$DIMALTD
 70
     2
  9
$DIMALTF
 40
25.4
  9
$DIMLFAC
 40
1.0
  9
$DIMTOFL
 70
     0
  9
$DIMTVP
 40
0.0
  9
$DIMTIX
 70
     0
  9
$DIMSOXD
 70
     0
  9
$DIMSAH
 70
     0
  9
$DIMBLK1
  1

  9
$DIMBLK2
  1

  9
$DIMSTYLE
  2
Standard
  9
$DIMCLRD
 70
     0
  9
$DIMCLRE
 70
     0
  9
$DIMCLRT
 70
     0
  9
$DIMTFAC
 40
1.0
  9
$DIMGAP
 40
0.06
  9
$DIMJUST
 70
     0
  9
$DIMSD1
 70
     0
  9
$DIMSD2
 70
     0
  9
$DIMTOLJ
 70
     1
  9
$DIMTZIN
 70
     1
  9
$DIMALTZ
 70
     0
  9
$DIMALTTZ
 70
     0
  9
$DIMUPT
 70
     0
  9
$DIMDEC
 70
     2
  9
$DIMTDEC
 70
     2
  9
$DIMALTU
 70
     2
  9
$DIMALTTD
 70
     2
  9
$DIMTXSTY
  7
Standard
  9
$DIMAUNIT
 70
     0
  9
$DIMADEC
 70
     2
  9
$DIMALTRND
 40
0.0
  9
$DIMAZIN
 70
     0
  9
$DIMDSEP
 70
    46
  9
$DIMATFIT
 70
     3
  9
$DIMFRAC
 70
     0
  9
$DIMLDRBLK
  1

  9
$DIMLUNIT
 70
     2
  9
$DIMLWD
 70
    -2
  9
$DIMLWE
 70
    -2
  9
$DIMTMOVE
 70
     0
  9
$LUNITS
 70
     2
  9
$LUPREC
 70
     2
  9
$SKETCHINC
 40
0.1
  9
$FILLETRAD
 40
0.0
  9
$AUNITS
 70
     0
  9
$AUPREC
 70
     2
  9
$MENU
  1
.
  9
$ELEVATION
 40
0.0
  9
$PELEVATION
 40
0.0
  9
$THICKNESS
 40
0.0
  9
$LIMCHECK
 70
     0
  9
$CHAMFERA
 40
0.0
  9
$CHAMFERB
 40
0.0
  9
$CHAMFERC
 40
0.0
  9
$CHAMFERD
 40
0.0
  9
$SKPOLY
 70
     0
  9
$TDCREATE
 40
2459858.54341162
  9
$TDUCREATE
 40
2459858.751744954
  9
$TDUPDATE
 40
2459858.543436609
  9
$TDUUPDATE
 40
2459858.751769942
  9
$TDINDWG
 40
0.0000000116
  9
$TDUSRTIMER
 40
0.0000000116
  9
$USRTIMER
 70
     1
  9
$ANGBASE
 50
0.0
  9
$ANGDIR
 70
     0
  9
$PDMODE
 70
     0
  9
$PDSIZE
 40
-1.0
  9
$PLINEWID
 40
0.0
  9
$SPLFRAME
 70
     0
  9
$SPLINETYPE
 70
     6
  9
$SPLINESEGS
 70
     8
  9
$HANDSEED
  5
77
  9
$SURFTAB1
 70
     6
  9
$SURFTAB2
 70
     6
  9
$SURFTYPE
 70
     6
  9
$SURFU
 70
     6
  9
$SURFV
 70
     6
  9
$UCSBASE
  2

  9
$UCSNAME
  2

  9
$UCSORG
 10
0.0
 20
0.0
 30
0.0
  9
$UCSXDIR
 10
1.0
 20
0.0
 30
0.0
  9
$UCSYDIR
 10
0.0
 20
1.0
 30
0.0
  9
$UCSORTHOREF
  2

  9
$UCSORTHOVIEW
 70
     0
  9
$UCSORGTOP
 10
0.0
 20
0.0
 30
0.0
  9
$UCSORGBOTTOM
 10
0.0
 20
0.0
 30
0.0
  9
$UCSORGLEFT
 10
0.0
 20
0.0
 30
0.0
  9
$UCSORGRIGHT
 10
0.0
 20
0.0
 30
0.0
  9
$UCSORGFRONT
 10
0.0
 20
0.0
 30
0.0
  9
$UCSORGBACK
 10
0.0
 20
0.0
 30
0.0
  9
$PUCSBASE
  2

  9
$PUCSNAME
  2

  9
$PUCSORG
 10
0.0
 20
0.0
 30
0.0
  9
$PUCSXDIR
 10
1.0
 20
0.0
 30
0.0
  9
$PUCSYDIR
 10
0.0
 20
1.0
 30
0.0
  9
$PUCSORTHOREF
  2

  9
$PUCSORTHOVIEW
 70
     0
  9
$PUCSORGTOP
 10
0.0
 20
0.0
 30
0.0
  9
$PUCSORGBOTTOM
 10
0.0
 20
0.0
 30
0.0
  9
$PUCSORGLEFT
 10
0.0
 20
0.0
 30
0.0
  9
$PUCSORGRIGHT
 10
0.0
 20
0.0
 30
0.0
  9
$PUCSORGFRONT
 10
0.0
 20
0.0
 30
0.0
  9
$PUCSORGBACK
 10
0.0
 20
0.0
 30
0.0
  9
$USERI1
 70
     0
  9
$USERI2
 70
     0
  9
$USERI3
 70
     0
  9
$USERI4
 70
     0
  9
$USERI5
 70
     0
  9
$USERR1
 40
0.0
  9
$USERR2
 40
0.0
  9
$USERR3
 40
0.0
  9
$USERR4
 40
0.0
  9
$USERR5
 40
0.0
  9
$WORLDVIEW
 70
     1
  9
$SHADEDGE
 70
     3
  9
$SHADEDIF
 70
    70
  9
$TILEMODE
 70
     1
  9
$MAXACTVP
 70
    64
  9
$PINSBASE
 10
0.0
 20
0.0
 30
0.0
  9
$PLIMCHECK
 70
     0
  9
$PEXTMIN
 10
1.0000000000E+20
 20
1.0000000000E+20
 30
1.0000000000E+20
  9
$PEXTMAX
 10
-1.0000000000E+20
 20
-1.0000000000E+20
 30
-1.0000000000E+20
  9
$PLIMMIN
 10
0.0
 20
0.0
  9
$PLIMMAX
 10
12.0
 20
9.0
  9
$UNITMODE
 70
     0
  9
$VISRETAIN
 70
     1
  9
$PLINEGEN
 70
     0
  9
$PSLTSCALE
 70
     1
  9
$TREEDEPTH
 70
  3020
  9
$CMLSTYLE
  2
Standard
  9
$CMLJUST
 70
     0
  9
$CMLSCALE
 40
1.0
  9
$PROXYGRAPHICS
 70
     1
  9
$MEASUREMENT
 70
     0
  9
$CELWEIGHT
370
    -1
  9
$ENDCAPS
280
     0
  9
$JOINSTYLE
280
     0
  9
$LWDISPLAY
290
     1
  9
$INSUNITS
 70
     1
  9
$HYPERLINKBASE
  1

  9
$STYLESHEET
  1

  9
$XEDIT
290
     1
  9
$CEPSNTYPE
380
     0
  9
$PSTYLEMODE
290
     1
  9
$FINGERPRINTGUID
  2
{64d1a4b4-77b0-4149-8421-ff813f1e815a}
  9
$VERSIONGUID
  2
{FAEB1C32-E019-11D5-929B-00C0DF256EC4}
  9
$EXTNAMES
290
     1
  9
$PSVPSCALE
 40
0.0
  9
$OLESTARTUP
290
     0
  0
ENDSEC
  0
SECTION
  2
CLASSES
  0
CLASS
  1
ACDBDICTIONARYWDFLT
  2
AcDbDictionaryWithDefault
  3
ObjectDBX Classes
 90
        0
280
     0
281
     0
  0
CLASS
  1
VISUALSTYLE
  2
AcDbVisualStyle
  3
ObjectDBX Classes
 90
     4095
280
     0
281
     0
  0
CLASS
  1
MATERIAL
  2
AcDbMaterial
  3
ObjectDBX Classes
 90
     1153
280
     0
281
     0
  0
CLASS
  1
SCALE
  2
AcDbScale
  3
ObjectDBX Classes
 90
     1153
280
     0
281
     0
  0
CLASS
  1
TABLESTYLE
  2
AcDbTableStyle
  3
ObjectDBX Classes
 90
     4095
280
     0
281
     0
  0
CLASS
  1
MLEADERSTYLE
  2
AcDbMLeaderStyle
  3
ACDB_MLEADERSTYLE_CLASS
 90
     4095
280
     0
281
     0
  0
CLASS
  1
SUN
  2
AcDbSun
  3
SCENEOE
 90
     1153
280
     0
281
     0
  0
CLASS
  1
ACDBPLACEHOLDER
  2
AcDbPlaceHolder
  3
ObjectDBX Classes
 90
        0
280
     0
281
     0
  0
CLASS
  1
LAYOUT
  2
AcDbLayout
  3
ObjectDBX Classes
 90
        0
280
     0
281
     0
  0
ENDSEC
  0
SECTION
  2
TABLES
  0
TABLE
  2
VPORT
  5
8
330
0
100
AcDbSymbolTable
 70
     1
  0
VPORT
  5
29
330
8
100
AcDbSymbolTableRecord
100
AcDbViewportTableRecord
  2
*Active
 70
     0
 10
0.0
 20
0.0
 11
1.0
 21
1.0
 12
-0.0053000979
 22
2.4002723963
 13
0.0
 23
0.0
 14
0.5
 24
0.5
 15
0.5
 25
0.5
 16
0.0
 26
0.0
 36
1.0
 17
0.0
 27
0.0
 37
0.0
 40
4.8965556885
 41
1.249858143
 42
50.0
 43
0.0
 44
0.0
 50
0.0
 51
0.0
 71
     0
 72
   100
 73
     1
 74
     3
 75
     0
 76
     0
 77
     0
 78
     0
281
     0
 65
     1
110
0.0
120
0.0
130
0.0
111
1.0
121
0.0
131
0.0
112
0.0
122
1.0
132
0.0
 79
     0
146
0.0
  0
ENDTAB
  0
TABLE
  2
LTYPE
  5
5
330
0
100
AcDbSymbolTable
 70
     6
  0
LTYPE
  5
14
330
5
100
AcDbSymbolTableRecord
100
AcDbLinetypeTableRecord
  2
ByBlock
 70
     0
  3

 72
    65
 73
     0
 40
0.0
  0
LTYPE
  5
15
330
5
100
AcDbSymbolTableRecord
100
AcDbLinetypeTableRecord
  2
ByLayer
 70
     0
  3

 72
    65
 73
     0
 40
0.0
  0
LTYPE
  5
16
330
5
100
AcDbSymbolTableRecord
100
AcDbLinetypeTableRecord
  2
Continuous
 70
     0
  3
Solid line
 72
    65
 73
     0
 40
0.0
  0
LTYPE
  5
5E
330
5
100
AcDbSymbolTableRecord
100
AcDbLinetypeTableRecord
  2
HIDDEN
 70
     0
  3
Hidden __ __ __ __ __ __ __ __ __ __ __ __ __ __
 72
    65
 73
     2
 40
0.075
 49
0.05
 74
     0
 49
-0.025
 74
     0
  0
LTYPE
  5
5F
330
5
100
AcDbSymbolTableRecord
100
AcDbLinetypeTableRecord
  2
PHANTOM
 70
     0
  3
Phantom ______  __  __  ______  __  __  ______
 72
    65
 73
     6
 40
0.5
 49
0.25
 74
     0
 49
-0.05
 74
     0
 49
0.05
 74
     0
 49
-0.05
 74
     0
 49
0.05
 74
     0
 49
-0.05
 74
     0
  0
LTYPE
  5
60
330
5
100
AcDbSymbolTableRecord
100
AcDbLinetypeTableRecord
  2
CENTER
 70
     0
  3
Center ____ _ ____ _ ____ _ ____ _ ____ _ ____
 72
    65
 73
     4
 40
0.4
 49
0.25
 74
     0
 49
-0.05
 74
     0
 49
0.05
 74
     0
 49
-0.05
 74
     0
  0
LTYPE
  5
61
330
5
100
AcDbSymbolTableRecord
100
AcDbLinetypeTableRecord
  2
CENTERX2
 70
     0
  3
Center (2x) ________  __  ________  __  _____
 72
    65
 73
     4
 40
0.8
 49
0.5
 74
     0
 49
-0.1
 74
     0
 49
0.1
 74
     0
 49
-0.1
 74
     0
  0
LTYPE
  5
62
330
5
100
AcDbSymbolTableRecord
100
AcDbLinetypeTableRecord
  2
DOT2
 70
     0
  3
Dot (.5x) ........................................
 72
    65
 73
     2
 40
0.025
 49
0.0
 74
     0
 49
-0.025
 74
     0
  0
ENDTAB
  0
TABLE
  2
LAYER
  5
2
330
0
100
AcDbSymbolTable
 70
     1
  0
LAYER
  5
10
330
2
100
AcDbSymbolTableRecord
100
AcDbLayerTableRecord
  2
0
 70
     0
 62
     7
  6
Continuous
370
    -3
390
F
  0
ENDTAB
  0
TABLE
  2
STYLE
  5
3
330
0
100
AcDbSymbolTable
 70
     2
  0
STYLE
  5
11
330
3
100
AcDbSymbolTableRecord
100
AcDbTextStyleTableRecord
  2
Standard
 70
     0
 40
0.0
 41
1.0
 50
0.0
 71
     0
 42
0.1377952756
  3
txt
  4

  0
STYLE
  5
73
330
3
100
AcDbSymbolTableRecord
100
AcDbTextStyleTableRecord
  2
SLDTEXTSTYLE0
 70
     0
 40
0.0
 41
0.7
 50
0.0
 71
     0
 42
0.1377952756
  3
TXT
  4

  0
ENDTAB
  0
TABLE
  2
VIEW
  5
6
330
0
100
AcDbSymbolTable
 70
     0
  0
ENDTAB
  0
TABLE
  2
UCS
  5
7
330
0
100
AcDbSymbolTable
 70
     0
  0
ENDTAB
  0
TABLE
  2
APPID
  5
9
330
0
100
AcDbSymbolTable
 70
     1
  0
APPID
  5
12
330
9
100
AcDbSymbolTableRecord
100
AcDbRegAppTableRecord
  2
ACAD
 70
     0
  0
ENDTAB
  0
TABLE
  2
DIMSTYLE
  5
A
330
0
100
AcDbSymbolTable
 70
     1
100
AcDbDimStyleTable
  0
DIMSTYLE
105
27
330
A
100
AcDbSymbolTableRecord
100
AcDbDimStyleTableRecord
  2
Standard
 70
     0
178
     0
340
11
  0
ENDTAB
  0
TABLE
  2
BLOCK_RECORD
  5
1
330
0
100
AcDbSymbolTable
 70
     1
  0
BLOCK_RECORD
  5
1F
330
1
100
AcDbSymbolTableRecord
100
AcDbBlockTableRecord
  2
*Model_Space
340
22
  0
BLOCK_RECORD
  5
1B
330
1
100
AcDbSymbolTableRecord
100
AcDbBlockTableRecord
  2
*Paper_Space
340
1E
  0
BLOCK_RECORD
  5
23
330
1
100
AcDbSymbolTableRecord
100
AcDbBlockTableRecord
  2
*Paper_Space0
340
26
  0
ENDTAB
  0
ENDSEC
  0
SECTION
  2
BLOCKS
  0
BLOCK
  5
20
330
1F
100
AcDbEntity
  8
0
100
AcDbBlockBegin
  2
*Model_Space
 70
     0
 10
0.0
 20
0.0
 30
0.0
  3
*Model_Space
  1

  0
ENDBLK
  5
21
330
1F
100
AcDbEntity
  8
0
100
AcDbBlockEnd
  0
BLOCK
  5
1C
330
1B
100
AcDbEntity
 67
     1
  8
0
100
AcDbBlockBegin
  2
*Paper_Space
 70
     0
 10
0.0
 20
0.0
 30
0.0
  3
*Paper_Space
  1

  0
ENDBLK
  5
1D
330
1B
100
AcDbEntity
 67
     1
  8
0
100
AcDbBlockEnd
  0
BLOCK
  5
24
330
23
100
AcDbEntity
  8
0
100
AcDbBlockBegin
  2
*Paper_Space0
 70
     0
 10
0.0
 20
0.0
 30
0.0
  3
*Paper_Space0
  1

  0
ENDBLK
  5
25
330
23
100
AcDbEntity
  8
0
100
AcDbBlockEnd
  0
ENDSEC
  0
SECTION
  2
ENTITIES
  0
SPLINE
  5
63
330
1F
100
AcDbEntity
  8
0
  6
Continuous
 62
     7
370
    25
100
AcDbSpline
210
0.0
220
0.0
230
1.0
 70
    11
 71
     3
 72
   119
 73
   115
 74
     0
 42
0.00000001
 43
0.00000001
 40
0.0
 40
0.0
 40
0.0
 40
0.0
 40
0.0002710283195858
 40
0.0002710283195858
 40
0.0002710283195858
 40
0.0005420566391715
 40
0.0005420566391715
 40
0.0005420566391715
 40
0.0008130849587573
 40
0.0008130849587573
 40
0.0008130849587573
 40
0.001084113278343
 40
0.001084113278343
 40
0.001084113278343
 40
0.0013551415979287
 40
0.0013551415979287
 40
0.0013551415979287
 40
0.0016261699175145
 40
0.0016261699175145
 40
0.0016261699175145
 40
0.0018971982371002
 40
0.0018971982371002
 40
0.0018971982371002
 40
0.002168226556686
 40
0.002168226556686
 40
0.002168226556686
 40
0.0024392548762717
 40
0.0024392548762717
 40
0.0024392548762717
 40
0.0027102831958575
 40
0.0027102831958575
 40
0.0027102831958575
 40
0.0029813115154432
 40
0.0029813115154432
 40
0.0029813115154432
 40
0.003252339835029
 40
0.003252339835029
 40
0.003252339835029
 40
0.0035233681546147
 40
0.0035233681546147
 40
0.0035233681546147
 40
0.0037943964742004
 40
0.0037943964742004
 40
0.0037943964742004
 40
0.0040654247937862
 40
0.0040654247937862
 40
0.0040654247937862
 40
0.0043364531133719
 40
0.0043364531133719
 40
0.0043364531133719
 40
0.0046074814329577
 40
0.0046074814329577
 40
0.0046074814329577
 40
0.0048785097525434
 40
0.0048785097525434
 40
0.0048785097525434
 40
0.0051495380721292
 40
0.0051495380721292
 40
0.0051495380721292
 40
0.0054205663917149
 40
0.0054205663917149
 40
0.0054205663917149
 40
0.0056915947113006
 40
0.0056915947113006
 40
0.0056915947113006
 40
0.0059626230308864
 40
0.0059626230308864
 40
0.0059626230308864
 40
0.0062336513504721
 40
0.0062336513504721
 40
0.0062336513504721
 40
0.0065046796700579
 40
0.0065046796700579
 40
0.0065046796700579
 40
0.0067757079896436
 40
0.0067757079896436
 40
0.0067757079896436
 40
0.0070467363092294
 40
0.0070467363092294
 40
0.0070467363092294
 40
0.0073177646288151
 40
0.0073177646288151
 40
0.0073177646288151
 40
0.0075887929484009
 40
0.0075887929484009
 40
0.0075887929484009
 40
0.0078598212679866
 40
0.0078598212679866
 40
0.0078598212679866
 40
0.0081308495875723
 40
0.0081308495875723
 40
0.0081308495875723
 40
0.0084018779071581
 40
0.0084018779071581
 40
0.0084018779071581
 40
0.0086729062267438
 40
0.0086729062267438
 40
0.0086729062267438
 40
0.0089439345463296
 40
0.0089439345463296
 40
0.0089439345463296
 40
0.0092149628659153
 40
0.0092149628659153
 40
0.0092149628659153
 40
0.009485991185501
 40
0.009485991185501
 40
0.009485991185501
 40
0.0097570195050868
 40
0.0097570195050868
 40
0.0097570195050868
 40
0.0099967097025131
 40
0.0099967097025131
 40
0.0099967097025131
 40
0.0102418141582836
 40
0.0102418141582836
 40
0.0102418141582836
 40
0.0102418141582836
 10
0.2766630546304479
 20
4.599244807511359
 30
0.0
 10
0.2766630546304479
 20
4.60280160960566
 30
0.0
 10
0.2769604450711569
 20
4.606370610742924
 30
0.0
 10
0.277549105760737
 20
4.609878362121025
 30
0.0
 10
0.2781377664503172
 20
4.613386113499125
 30
0.0
 10
0.2790217353401928
 20
4.616856676737815
 30
0.0
 10
0.2801828206580501
 20
4.620218628852686
 30
0.0
 10
0.2813439059759073
 20
4.623580580967555
 30
0.0
 10
0.2827900722524116
 20
4.626856983460033
 30
0.0
 10
0.2844915578885615
 20
4.62998040910634
 30
0.0
 10
0.2861930435247114
 20
4.633103834752645
 30
0.0
 10
0.2881615199578404
 20
4.636095708868352
 30
0.0
 10
0.29035647662758
 20
4.638894459724714
 30
0.0
 10
0.2925514332973196
 20
4.641693210581076
 30
0.0
 10
0.2949879266335778
 20
4.644318036368511
 30
0.0
 10
0.2976158144508944
 20
4.646714919085214
 30
0.0
 10
0.300243702268211
 20
4.649111801801915
 30
0.0
 10
0.3030810107122829
 20
4.651297183000977
 30
0.0
 10
0.3060693489621319
 20
4.653226088297385
 30
0.0
 10
0.3090576872119807
 20
4.655154993593795
 30
0.0
 10
0.3122175539435126
 20
4.656840654422957
 30
0.0
 10
0.3154839201983775
 20
4.658248380471272
 30
0.0
 10
0.3187502864532423
 20
4.659656106519587
 30
0.0
 10
0.3221455580562329
 20
4.660795554163816
 30
0.0
 10
0.3255998614986175
 20
4.661643273967734
 30
0.0
 10
0.3290541649410021
 20
4.662490993771652
 30
0.0
 10
0.3325911952133825
 20
4.663052800717389
 30
0.0
 10
0.3361381614629137
 20
4.663317133013394
 30
0.0
 10
0.3396851277124449
 20
4.6635814653094
 30
0.0
 10
0.3432663605555159
 20
4.663550136158068
 30
0.0
 10
0.3468081594657503
 20
4.663223790302436
 30
0.0
 10
0.3503499583759845
 20
4.662897444446805
 30
0.0
 10
0.353876618524114
 20
4.662273843298947
 30
0.0
 10
0.3573155624708437
 20
4.6613658203536
 30
0.0
 10
0.3607545064175735
 20
4.660457797408253
 30
0.0
 10
0.3641293237941729
 20
4.659259124030466
 30
0.0
 10
0.3673705620327755
 20
4.657794468501462
 30
0.0
 10
0.370611800271378
 20
4.656329812972456
 30
0.0
 10
0.3737416928297222
 20
4.654589128404467
 30
0.0
 10
0.3766958276075174
 20
4.652608237480503
 30
0.0
 10
0.3796499623853125
 20
4.650627346556537
 30
0.0
 10
0.3824486034378056
 20
4.648392661242827
 30
0.0
 10
0.3850341557054892
 20
4.645950170585915
 30
0.0
 10
0.3876197079731729
 20
4.643507679929004
 30
0.0
 10
0.3900099071986374
 20
4.640840629525543
 30
0.0
 10
0.3921555639131216
 20
4.638003906345249
 30
0.0
 10
0.3943012206276058
 20
4.635167183164955
 30
0.0
 10
0.3962170530851749
 20
4.632141328544102
 30
0.0
 10
0.397863634120169
 20
4.628988613518411
 30
0.0
 10
0.399510215155163
 20
4.625835898492719
 30
0.0
 10
0.400898839583686
 20
4.622534696834455
 30
0.0
 10
0.4020009299979551
 20
4.619152946125606
 30
0.0
 10
0.4031030204122242
 20
4.615771195416757
 30
0.0
 10
0.403926136664014
 20
4.612285698346317
 30
0.0
 10
0.4044533393071381
 20
4.608768185231756
 30
0.0
 10
0.4049805419502623
 20
4.605250672117195
 30
0.0
 10
0.4052154473611863
 20
4.601677014377576
 30
0.0
 10
0.4051532212682525
 20
4.598120756646283
 30
0.0
 10
0.4050909951753186
 20
4.59456449891499
 30
0.0
 10
0.404731210735109
 20
4.591001246840186
 30
0.0
 10
0.4040812721862721
 20
4.58750433091029
 30
0.0
 10
0.4034313336374352
 20
4.584007414980394
 30
0.0
 10
0.4024867826895909
 20
4.580552847902026
 30
0.0
 10
0.4012670578727362
 20
4.57721172346418
 30
0.0
 10
0.4000473330558815
 20
4.573870599026334
 30
0.0
 10
0.3985440675983777
 20
4.570619998596214
 30
0.0
 10
0.3967881981805128
 20
4.567526818400133
 30
0.0
 10
0.3950323287626478
 20
4.564433638204052
 30
0.0
 10
0.3930118108984497
 20
4.561476660396818
 30
0.0
 10
0.390768226142838
 20
4.558716738553286
 30
0.0
 10
0.3885246413872262
 20
4.555956816709752
 30
0.0
 10
0.3860425997431767
 20
4.553375018989322
 30
0.0
 10
0.3833731807644831
 20
4.551024477891145
 30
0.0
 10
0.3807037617857895
 20
4.548673936792969
 30
0.0
 10
0.3778286544413951
 20
4.546538528646918
 30
0.0
 10
0.3748070274405002
 20
4.544662199409953
 30
0.0
 10
0.3717854004396053
 20
4.542785870172988
 30
0.0
 10
0.3685965267602263
 20
4.54115574905817
 30
0.0
 10
0.3653060323136114
 20
4.539805383391093
 30
0.0
 10
0.3620155378669965
 20
4.538455017724015
 30
0.0
 10
0.3586008513196514
 20
4.537375144594711
 30
0.0
 10
0.3551322457331104
 20
4.536587987416607
 30
0.0
 10
0.3516636401465694
 20
4.535800830238502
 30
0.0
 10
0.3481173224238608
 20
4.535300989462239
 30
0.0
 10
0.3445662745503271
 20
4.535098751637149
 30
0.0
 10
0.3410152266767935
 20
4.534896513812061
 30
0.0
 10
0.3374350900379142
 20
4.534990491676302
 30
0.0
 10
0.3338995426005648
 20
4.535378751198112
 30
0.0
 10
0.3303639951632153
 20
4.535767010719922
 30
0.0
 10
0.3268487846389971
 20
4.536452215187537
 30
0.0
 10
0.323426252837927
 20
4.537420263331323
 30
0.0
 10
0.3200037210368569
 20
4.538388311475109
 30
0.0
 10
0.3166503909077105
 20
4.539645843676277
 30
0.0
 10
0.3134352728182749
 20
4.541166980359487
 30
0.0
 10
0.3102201547288395
 20
4.542688117042697
 30
0.0
 10
0.3071211943940225
 20
4.544483292531402
 30
0.0
 10
0.3042021673397131
 20
4.546515562738396
 30
0.0
 10
0.3012831402854035
 20
4.548547832945388
 30
0.0
 10
0.298524023279777
 20
4.550831138343551
 30
0.0
 10
0.2959815979912025
 20
4.553318489301908
 30
0.0
 10
0.2934391727026281
 20
4.555805840260266
 30
0.0
 10
0.2910959992204773
 20
4.558514298903952
 30
0.0
 10
0.2890002992400696
 20
4.561388126096068
 30
0.0
 10
0.2869045992596619
 20
4.564261953288184
 30
0.0
 10
0.2850419972079857
 20
4.567320862209532
 30
0.0
 10
0.2834508247874611
 20
4.570501901578384
 30
0.0
 10
0.2818596523669366
 20
4.573682940947235
 30
0.0
 10
0.2805289948399969
 20
4.577007931283765
 30
0.0
 10
0.2794862366757505
 20
4.580408445443259
 30
0.0
 10
0.2785633557216783
 20
4.583418030848058
 30
0.0
 10
0.2778603692186588
 20
4.586503901894952
 30
0.0
 10
0.2773886218707171
 20
4.589616259201541
 30
0.0
 10
0.276906277933791
 20
4.592798527597814
 30
0.0
 10
0.2766630546304479
 20
4.59602619168784
 30
0.0
 10
0.2766630546304479
 20
4.599244807511359
 30
0.0
  0
CIRCLE
  5
64
330
1F
100
AcDbEntity
  8
0
  6
Continuous
 62
     7
370
    25
100
AcDbCircle
 10
0.9683524825
 20
4.595757798
 30
0.0
 40
0.0642500000000019
  0
SPLINE
  5
65
330
1F
100
AcDbEntity
  8
0
  6
Continuous
 62
     7
370
    25
100
AcDbSpline
210
0.0
220
0.0
230
1.0
 70
    24
 71
     3
 72
     8
 73
     4
 74
     0
 42
0.00000001
 43
0.00000001
 40
0.0
 40
0.0
 40
0.0
 40
0.0
 40
0.054744611638305
 40
0.054744611638305
 40
0.054744611638305
 40
0.054744611638305
 10
2.994699902092146
 20
1.0
 30
0.0
 10
2.895965261807865
 20
1.0
 30
0.0
 10
2.7968589622836
 20
1.0
 30
0.0
 10
2.697499999900912
 20
1.0
 30
0.0
  0
LINE
  5
66
330
1F
100
AcDbEntity
  8
0
  6
Continuous
 62
     7
370
    25
100
AcDbLine
 10
2.6974999999
 20
1.0
 30
0.0
 11
2.6975
 21
0.5
 31
0.0
  0
LINE
  5
67
330
1F
100
AcDbEntity
  8
0
  6
Continuous
 62
     7
370
    25
100
AcDbLine
 10
2.6975
 20
0.5
 30
0.0
 11
2.5025
 21
0.5
 31
0.0
  0
LINE
  5
68
330
1F
100
AcDbEntity
  8
0
  6
Continuous
 62
     7
370
    25
100
AcDbLine
 10
2.5024999999
 20
1.0
 30
0.0
 11
2.5025
 21
0.5
 31
0.0
  0
SPLINE
  5
69
330
1F
100
AcDbEntity
  8
0
  6
Continuous
 62
     7
370
    25
100
AcDbSpline
210
0.0
220
0.0
230
1.0
 70
     8
 71
     3
 72
    20
 73
    16
 74
     0
 42
0.00000001
 43
0.00000001
 40
0.0
 40
0.0
 40
0.0
 40
0.0
 40
0.0309582493807979
 40
0.0916899566978713
 40
0.1524216640149445
 40
0.1524216640149445
 40
0.1885192249905542
 40
0.2246167859661639
 40
0.2607143469417734
 40
0.2968119079173832
 40
0.2968119079173832
 40
0.4499826396247003
 40
0.6031533713320173
 40
0.7563241030393344
 40
0.9094948347466514
 40
0.9094948347466514
 40
0.9094948347466514
 40
0.9094948347466514
 10
2.502499999939054
 20
1.0
 30
0.0
 10
2.446155872042616
 20
1.0
 30
0.0
 10
2.279119148715803
 20
1.000000000000001
 30
0.0
 10
2.000992555558506
 20
0.9999999999999994
 30
0.0
 10
1.779517568591677
 20
1.0
 30
0.0
 10
1.603546744632595
 20
1.0
 30
0.0
 10
1.472477540005769
 20
1.026042801627963
 30
0.0
 10
1.305577331482428
 20
1.137925909916275
 30
0.0
 10
1.194694106143217
 20
1.304876786131254
 30
0.0
 10
1.169147958602228
 20
1.435042329927647
 30
0.0
 10
1.169147958602228
 20
1.775631194631338
 30
0.0
 10
1.169147958602229
 20
2.325896392460983
 30
0.0
 10
1.169147958602227
 20
3.14976651517803
 30
0.0
 10
1.169147958602228
 20
3.973867516511165
 30
0.0
 10
1.169147958602228
 20
4.524570538451804
 30
0.0
 10
1.169147958602228
 20
4.800544792649914
 30
0.0
  0
LINE
  5
6A
330
1F
100
AcDbEntity
  8
0
  6
Continuous
 62
     7
370
    25
100
AcDbLine
 10
1.1691479586
 20
4.8005447926
 30
0.0
 11
0.0966613286
 21
4.8005447926
 31
0.0
  0
SPLINE
  5
6B
330
1F
100
AcDbEntity
  8
0
  6
Continuous
 62
     7
370
    25
100
AcDbSpline
210
0.0
220
0.0
230
1.0
 70
     8
 71
     3
 72
    21
 73
    17
 74
     0
 42
0.00000001
 43
0.00000001
 40
0.0
 40
0.0
 40
0.0
 40
0.0
 40
0.1274963468095471
 40
0.254992693619094
 40
0.3824890404286412
 40
0.5099853872381881
 40
0.5099853872381881
 40
0.5249837635979868
 40
0.5399821399577854
 40
0.5699788926773828
 40
0.5999756453969801
 40
0.6299723981165775
 40
0.6299723981165775
 40
0.7224792985874331
 40
0.8149861990582887
 40
0.897773266047263
 40
0.897773266047263
 40
0.897773266047263
 40
0.897773266047263
 10
0.0966613286084887
 20
4.800544792649914
 30
0.0
 10
0.0966613286084887
 20
4.515484374439913
 30
0.0
 10
0.0966613286084888
 20
3.95656022182261
 30
0.0
 10
0.0966613286084885
 20
3.135986159799846
 30
0.0
 10
0.0966613286084887
 20
2.321532947243643
 30
0.0
 10
0.0966613286084886
 20
1.775614978621599
 30
0.0
 10
0.0966613286084887
 20
1.467577289207042
 30
0.0
 10
0.0903121882792416
 20
1.40296759366849
 30
0.0
 10
0.0533256332750334
 20
1.279112838009293
 30
0.0
 10
-0.0362641805571305
 20
1.142162868612289
 30
0.0
 10
-0.2000123078219406
 20
1.028785535179947
 30
0.0
 10
-0.3342244494128504
 20
1.0
 30
0.0
 10
-0.6164798241511439
 20
1.000000000000001
 30
0.0
 10
-1.051413774105315
 20
1.0
 30
0.0
 10
-1.692636162709861
 20
1.0
 30
0.0
 10
-2.108727648431186
 20
1.0
 30
0.0
 10
-2.302500000000026
 20
1.000000000000001
 30
0.0
  0
LINE
  5
6C
330
1F
100
AcDbEntity
  8
0
  6
Continuous
 62
     7
370
    25
100
AcDbLine
 10
-2.3025
 20
1.0
 30
0.0
 11
-2.3025
 21
0.5
 31
0.0
  0
LINE
  5
6D
330
1F
100
AcDbEntity
  8
0
  6
Continuous
 62
     7
370
    25
100
AcDbLine
 10
-2.3025
 20
0.5
 30
0.0
 11
-2.4975
 21
0.5
 31
0.0
  0
LINE
  5
6E
330
1F
100
AcDbEntity
  8
0
  6
Continuous
 62
     7
370
    25
100
AcDbLine
 10
-2.4975
 20
0.5
 30
0.0
 11
-2.4975
 21
1.0
 31
0.0
  0
SPLINE
  5
6F
330
1F
100
AcDbEntity
  8
0
  6
Continuous
 62
     7
370
    25
100
AcDbSpline
210
0.0
220
0.0
230
1.0
 70
    24
 71
     3
 72
     8
 73
     4
 74
     0
 42
0.00000001
 43
0.00000001
 40
0.0
 40
0.0
 40
0.0
 40
0.0
 40
0.0743139619269456
 40
0.0743139619269456
 40
0.0743139619269456
 40
0.0743139619269456
 10
-2.497500000000006
 20
1.0
 30
0.0
 10
-2.669621556913742
 20
1.0
 30
0.0
 10
-2.839157331584921
 20
1.0
 30
0.0
 10
-3.005300097907854
 20
1.0
 30
0.0
  0
LINE
  5
70
330
1F
100
AcDbEntity
  8
0
  6
Continuous
 62
     7
370
    25
100
AcDbLine
 10
-3.0053000979
 20
1.0
 30
0.0
 11
-3.0053000979
 21
0.0
 31
0.0
  0
LINE
  5
71
330
1F
100
AcDbEntity
  8
0
  6
Continuous
 62
     7
370
    25
100
AcDbLine
 10
-3.0053000979
 20
0.0
 30
0.0
 11
2.9946999021
 21
0.0
 31
0.0
  0
LINE
  5
72
330
1F
100
AcDbEntity
  8
0
  6
Continuous
 62
     7
370
    25
100
AcDbLine
 10
2.9946999021
 20
0.0
 30
0.0
 11
2.9946999021
 21
1.0
 31
0.0
  0
MTEXT
  5
74
330
1F
100
AcDbEntity
  8
0
  6
Continuous
 62
     7
100
AcDbMText
 10
-3.0053000979
 20
-0.0401404091
 30
0.0
 40
0.1903
 41
0.0
 71
     1
 72
     1
  1
SOLIDWORKS Educational Product.
  7
SLDTEXTSTYLE0
 73
     1
 44
1.0
  0
MTEXT
  5
75
330
1F
100
AcDbEntity
  8
0
  6
Continuous
 62
     7
100
AcDbMText
 10
-3.0053000979
 20
-0.3255904091
 30
0.0
 40
0.1903
 41
0.0
 71
     1
 72
     1
  1
For Instructional Use Only.
  7
SLDTEXTSTYLE0
 73
     1
 44
1.0
  0
ENDSEC
  0
SECTION
  2
OBJECTS
  0
DICTIONARY
  5
C
330
0
100
AcDbDictionary
281
     1
  3
ACAD_GROUP
350
D
  3
ACAD_LAYOUT
350
1A
  3
ACAD_MLINESTYLE
350
17
  3
ACAD_PLOTSETTINGS
350
19
  3
ACAD_PLOTSTYLENAME
350
E
  3
ACAD_SCALELIST
350
47
  3
DWGPROPS
350
76
  0
DICTIONARY
  5
D
102
{ACAD_REACTORS
330
C
102
}
330
C
100
AcDbDictionary
281
     1
  0
DICTIONARY
  5
1A
102
{ACAD_REACTORS
330
C
102
}
330
C
100
AcDbDictionary
281
     1
  3
Layout1
350
1E
  3
Layout2
350
26
  3
Model
350
22
  0
DICTIONARY
  5
17
102
{ACAD_REACTORS
330
C
102
}
330
C
100
AcDbDictionary
281
     1
  3
Standard
350
18
  0
DICTIONARY
  5
19
102
{ACAD_REACTORS
330
C
102
}
330
C
100
AcDbDictionary
281
     1
  0
ACDBDICTIONARYWDFLT
  5
E
102
{ACAD_REACTORS
330
C
102
}
330
C
100
AcDbDictionary
281
     1
  3
Normal
350
F
100
AcDbDictionaryWithDefault
340
F
  0
DICTIONARY
  5
47
102
{ACAD_REACTORS
330
C
102
}
330
C
100
AcDbDictionary
281
     1
  3
A0
350
48
  3
A1
350
49
  3
A2
350
4A
  3
A3
350
4B
  3
A4
350
4C
  3
A5
350
4D
  3
A6
350
4E
  3
A7
350
4F
  3
A8
350
50
  3
A9
350
51
  3
B1
350
52
  3
B2
350
53
  3
B3
350
54
  3
B4
350
55
  3
B5
350
56
  3
B6
350
57
  3
B7
350
58
  0
XRECORD
  5
76
102
{ACAD_REACTORS
330
C
102
}
330
C
100
AcDbXrecord
280
     1
  1
DWGPROPS COOKIE
  2

  3

  4

  6

  7

  8
deshe
  9

300
=
301
=
302
=
303
=
304
=
305
=
306
=
307
=
308
=
309
=
 40
0.0
 41
2459858.751744954
 42
2459858.751769942
  1

 90
        0
  0
LAYOUT
  5
1E
102
{ACAD_REACTORS
330
1A
102
}
330
1A
100
AcDbPlotSettings
  1

  2
none_device
  4

  6

 40
0.0
 41
0.0
 42
0.0
 43
0.0
 44
0.0
 45
0.0
 46
0.0
 47
0.0
 48
0.0
 49
0.0
140
0.0
141
0.0
142
1.0
143
1.0
 70
   688
 72
     0
 73
     0
 74
     5
  7

 75
    16
147
1.0
148
0.0
149
0.0
100
AcDbLayout
  1
Layout1
 70
     1
 71
     1
 10
0.0
 20
0.0
 11
12.0
 21
9.0
 12
0.0
 22
0.0
 32
0.0
 14
1.0000000000E+20
 24
1.0000000000E+20
 34
1.0000000000E+20
 15
-1.0000000000E+20
 25
-1.0000000000E+20
 35
-1.0000000000E+20
146
0.0
 13
0.0
 23
0.0
 33
0.0
 16
1.0
 26
0.0
 36
0.0
 17
0.0
 27
1.0
 37
0.0
 76
     0
330
1B
  0
LAYOUT
  5
26
102
{ACAD_REACTORS
330
1A
102
}
330
1A
100
AcDbPlotSettings
  1

  2
none_device
  4

  6

 40
0.0
 41
0.0
 42
0.0
 43
0.0
 44
0.0
 45
0.0
 46
0.0
 47
0.0
 48
0.0
 49
0.0
140
0.0
141
0.0
142
1.0
143
1.0
 70
   688
 72
     0
 73
     0
 74
     5
  7

 75
    16
147
1.0
148
0.0
149
0.0
100
AcDbLayout
  1
Layout2
 70
     1
 71
     2
 10
0.0
 20
0.0
 11
0.0
 21
0.0
 12
0.0
 22
0.0
 32
0.0
 14
0.0
 24
0.0
 34
0.0
 15
0.0
 25
0.0
 35
0.0
146
0.0
 13
0.0
 23
0.0
 33
0.0
 16
1.0
 26
0.0
 36
0.0
 17
0.0
 27
1.0
 37
0.0
 76
     0
330
23
  0
LAYOUT
  5
22
102
{ACAD_REACTORS
330
1A
102
}
330
1A
100
AcDbPlotSettings
  1

  2
none_device
  4
ANSI_A_(11.00_x_8.50_Inches)
  6

 40
6.35
 41
19.05
 42
6.35000508
 43
19.05000254
 44
279.4
 45
215.9
 46
133.5859807235
 47
-17.97050127
 48
0.0
 49
0.0
140
0.0
141
0.0
142
1.7529260456
143
1.0
 70
  1696
 72
     0
 73
     0
 74
     0
  7

 75
     0
147
0.5913241897
148
-39.4088153714
149
0.0
100
AcDbLayout
  1
Model
 70
     1
 71
     0
 10
0.0
 20
0.0
 11
12.0
 21
9.0
 12
0.0
 22
0.0
 32
0.0
 14
-3.0053000979
 24
0.0
 34
0.0
 15
2.9946999021
 25
4.8005447926
 35
0.0
146
0.0
 13
0.0
 23
0.0
 33
0.0
 16
1.0
 26
0.0
 36
0.0
 17
0.0
 27
1.0
 37
0.0
 76
     0
330
1F
331
29
  0
MLINESTYLE
  5
18
102
{ACAD_REACTORS
330
17
102
}
330
17
100
AcDbMlineStyle
  2
Standard
 70
     0
  3

 62
   256
 51
90.0
 52
90.0
 71
     2
 49
0.5
 62
   256
  6
BYLAYER
 49
-0.5
 62
   256
  6
BYLAYER
  0
ACDBPLACEHOLDER
  5
F
102
{ACAD_REACTORS
330
E
102
}
330
E
  0
SCALE
  5
48
102
{ACAD_REACTORS
330
47
102
}
330
47
100
AcDbScale
 70
     0
300
1:1
140
1.0
141
1.0
290
     1
  0
SCALE
  5
49
102
{ACAD_REACTORS
330
47
102
}
330
47
100
AcDbScale
 70
     0
300
1/128" = 1'-0"
140
0.0078125
141
12.0
290
     0
  0
SCALE
  5
4A
102
{ACAD_REACTORS
330
47
102
}
330
47
100
AcDbScale
 70
     0
300
1/64" = 1'-0"
140
0.015625
141
12.0
290
     0
  0
SCALE
  5
4B
102
{ACAD_REACTORS
330
47
102
}
330
47
100
AcDbScale
 70
     0
300
1/32" = 1'-0"
140
0.03125
141
12.0
290
     0
  0
SCALE
  5
4C
102
{ACAD_REACTORS
330
47
102
}
330
47
100
AcDbScale
 70
     0
300
1/16" = 1'-0"
140
0.0625
141
12.0
290
     0
  0
SCALE
  5
4D
102
{ACAD_REACTORS
330
47
102
}
330
47
100
AcDbScale
 70
     0
300
3/32" = 1'-0"
140
0.09375
141
12.0
290
     0
  0
SCALE
  5
4E
102
{ACAD_REACTORS
330
47
102
}
330
47
100
AcDbScale
 70
     0
300
1/8" = 1'-0"
140
0.125
141
12.0
290
     0
  0
SCALE
  5
4F
102
{ACAD_REACTORS
330
47
102
}
330
47
100
AcDbScale
 70
     0
300
3/16" = 1'-0"
140
0.1875
141
12.0
290
     0
  0
SCALE
  5
50
102
{ACAD_REACTORS
330
47
102
}
330
47
100
AcDbScale
 70
     0
300
1/4" = 1'-0"
140
0.25
141
12.0
290
     0
  0
SCALE
  5
51
102
{ACAD_REACTORS
330
47
102
}
330
47
100
AcDbScale
 70
     0
300
3/8" = 1'-0"
140
0.375
141
12.0
290
     0
  0
SCALE
  5
52
102
{ACAD_REACTORS
330
47
102
}
330
47
100
AcDbScale
 70
     0
300
1/2" = 1'-0"
140
0.5
141
12.0
290
     0
  0
SCALE
  5
53
102
{ACAD_REACTORS
330
47
102
}
330
47
100
AcDbScale
 70
     0
300
3/4" = 1'-0"
140
0.75
141
12.0
290
     0
  0
SCALE
  5
54
102
{ACAD_REACTORS
330
47
102
}
330
47
100
AcDbScale
 70
     0
300
1" = 1'-0"
140
1.0
141
12.0
290
     0
  0
SCALE
  5
55
102
{ACAD_REACTORS
330
47
102
}
330
47
100
AcDbScale
 70
     0
300
1-1/2" = 1'-0"
140
1.5
141
12.0
290
     0
  0
SCALE
  5
56
102
{ACAD_REACTORS
330
47
102
}
330
47
100
AcDbScale
 70
     0
300
3" = 1'-0"
140
3.0
141
12.0
290
     0
  0
SCALE
  5
57
102
{ACAD_REACTORS
330
47
102
}
330
47
100
AcDbScale
 70
     0
300
6" = 1'-0"
140
6.0
141
12.0
290
     0
  0
SCALE
  5
58
102
{ACAD_REACTORS
330
47
102
}
330
47
100
AcDbScale
 70
     0
300
1'-0" = 1'-0"
140
12.0
141
12.0
290
     0
  0
ENDSEC
  0
EOF
